<svg id="svg" version="1.1" xmlns="http://www.w3.org/2000/svg" xmlns:xlink="http://www.w3.org/1999/xlink" width="400" height="400" viewBox="0, 0, 400,400"><g id="svgg"><path id="path0" d="M0.000 200.000 L 0.000 400.000 200.000 400.000 L 400.000 400.000 400.000 200.000 L 400.000 0.000 200.000 0.000 L 0.000 0.000 0.000 200.000 M122.316 145.056 C 124.304 145.589,124.400 146.398,124.400 162.580 L 124.400 177.600 125.386 177.600 C 126.000 177.600,126.553 177.260,126.851 176.700 C 128.461 173.678,135.339 171.494,140.600 172.335 C 146.787 173.324,153.120 178.096,155.991 183.934 C 156.712 185.400,157.533 186.870,157.814 187.200 C 158.095 187.530,158.531 188.610,158.783 189.600 C 159.035 190.590,159.499 192.072,159.814 192.893 C 162.987 201.151,162.963 223.311,159.770 233.207 C 159.237 234.861,158.800 236.526,158.800 236.907 C 158.800 237.288,158.485 237.929,158.100 238.331 C 157.715 238.733,156.680 240.488,155.800 242.231 C 149.425 254.858,135.383 259.004,126.131 250.993 L 124.462 249.548 123.813 250.916 C 122.862 252.921,121.635 253.404,117.570 253.376 C 110.992 253.331,111.600 258.871,111.600 199.000 C 111.600 145.050,111.555 146.362,113.463 145.253 C 114.252 144.794,120.794 144.649,122.316 145.056 M275.256 149.564 C 276.199 150.327,276.200 150.340,276.400 161.732 C 276.630 174.821,276.237 173.689,280.650 173.982 C 284.989 174.270,285.384 174.667,285.717 179.070 C 286.240 186.000,285.461 187.299,280.583 187.622 C 275.933 187.931,276.341 185.745,276.393 210.046 C 276.451 237.632,276.502 238.009,280.229 238.587 C 280.983 238.704,282.231 238.898,283.003 239.019 C 285.024 239.334,285.550 240.436,286.064 245.442 C 286.797 252.571,285.141 254.536,278.400 254.539 C 272.687 254.540,268.759 252.379,266.270 247.863 C 263.991 243.728,263.929 242.841,263.958 214.687 C 263.988 186.193,264.130 187.600,261.215 187.600 C 258.082 187.600,257.600 186.684,257.600 180.728 C 257.600 174.973,258.148 174.000,261.392 174.000 C 263.898 174.000,264.035 173.492,263.916 164.656 C 263.794 155.552,263.564 156.125,269.504 150.716 C 271.874 148.558,273.588 148.215,275.256 149.564 M197.582 173.702 C 202.306 175.826,203.040 178.276,200.977 185.039 C 199.229 190.768,198.054 191.534,193.467 189.934 C 188.570 188.224,185.720 190.726,183.822 198.400 C 183.469 199.830,182.979 201.630,182.734 202.400 C 182.435 203.336,182.231 211.614,182.116 227.400 C 181.926 253.519,182.046 252.416,179.304 253.178 C 175.471 254.242,171.494 253.376,170.220 251.200 C 169.191 249.443,168.697 179.968,169.692 176.995 C 170.573 174.363,171.862 173.852,177.347 173.961 C 179.068 173.996,179.484 174.190,180.928 175.633 L 182.561 177.267 183.306 176.245 C 186.293 172.144,191.898 171.146,197.582 173.702 M238.400 173.491 C 243.789 175.432,246.662 178.144,249.532 184.000 L 251.395 187.800 251.643 213.800 C 251.881 238.717,251.928 239.974,252.788 243.988 C 254.514 252.049,253.839 253.400,248.086 253.400 C 242.600 253.400,240.400 252.036,240.400 248.635 C 240.400 247.160,238.514 247.561,236.800 249.400 C 227.386 259.502,206.297 255.364,203.338 242.833 C 203.203 242.265,202.652 240.850,202.113 239.689 C 200.721 236.695,200.850 225.604,202.306 223.006 C 202.798 222.129,203.200 221.147,203.200 220.823 C 203.200 219.671,207.520 212.978,208.646 212.385 C 209.257 212.063,210.395 211.219,211.175 210.508 C 211.955 209.798,213.135 209.018,213.797 208.775 C 214.458 208.533,215.270 208.168,215.600 207.966 C 217.134 207.025,218.448 206.676,221.600 206.369 C 223.470 206.187,226.710 205.575,228.800 205.008 C 230.890 204.442,233.754 203.758,235.165 203.489 C 238.653 202.824,239.223 201.510,238.437 195.953 C 237.360 188.342,234.157 186.203,225.315 187.189 C 219.922 187.791,217.971 189.510,216.577 194.888 C 215.335 199.681,214.592 200.405,210.926 200.391 C 203.075 200.362,201.740 196.908,205.592 186.600 C 207.742 180.847,214.564 174.000,218.146 174.000 C 218.528 174.000,219.416 173.699,220.120 173.330 C 223.301 171.666,233.583 171.756,238.400 173.491 M133.513 187.531 C 132.321 187.953,131.047 188.840,130.056 189.936 C 128.533 191.621,128.043 192.644,125.522 199.400 L 124.328 202.600 124.323 213.802 C 124.317 225.967,124.637 228.176,127.067 232.760 C 127.580 233.727,128.000 234.767,128.000 235.070 C 128.000 235.373,128.786 236.407,129.748 237.369 C 136.524 244.145,144.148 240.203,147.644 228.118 C 149.163 222.864,149.057 203.770,147.478 198.341 C 144.711 188.828,140.045 185.216,133.513 187.531 M235.562 217.677 C 233.091 218.805,227.450 220.332,224.600 220.645 C 214.410 221.763,210.654 234.128,218.816 239.688 C 223.863 243.126,232.703 240.096,235.867 233.844 C 236.213 233.160,236.757 232.302,237.076 231.938 C 237.415 231.551,237.815 229.724,238.040 227.538 C 238.252 225.482,238.533 222.781,238.665 221.536 C 239.115 217.280,238.395 216.384,235.562 217.677 " stroke="none" fill="#8ccc04" fill-rule="evenodd"></path><path id="path1" d="M116.084 147.252 C 113.940 147.870,114.000 146.375,114.000 199.172 C 114.000 248.436,114.004 248.697,114.817 249.731 C 116.880 252.354,120.779 251.354,121.643 247.981 C 122.431 244.910,124.595 245.111,127.284 248.506 C 130.557 252.638,138.148 253.935,143.708 251.312 C 150.338 248.184,157.144 237.630,158.380 228.559 C 158.623 226.777,159.000 224.707,159.218 223.959 C 161.225 217.079,159.482 198.319,156.028 189.618 C 150.183 174.891,136.163 169.886,127.318 179.368 C 122.461 184.574,121.933 183.017,122.029 163.760 C 122.070 155.582,121.968 148.672,121.803 148.405 C 121.011 147.124,118.372 146.592,116.084 147.252 M269.065 154.461 C 266.026 157.500,265.916 157.977,266.045 167.540 C 266.143 174.881,265.870 175.537,262.441 176.200 C 259.873 176.695,259.614 177.099,259.606 180.611 C 259.599 183.951,260.251 185.200,262.004 185.200 C 266.135 185.200,266.003 184.263,266.110 214.203 C 266.217 244.071,266.238 244.297,269.377 248.153 C 271.686 250.991,274.114 252.120,278.000 252.165 C 283.368 252.227,284.830 250.697,284.031 245.854 C 283.459 242.390,283.012 241.863,280.094 241.215 C 278.342 240.826,277.467 240.357,276.391 239.232 C 273.796 236.517,273.843 237.008,273.708 211.400 C 273.561 183.450,273.167 185.200,279.606 185.200 C 282.880 185.200,284.062 183.275,283.419 178.989 C 283.084 176.752,281.768 176.000,278.187 176.000 C 273.799 176.000,273.845 176.125,273.600 163.448 C 273.350 150.505,273.240 150.286,269.065 154.461 M187.708 175.700 C 186.785 176.195,185.452 177.410,184.747 178.400 C 181.016 183.638,178.823 184.349,178.806 180.326 C 178.790 176.447,174.415 174.183,172.793 177.214 C 172.064 178.576,172.224 248.672,172.959 249.793 C 174.161 251.628,178.454 251.238,179.483 249.200 C 179.870 248.433,179.990 243.367,179.994 227.488 C 180.002 198.706,180.734 193.965,185.913 189.120 C 188.265 186.920,189.947 186.464,193.214 187.139 C 197.703 188.066,197.854 187.939,199.189 182.111 C 200.499 176.399,193.596 172.544,187.708 175.700 M223.000 175.079 C 213.280 177.335,206.000 185.512,206.000 194.171 C 206.000 199.084,212.107 199.719,213.918 194.995 C 215.630 190.529,216.090 189.668,217.610 188.086 C 220.121 185.472,222.323 184.641,227.200 184.468 L 231.400 184.319 234.758 186.060 C 238.653 188.078,239.372 189.108,240.818 194.746 C 243.108 203.667,239.276 206.551,222.426 208.585 C 210.949 209.970,204.470 217.869,204.096 230.934 C 203.512 251.316,220.200 259.859,235.797 247.163 C 240.592 243.258,242.400 243.312,242.400 247.358 C 242.400 248.944,243.966 250.422,246.060 250.813 C 249.845 251.521,251.598 250.008,250.792 246.728 C 249.953 243.313,249.233 228.343,249.179 213.200 C 249.082 185.966,248.505 183.057,242.258 178.334 C 238.224 175.284,228.903 173.708,223.000 175.079 M140.703 185.215 C 148.188 188.955,151.307 197.145,151.359 213.200 C 151.412 229.667,148.006 238.301,139.836 242.411 C 133.245 245.726,125.464 239.147,122.792 228.000 C 121.336 221.927,121.404 205.511,122.909 199.800 C 126.050 187.878,133.618 181.674,140.703 185.215 M240.680 214.895 C 241.886 215.825,241.745 220.231,240.246 228.428 C 237.779 241.913,223.010 248.634,215.255 239.802 C 209.035 232.718,213.374 219.675,222.299 218.626 C 224.672 218.347,227.472 217.638,232.600 216.020 C 239.125 213.960,239.417 213.920,240.680 214.895 " stroke="none" fill="#172504" fill-rule="evenodd"></path><path id="path2" d="M114.384 146.500 C 112.341 147.878,112.381 146.751,112.494 200.012 L 112.600 250.066 113.906 251.233 C 116.604 253.643,121.131 252.747,123.204 249.393 C 124.278 247.656,124.363 247.660,126.253 249.534 C 137.083 260.269,153.769 251.514,158.905 232.400 C 163.067 216.913,161.825 197.727,155.888 185.800 C 149.647 173.260,135.257 169.158,127.155 177.608 C 123.667 181.246,123.600 180.970,123.600 162.948 C 123.600 153.254,123.455 148.076,123.168 147.540 C 122.091 145.529,116.760 144.897,114.384 146.500 M120.823 146.656 C 123.184 147.600,123.200 147.721,123.200 164.052 C 123.200 182.148,123.280 182.424,127.309 178.216 C 137.312 167.771,153.612 175.857,158.318 193.600 C 164.645 217.457,158.288 245.000,144.898 251.744 C 138.889 254.771,129.698 253.574,126.969 249.409 C 125.312 246.879,123.616 246.817,122.379 249.241 C 120.742 252.451,115.190 252.970,113.632 250.060 C 112.739 248.391,113.056 148.254,113.957 147.439 C 115.564 145.985,118.352 145.667,120.823 146.656 M268.306 153.279 C 264.724 156.782,264.800 156.502,264.800 166.227 C 264.800 174.447,264.672 174.800,261.693 174.800 C 259.625 174.800,258.585 176.124,258.268 179.157 C 257.760 184.018,259.033 186.800,261.766 186.800 C 262.457 186.800,263.422 187.080,263.911 187.423 L 264.800 188.045 264.800 213.749 C 264.800 241.349,264.873 242.528,266.843 246.677 C 269.424 252.114,275.262 254.721,281.502 253.223 C 284.704 252.455,285.405 251.414,285.376 247.466 C 285.336 241.871,284.389 240.323,280.672 239.782 C 277.994 239.392,276.659 238.150,275.866 235.312 C 275.309 233.317,274.921 206.806,275.187 188.914 C 275.205 187.669,276.530 187.072,279.926 186.779 C 284.120 186.417,284.559 185.889,284.738 180.997 C 284.921 176.015,283.994 174.800,280.011 174.800 C 278.597 174.800,277.061 174.542,276.380 174.190 L 275.200 173.579 275.194 163.090 C 275.187 151.203,275.085 150.676,272.738 150.479 C 271.420 150.368,271.032 150.613,268.306 153.279 M273.900 151.917 C 274.175 152.267,274.408 153.104,274.417 153.776 C 274.427 154.449,274.472 159.178,274.517 164.285 C 274.615 175.307,274.369 174.736,279.229 175.226 C 283.342 175.641,284.053 176.219,284.313 179.358 C 284.698 184.004,283.618 185.993,280.700 186.010 C 273.937 186.048,274.337 184.420,274.507 211.167 C 274.678 238.209,274.891 239.375,279.815 240.196 C 283.652 240.836,284.200 241.443,284.878 245.808 C 285.703 251.115,283.940 253.008,278.200 252.978 C 271.975 252.945,268.436 250.248,266.273 243.887 C 265.450 241.467,265.424 240.680,265.317 214.614 C 265.192 184.391,265.442 186.571,262.045 186.115 C 257.696 185.532,257.182 175.604,261.500 175.599 C 262.105 175.598,263.185 175.240,263.900 174.804 L 265.200 174.012 265.204 166.906 C 265.211 156.932,265.149 157.166,268.675 153.678 C 271.764 150.622,272.648 150.324,273.900 151.917 M187.800 174.123 C 186.700 174.654,184.968 176.014,183.950 177.144 C 181.732 179.609,181.115 179.693,180.309 177.641 C 179.387 175.294,177.975 174.615,174.306 174.758 C 173.705 174.781,172.625 175.325,171.906 175.967 L 170.600 177.134 170.487 212.378 C 170.366 250.307,170.358 250.146,172.433 251.624 C 174.305 252.957,178.903 252.626,180.248 251.062 L 181.200 249.955 181.203 229.278 C 181.208 198.585,182.168 193.030,188.156 189.037 C 190.033 187.786,191.319 187.737,193.844 188.819 C 197.542 190.404,198.877 189.291,200.357 183.389 C 201.700 178.035,201.067 176.410,196.893 174.499 C 193.685 173.031,190.347 172.893,187.800 174.123 M223.400 173.479 C 215.919 175.220,209.541 179.687,207.525 184.600 C 203.488 194.439,203.457 196.825,207.344 198.635 C 211.790 200.705,214.022 199.549,215.739 194.287 C 217.552 188.726,220.036 186.627,225.524 186.018 C 233.775 185.103,237.943 187.838,239.389 195.117 C 240.736 201.899,239.867 203.308,233.303 204.987 C 226.242 206.793,224.308 207.171,222.060 207.186 C 220.884 207.194,219.354 207.455,218.660 207.767 C 217.967 208.079,216.538 208.702,215.485 209.151 C 201.299 215.203,197.495 238.425,208.880 249.469 C 215.748 256.132,228.445 255.622,236.407 248.363 C 239.749 245.317,240.740 245.287,241.396 248.214 C 242.147 251.569,243.372 252.400,247.568 252.400 C 251.900 252.400,253.414 250.793,252.420 247.249 C 252.135 246.232,251.745 244.680,251.553 243.800 C 251.360 242.920,251.033 230.320,250.826 215.800 C 250.448 189.332,250.384 188.329,248.910 185.389 C 248.472 184.515,247.986 183.272,247.831 182.627 C 246.372 176.573,232.473 171.368,223.400 173.479 M196.283 174.879 C 200.362 176.379,201.108 178.448,199.575 184.008 C 198.216 188.935,197.275 189.626,193.862 188.200 C 190.937 186.978,188.633 187.480,186.260 189.857 C 181.536 194.590,180.800 199.715,180.800 227.882 C 180.800 244.725,180.698 248.671,180.232 249.785 C 179.001 252.732,172.863 252.651,171.630 249.672 C 171.314 248.908,171.217 238.357,171.293 212.911 L 171.400 177.222 172.255 176.367 C 174.373 174.250,178.736 175.154,179.619 177.893 C 180.705 181.260,181.652 181.305,183.976 178.097 C 187.051 173.852,190.814 172.868,196.283 174.879 M237.417 174.835 C 242.592 176.432,246.289 179.973,248.272 185.233 C 249.952 189.689,249.970 189.980,250.375 218.200 C 250.668 238.649,250.833 243.067,251.391 245.483 C 252.575 250.612,251.416 252.274,246.945 251.858 C 243.052 251.496,242.471 250.910,241.432 246.300 C 241.038 244.549,239.866 244.933,236.080 248.053 C 220.790 260.654,203.200 252.020,203.200 231.914 C 203.200 217.751,210.510 208.854,223.200 207.570 C 227.347 207.151,237.044 204.782,238.489 203.836 C 240.519 202.506,240.949 198.764,239.646 193.752 C 238.055 187.627,234.824 185.390,227.600 185.413 C 220.196 185.437,216.766 188.082,214.819 195.272 C 213.741 199.249,209.657 200.215,206.298 197.285 C 204.362 195.596,205.184 190.255,208.316 184.180 C 212.641 175.793,226.304 171.405,237.417 174.835 M135.375 185.171 C 128.649 186.802,124.043 194.238,123.091 205.000 C 121.249 225.836,124.917 238.639,133.627 241.771 C 145.852 246.167,153.797 225.087,149.393 199.942 C 147.755 190.587,141.260 183.744,135.375 185.171 M140.634 186.752 C 147.142 189.831,149.813 197.671,149.779 213.600 C 149.748 228.530,147.611 235.343,141.564 239.795 C 134.683 244.861,125.969 238.618,123.983 227.200 C 123.320 223.391,123.281 204.393,123.929 201.072 C 126.111 189.890,133.634 183.441,140.634 186.752 M233.000 216.840 C 230.360 217.701,226.580 218.689,224.600 219.036 C 216.562 220.446,212.940 224.505,213.279 231.723 C 213.822 243.274,225.273 246.839,234.184 238.230 C 238.231 234.320,240.380 227.859,240.395 219.562 C 240.403 214.654,240.076 214.534,233.000 216.840 M239.269 216.662 C 240.920 218.157,239.018 231.157,236.645 234.600 C 228.717 246.100,214.374 244.332,213.684 231.770 C 213.335 225.409,217.333 220.625,223.681 219.807 C 225.822 219.532,232.453 217.746,235.400 216.651 C 237.520 215.863,238.388 215.866,239.269 216.662 " stroke="none" fill="#547d04" fill-rule="evenodd"></path><path id="path3" d="M115.857 146.411 C 112.943 147.285,113.200 142.222,113.200 198.688 C 113.200 253.096,113.089 250.460,115.419 251.434 C 118.345 252.656,121.076 251.796,122.379 249.241 C 123.616 246.817,125.312 246.879,126.969 249.409 C 128.311 251.456,133.452 253.585,137.080 253.595 C 155.286 253.647,166.124 223.032,158.318 193.600 C 153.612 175.857,137.312 167.771,127.309 178.216 C 123.280 182.424,123.200 182.148,123.200 164.052 C 123.200 155.912,123.034 148.816,122.831 148.282 C 122.170 146.542,118.608 145.587,115.857 146.411 M120.164 147.359 C 122.156 148.191,122.109 147.780,122.029 163.760 C 121.933 183.017,122.461 184.574,127.318 179.368 C 136.163 169.886,150.183 174.891,156.028 189.618 C 159.482 198.319,161.225 217.079,159.218 223.959 C 159.000 224.707,158.623 226.777,158.380 228.559 C 157.144 237.630,150.338 248.184,143.708 251.312 C 138.148 253.935,130.557 252.638,127.284 248.506 C 124.595 245.111,122.431 244.910,121.643 247.981 C 120.779 251.354,116.880 252.354,114.817 249.731 C 113.906 248.573,113.488 150.999,114.384 148.642 C 114.994 147.037,117.867 146.399,120.164 147.359 M268.675 153.678 C 265.149 157.166,265.211 156.932,265.204 166.906 L 265.200 174.012 263.900 174.804 C 263.185 175.240,262.105 175.598,261.500 175.599 C 259.446 175.601,258.800 176.784,258.800 180.546 C 258.800 184.645,259.454 185.768,262.045 186.115 C 265.442 186.571,265.192 184.391,265.317 214.614 C 265.424 240.680,265.450 241.467,266.273 243.887 C 268.436 250.248,271.975 252.945,278.200 252.978 C 283.940 253.008,285.703 251.115,284.878 245.808 C 284.200 241.443,283.652 240.836,279.815 240.196 C 274.891 239.375,274.678 238.209,274.507 211.167 C 274.337 184.420,273.937 186.048,280.700 186.010 C 283.618 185.993,284.698 184.004,284.313 179.358 C 284.053 176.219,283.342 175.641,279.229 175.226 C 274.369 174.736,274.615 175.307,274.517 164.285 C 274.472 159.178,274.427 154.449,274.417 153.776 C 274.366 150.157,272.271 150.121,268.675 153.678 M273.600 163.448 C 273.845 176.125,273.799 176.000,278.187 176.000 C 281.768 176.000,283.084 176.752,283.419 178.989 C 284.062 183.275,282.880 185.200,279.606 185.200 C 273.167 185.200,273.561 183.450,273.708 211.400 C 273.843 237.008,273.796 236.517,276.391 239.232 C 277.467 240.357,278.342 240.826,280.094 241.215 C 283.012 241.863,283.459 242.390,284.031 245.854 C 284.830 250.697,283.368 252.227,278.000 252.165 C 274.114 252.120,271.686 250.991,269.377 248.153 C 266.238 244.297,266.217 244.071,266.110 214.203 C 266.003 184.263,266.135 185.200,262.004 185.200 C 260.251 185.200,259.599 183.951,259.606 180.611 C 259.614 177.099,259.873 176.695,262.441 176.200 C 265.870 175.537,266.143 174.881,266.045 167.540 C 265.916 157.977,266.026 157.500,269.065 154.461 C 273.240 150.286,273.350 150.505,273.600 163.448 M189.655 174.052 C 187.599 174.431,185.600 175.855,183.976 178.097 C 181.652 181.305,180.705 181.260,179.619 177.893 C 178.736 175.154,174.373 174.250,172.255 176.367 L 171.400 177.222 171.293 212.911 C 171.217 238.357,171.314 248.908,171.630 249.672 C 172.863 252.651,179.001 252.732,180.232 249.785 C 180.698 248.671,180.800 244.725,180.800 227.882 C 180.800 199.715,181.536 194.590,186.260 189.857 C 188.633 187.480,190.937 186.978,193.862 188.200 C 195.956 189.075,197.472 188.969,198.166 187.900 C 198.977 186.651,200.400 181.325,200.400 179.539 C 200.400 176.012,194.729 173.116,189.655 174.052 M224.600 174.001 C 218.879 174.663,215.147 176.524,210.866 180.848 C 206.399 185.360,203.712 195.029,206.298 197.285 C 209.657 200.215,213.741 199.249,214.819 195.272 C 216.766 188.082,220.196 185.437,227.600 185.413 C 234.824 185.390,238.055 187.627,239.646 193.752 C 240.949 198.764,240.519 202.506,238.489 203.836 C 237.044 204.782,227.347 207.151,223.200 207.570 C 210.510 208.854,203.200 217.751,203.200 231.914 C 203.200 252.020,220.790 260.654,236.080 248.053 C 239.866 244.933,241.038 244.549,241.432 246.300 C 242.471 250.910,243.052 251.496,246.945 251.858 C 251.416 252.274,252.575 250.612,251.391 245.483 C 250.833 243.067,250.668 238.649,250.375 218.200 C 249.970 189.980,249.952 189.689,248.272 185.233 C 244.987 176.520,236.723 172.599,224.600 174.001 M195.486 175.440 C 199.853 176.901,200.436 179.214,198.122 185.900 C 197.453 187.832,197.057 187.932,193.214 187.139 C 189.947 186.464,188.265 186.920,185.913 189.120 C 180.734 193.965,180.002 198.706,179.994 227.488 C 179.990 243.367,179.870 248.433,179.483 249.200 C 178.454 251.238,174.161 251.628,172.959 249.793 C 172.224 248.672,172.064 178.576,172.793 177.214 C 174.415 174.183,178.790 176.447,178.806 180.326 C 178.823 184.349,181.016 183.638,184.747 178.400 C 187.147 175.031,191.048 173.956,195.486 175.440 M237.058 175.638 C 240.119 176.573,244.123 179.331,245.658 181.561 C 248.631 185.880,249.097 190.064,249.179 213.200 C 249.233 228.343,249.953 243.313,250.792 246.728 C 251.598 250.008,249.845 251.521,246.060 250.813 C 243.966 250.422,242.400 248.944,242.400 247.358 C 242.400 243.312,240.592 243.258,235.797 247.163 C 220.200 259.859,203.512 251.316,204.096 230.934 C 204.470 217.869,210.949 209.970,222.426 208.585 C 239.276 206.551,243.108 203.667,240.818 194.746 C 239.372 189.108,238.653 188.078,234.758 186.060 L 231.400 184.319 227.200 184.468 C 222.323 184.641,220.121 185.472,217.610 188.086 C 216.090 189.668,215.630 190.529,213.918 194.995 C 212.485 198.732,209.123 199.463,206.821 196.536 C 204.669 193.800,208.090 184.045,212.507 180.321 C 216.310 177.114,218.114 176.213,223.000 175.079 C 225.575 174.481,234.423 174.833,237.058 175.638 M132.804 185.261 C 124.987 189.168,121.847 197.419,121.868 214.000 C 121.889 230.926,124.746 238.435,132.600 242.213 C 136.895 244.279,139.812 243.525,144.306 239.190 C 153.794 230.038,154.084 197.056,144.757 188.004 C 140.776 184.141,136.849 183.240,132.804 185.261 M141.467 186.641 C 147.016 189.704,149.253 195.171,150.477 208.667 C 152.337 229.172,144.022 245.509,133.627 241.771 C 124.917 238.639,121.249 225.836,123.091 205.000 C 124.411 190.083,132.700 181.801,141.467 186.641 M237.800 214.447 C 237.140 214.618,234.800 215.326,232.600 216.020 C 227.472 217.638,224.672 218.347,222.299 218.626 C 213.374 219.675,209.035 232.718,215.255 239.802 C 223.010 248.634,237.779 241.913,240.246 228.428 C 242.409 216.601,241.849 213.399,237.800 214.447 M239.669 215.862 C 241.199 217.247,239.998 228.711,237.826 233.457 C 231.698 246.840,213.930 245.585,213.279 231.723 C 212.940 224.505,216.562 220.446,224.600 219.036 C 226.580 218.689,230.360 217.701,233.000 216.840 C 238.611 215.011,238.712 214.997,239.669 215.862 " stroke="none" fill="#446c04" fill-rule="evenodd"></path><path id="path4" d="M113.463 145.253 C 111.555 146.362,111.600 145.050,111.600 199.000 C 111.600 258.871,110.992 253.331,117.570 253.376 C 121.635 253.404,122.862 252.921,123.813 250.916 L 124.462 249.548 126.131 250.993 C 135.383 259.004,149.425 254.858,155.800 242.231 C 156.680 240.488,157.715 238.733,158.100 238.331 C 158.485 237.929,158.800 237.288,158.800 236.907 C 158.800 236.526,159.237 234.861,159.770 233.207 C 162.963 223.311,162.987 201.151,159.814 192.893 C 159.499 192.072,159.035 190.590,158.783 189.600 C 158.531 188.610,158.095 187.530,157.814 187.200 C 157.533 186.870,156.712 185.400,155.991 183.934 C 153.120 178.096,146.787 173.324,140.600 172.335 C 135.339 171.494,128.461 173.678,126.851 176.700 C 126.553 177.260,126.000 177.600,125.386 177.600 L 124.400 177.600 124.400 162.580 C 124.400 146.398,124.304 145.589,122.316 145.056 C 120.794 144.649,114.252 144.794,113.463 145.253 M121.381 146.166 C 123.595 147.091,123.600 147.130,123.600 162.948 C 123.600 180.970,123.667 181.246,127.155 177.608 C 135.257 169.158,149.647 173.260,155.888 185.800 C 161.825 197.727,163.067 216.913,158.905 232.400 C 153.769 251.514,137.083 260.269,126.253 249.534 C 124.363 247.660,124.278 247.656,123.204 249.393 C 121.131 252.747,116.604 253.643,113.906 251.233 L 112.600 250.066 112.494 200.012 C 112.436 172.483,112.537 149.383,112.719 148.679 C 113.417 145.982,117.856 144.694,121.381 146.166 M269.504 150.716 C 263.564 156.125,263.794 155.552,263.916 164.656 C 264.035 173.492,263.898 174.000,261.392 174.000 C 258.148 174.000,257.600 174.973,257.600 180.728 C 257.600 186.684,258.082 187.600,261.215 187.600 C 264.130 187.600,263.988 186.193,263.958 214.687 C 263.929 242.841,263.991 243.728,266.270 247.863 C 268.759 252.379,272.687 254.540,278.400 254.539 C 285.141 254.536,286.797 252.571,286.064 245.442 C 285.550 240.436,285.024 239.334,283.003 239.019 C 282.231 238.898,280.983 238.704,280.229 238.587 C 276.502 238.009,276.451 237.632,276.393 210.046 C 276.341 185.745,275.933 187.931,280.583 187.622 C 285.461 187.299,286.240 186.000,285.717 179.070 C 285.384 174.667,284.989 174.270,280.650 173.982 C 276.237 173.689,276.630 174.821,276.400 161.732 C 276.200 150.340,276.199 150.327,275.256 149.564 C 273.588 148.215,271.874 148.558,269.504 150.716 M274.685 151.600 C 275.051 152.327,275.190 155.468,275.194 163.090 L 275.200 173.579 276.380 174.190 C 277.061 174.542,278.597 174.800,280.011 174.800 C 283.994 174.800,284.921 176.015,284.738 180.997 C 284.559 185.889,284.120 186.417,279.926 186.779 C 276.530 187.072,275.205 187.669,275.187 188.914 C 274.921 206.806,275.309 233.317,275.866 235.312 C 276.659 238.150,277.994 239.392,280.672 239.782 C 284.389 240.323,285.336 241.871,285.376 247.466 C 285.405 251.414,284.704 252.455,281.502 253.223 C 275.262 254.721,269.424 252.114,266.843 246.677 C 264.873 242.528,264.800 241.349,264.800 213.749 L 264.800 188.045 263.911 187.423 C 263.422 187.080,262.457 186.800,261.766 186.800 C 259.033 186.800,257.760 184.018,258.268 179.157 C 258.585 176.124,259.625 174.800,261.693 174.800 C 264.672 174.800,264.800 174.447,264.800 166.227 C 264.800 156.502,264.724 156.782,268.306 153.279 C 271.695 149.965,273.608 149.461,274.685 151.600 M189.400 172.377 C 187.601 172.688,184.431 174.700,183.306 176.245 L 182.561 177.267 180.928 175.633 C 177.788 172.494,170.920 173.326,169.692 176.995 C 168.697 179.968,169.191 249.443,170.220 251.200 C 171.494 253.376,175.471 254.242,179.304 253.178 C 182.046 252.416,181.926 253.519,182.116 227.400 C 182.231 211.614,182.435 203.336,182.734 202.400 C 182.979 201.630,183.469 199.830,183.822 198.400 C 185.720 190.726,188.570 188.224,193.467 189.934 C 194.833 190.410,196.395 190.800,196.939 190.800 C 200.268 190.800,203.580 178.927,201.086 175.940 C 199.140 173.610,193.035 171.749,189.400 172.377 M224.000 172.360 C 222.570 172.525,220.824 172.962,220.120 173.330 C 219.416 173.699,218.528 174.000,218.146 174.000 C 214.564 174.000,207.742 180.847,205.592 186.600 C 201.740 196.908,203.075 200.362,210.926 200.391 C 214.592 200.405,215.335 199.681,216.577 194.888 C 217.971 189.510,219.922 187.791,225.315 187.189 C 234.157 186.203,237.360 188.342,238.437 195.953 C 239.223 201.510,238.653 202.824,235.165 203.489 C 233.754 203.758,230.890 204.442,228.800 205.008 C 226.710 205.575,223.470 206.187,221.600 206.369 C 218.448 206.676,217.134 207.025,215.600 207.966 C 215.270 208.168,214.458 208.533,213.797 208.775 C 213.135 209.018,211.955 209.798,211.175 210.508 C 210.395 211.219,209.257 212.063,208.646 212.385 C 207.520 212.978,203.200 219.671,203.200 220.823 C 203.200 221.147,202.798 222.129,202.306 223.006 C 200.850 225.604,200.721 236.695,202.113 239.689 C 202.652 240.850,203.203 242.265,203.338 242.833 C 206.297 255.364,227.386 259.502,236.800 249.400 C 238.514 247.561,240.400 247.160,240.400 248.635 C 240.400 252.036,242.600 253.400,248.086 253.400 C 253.839 253.400,254.514 252.049,252.788 243.988 C 251.928 239.974,251.881 238.717,251.643 213.800 L 251.395 187.800 249.532 184.000 C 244.884 174.515,236.891 170.871,224.000 172.360 M196.893 174.499 C 201.067 176.410,201.700 178.035,200.357 183.389 C 198.877 189.291,197.542 190.404,193.844 188.819 C 191.319 187.737,190.033 187.786,188.156 189.037 C 182.168 193.030,181.208 198.585,181.203 229.278 L 181.200 249.955 180.248 251.062 C 178.903 252.626,174.305 252.957,172.433 251.624 C 170.358 250.146,170.366 250.307,170.487 212.378 L 170.600 177.134 171.906 175.967 C 174.574 173.584,179.067 174.479,180.309 177.641 C 181.115 179.693,181.732 179.609,183.950 177.144 C 187.568 173.124,191.938 172.231,196.893 174.499 M235.974 173.852 C 240.962 175.090,247.111 179.642,247.831 182.627 C 247.986 183.272,248.472 184.515,248.910 185.389 C 250.384 188.329,250.448 189.332,250.826 215.800 C 251.033 230.320,251.360 242.920,251.553 243.800 C 251.745 244.680,252.135 246.232,252.420 247.249 C 253.414 250.793,251.900 252.400,247.568 252.400 C 243.372 252.400,242.147 251.569,241.396 248.214 C 240.740 245.287,239.749 245.317,236.407 248.363 C 228.445 255.622,215.748 256.132,208.880 249.469 C 197.495 238.425,201.299 215.203,215.485 209.151 C 216.538 208.702,217.967 208.079,218.660 207.767 C 219.354 207.455,220.884 207.194,222.060 207.186 C 224.308 207.171,226.242 206.793,233.303 204.987 C 239.867 203.308,240.736 201.899,239.389 195.117 C 237.943 187.838,233.775 185.103,225.524 186.018 C 220.036 186.627,217.552 188.726,215.739 194.287 C 214.022 199.549,211.790 200.705,207.344 198.635 C 203.457 196.825,203.488 194.439,207.525 184.600 C 209.541 179.687,215.919 175.220,223.400 173.479 C 225.470 172.997,233.491 173.235,235.974 173.852 M132.977 186.747 C 126.123 189.990,123.479 197.511,123.468 213.800 C 123.456 231.414,126.483 239.152,134.279 241.436 C 145.430 244.702,152.796 224.760,149.089 201.337 C 147.197 189.376,140.410 183.231,132.977 186.747 M140.118 187.565 C 143.601 189.058,145.651 192.060,147.478 198.341 C 149.057 203.770,149.163 222.864,147.644 228.118 C 144.148 240.203,136.524 244.145,129.748 237.369 C 128.786 236.407,128.000 235.373,128.000 235.070 C 128.000 234.767,127.580 233.727,127.067 232.760 C 124.637 228.176,124.317 225.967,124.323 213.802 L 124.328 202.600 125.522 199.400 C 128.043 192.644,128.533 191.621,130.056 189.936 C 132.671 187.044,136.692 186.096,140.118 187.565 M235.400 216.651 C 232.453 217.746,225.822 219.532,223.681 219.807 C 212.164 221.290,209.662 236.869,220.174 241.644 C 226.189 244.376,235.714 238.935,238.107 231.400 C 238.812 229.182,240.000 221.329,240.000 218.889 C 240.000 216.199,238.535 215.486,235.400 216.651 M238.656 218.280 C 238.793 218.825,238.797 220.290,238.665 221.536 C 238.533 222.781,238.252 225.482,238.040 227.538 C 237.815 229.724,237.415 231.551,237.076 231.938 C 236.757 232.302,236.213 233.160,235.867 233.844 C 232.703 240.096,223.863 243.126,218.816 239.688 C 210.654 234.128,214.410 221.763,224.600 220.645 C 227.450 220.332,233.091 218.805,235.562 217.677 C 237.593 216.750,238.307 216.889,238.656 218.280 " stroke="none" fill="#6c9e04" fill-rule="evenodd"></path></g></svg>