<svg id="svg" version="1.1" xmlns="http://www.w3.org/2000/svg" xmlns:xlink="http://www.w3.org/1999/xlink" width="400" height="384.9315068493151" viewBox="0, 0, 400,384.9315068493151"><g id="svgg"><path id="path0" d="M156.497 37.344 C 156.339 37.599,156.333 40.201,156.484 43.126 C 156.821 49.682,158.513 48.717,140.905 52.010 C 128.905 54.253,103.766 60.836,90.156 65.300 C 87.970 66.016,86.022 66.603,85.826 66.603 C 85.630 66.603,84.213 67.176,82.677 67.878 C 81.141 68.579,79.278 69.393,78.537 69.688 C 73.432 71.713,70.289 74.785,69.960 78.068 C 69.764 80.028,69.130 80.847,67.807 80.847 C 66.718 80.847,61.514 81.786,60.250 82.211 C 54.367 84.187,47.950 88.480,44.721 92.601 C 44.229 93.230,43.271 94.350,42.593 95.091 C 39.800 98.146,31.569 112.052,31.569 113.717 C 31.569 113.874,31.122 114.989,30.575 116.193 C 26.364 125.475,23.484 136.473,23.484 143.271 C 23.484 152.478,26.549 162.769,31.507 170.208 C 33.460 173.138,39.604 179.788,40.359 179.788 C 40.829 179.788,40.834 179.802,38.844 175.553 C 37.652 173.011,36.846 171.126,35.797 168.431 C 33.506 162.549,31.757 151.310,33.205 151.775 C 33.470 151.860,34.695 153.910,35.927 156.330 C 37.160 158.751,38.849 161.824,39.681 163.160 C 40.513 164.495,41.193 165.685,41.193 165.803 C 41.193 165.921,41.772 166.821,42.479 167.802 C 43.186 168.783,44.667 171.145,45.769 173.051 C 46.872 174.957,48.827 178.162,50.114 180.173 C 53.098 184.838,55.053 189.039,55.053 190.785 C 55.053 193.597,51.034 203.318,48.138 207.507 C 47.318 208.695,44.979 212.987,43.255 216.468 C 40.767 221.493,41.644 223.084,48.861 226.640 C 57.964 231.126,59.573 233.703,57.541 240.544 C 56.713 243.331,59.213 246.006,62.644 246.006 C 64.216 246.006,64.597 247.626,63.436 249.380 C 61.371 252.500,61.632 254.033,64.819 257.500 C 67.815 260.759,68.301 261.891,70.379 270.471 C 71.707 275.949,72.547 277.726,74.709 279.621 C 78.838 283.240,84.173 283.121,97.979 279.104 C 102.137 277.894,102.684 277.714,104.812 276.861 C 117.399 271.812,124.010 278.012,128.973 299.519 C 129.144 300.260,129.473 301.471,129.704 302.211 C 131.012 306.392,130.199 307.361,123.117 310.061 C 121.784 310.569,118.441 312.061,115.688 313.376 C 112.936 314.692,109.182 316.433,107.347 317.246 C 92.720 323.727,85.508 329.613,82.815 337.268 C 82.409 338.421,81.817 339.971,81.498 340.712 C 80.593 342.819,77.566 353.454,76.239 359.192 C 74.548 366.504,73.750 368.679,71.789 371.319 C 67.193 377.504,64.678 382.150,64.678 384.452 C 64.678 384.906,83.735 384.986,191.749 384.986 L 318.820 384.986 318.549 384.119 C 318.399 383.643,318.216 383.080,318.142 382.868 C 318.067 382.656,318.164 382.235,318.357 381.931 C 318.715 381.368,318.664 381.350,325.514 384.462 C 326.475 384.898,332.049 384.973,357.600 384.892 L 388.522 384.793 386.168 381.209 C 382.185 375.143,374.371 368.126,367.854 364.764 C 367.007 364.327,365.448 363.520,364.389 362.970 C 363.330 362.421,361.578 361.611,360.496 361.171 C 356.532 359.559,345.201 354.330,342.637 352.929 C 337.999 350.394,330.703 342.774,330.703 340.464 C 330.703 340.212,330.548 339.949,330.359 339.878 C 329.681 339.625,325.241 331.059,325.474 330.453 C 325.763 329.699,326.846 329.875,330.510 331.273 C 332.982 332.216,340.058 333.553,352.839 335.491 C 362.542 336.963,373.191 339.973,378.922 342.863 C 380.775 343.798,382.381 344.562,382.491 344.562 C 383.693 344.562,376.964 335.907,373.124 332.513 C 364.475 324.869,356.838 321.449,340.712 318.000 C 325.435 314.732,324.943 314.447,313.635 302.351 C 307.773 296.081,307.845 295.251,313.986 298.311 C 318.861 300.740,319.937 301.181,325.313 302.955 C 332.424 305.302,335.239 305.902,341.962 306.510 C 351.923 307.409,360.772 305.393,368.713 300.415 C 374.313 296.904,379.466 291.073,381.970 285.411 C 383.267 282.479,382.769 282.219,380.173 284.473 C 377.922 286.427,368.365 291.496,366.121 291.925 C 365.592 292.026,363.773 292.423,362.079 292.806 C 358.203 293.683,347.853 293.815,344.370 293.032 C 343.099 292.746,340.985 292.263,339.671 291.959 C 337.325 291.417,329.512 288.365,326.345 286.754 C 324.421 285.775,317.886 281.827,317.613 281.478 C 317.507 281.343,316.641 280.807,315.688 280.288 C 310.649 277.541,303.743 272.072,304.427 271.369 C 304.802 270.986,305.011 270.979,305.371 271.338 C 305.625 271.592,306.131 271.800,306.495 271.800 C 306.860 271.800,308.688 272.334,310.557 272.987 C 312.426 273.640,314.475 274.318,315.111 274.493 C 315.746 274.668,317.565 275.164,319.153 275.595 C 320.741 276.027,323.080 276.665,324.350 277.013 C 333.348 279.482,343.912 280.875,357.421 281.373 C 367.375 281.740,369.793 281.570,366.621 280.728 C 363.656 279.941,361.036 279.055,359.408 278.288 C 358.574 277.896,357.761 277.575,357.602 277.575 C 357.443 277.575,355.861 276.892,354.088 276.057 C 352.315 275.222,349.923 274.169,348.772 273.717 C 346.065 272.652,329.664 264.450,324.928 261.793 C 322.916 260.664,320.404 259.278,319.346 258.712 C 317.205 257.567,314.175 255.764,311.261 253.900 C 310.202 253.223,308.730 252.299,307.988 251.847 C 304.070 249.458,293.893 242.506,290.664 240.013 C 283.116 234.185,283.405 233.686,294.335 233.686 C 305.681 233.686,313.168 232.419,315.496 230.106 C 315.751 229.852,315.621 229.822,315.111 230.017 C 312.681 230.945,301.112 230.722,296.731 229.663 C 282.996 226.342,271.910 216.082,268.215 203.272 C 267.029 199.160,262.686 175.310,261.416 165.929 C 261.229 164.552,260.726 161.434,260.297 158.999 C 259.869 156.564,259.243 152.666,258.906 150.337 C 258.180 145.314,258.046 144.583,256.289 136.092 C 255.119 130.437,253.492 123.671,252.171 118.961 C 250.170 111.828,249.367 109.216,248.680 107.603 C 248.384 106.911,246.436 101.788,244.388 96.319 C 242.322 90.802,235.275 78.080,232.086 74.110 C 231.236 73.051,229.915 71.338,229.152 70.303 C 227.800 68.472,220.597 61.771,219.442 61.270 C 219.124 61.133,217.738 60.383,216.362 59.604 C 212.786 57.580,204.690 54.444,201.608 53.888 C 198.516 53.331,198.270 52.970,198.262 48.964 C 198.252 44.039,198.686 44.307,186.333 41.582 C 184.321 41.138,181.966 40.613,181.098 40.416 C 180.230 40.218,177.805 39.798,175.708 39.481 C 158.334 36.857,156.896 36.697,156.497 37.344 M191.974 96.343 C 191.710 101.649,190.480 114.171,189.815 118.308 C 189.604 119.620,189.071 123.118,188.630 126.083 C 186.757 138.672,185.591 136.250,186.450 121.558 L 186.760 116.263 185.680 115.809 C 184.952 115.502,180.601 115.312,172.303 115.223 C 165.540 115.150,159.921 115.006,159.817 114.902 C 158.203 113.288,171.934 111.605,180.094 112.417 C 182.996 112.705,185.804 112.953,186.333 112.967 C 187.413 112.996,187.805 111.387,189.973 98.029 C 191.010 91.642,191.118 91.242,191.805 91.242 C 192.103 91.242,192.152 92.747,191.974 96.343 M158.169 112.446 C 158.442 116.768,157.222 131.977,155.917 140.520 C 154.899 147.184,154.316 150.632,153.765 153.252 C 153.434 154.825,153.025 156.978,152.856 158.037 C 152.043 163.148,151.302 165.544,150.534 165.544 C 150.118 165.544,150.309 163.403,151.357 156.304 C 151.780 153.446,152.277 150.067,152.462 148.797 C 152.648 147.526,152.883 146.141,152.985 145.717 C 153.496 143.605,154.990 131.504,155.529 125.120 C 156.855 109.424,156.784 109.946,157.556 110.200 C 157.838 110.293,158.091 111.221,158.169 112.446 M184.631 156.776 C 197.919 165.486,201.078 180.275,194.091 201.066 C 189.382 215.078,176.219 223.511,160.177 222.796 C 154.025 222.521,147.151 220.349,146.422 218.448 C 146.018 217.396,146.655 217.366,150.180 218.275 C 171.559 223.787,190.956 209.227,192.478 186.526 C 193.228 175.325,190.713 168.434,183.355 161.530 C 181.075 159.391,180.319 156.792,181.719 155.907 C 182.525 155.398,182.530 155.399,184.631 156.776 M145.140 158.238 C 145.140 158.454,144.473 159.364,143.658 160.259 C 139.574 164.746,135.537 172.112,133.588 178.633 C 133.114 180.221,132.509 182.214,132.244 183.061 C 130.963 187.156,130.517 197.604,131.473 201.117 C 132.058 203.265,135.225 208.350,137.477 210.759 C 140.942 214.462,140.105 216.219,136.596 212.608 C 128.760 204.544,126.662 193.897,130.433 181.328 C 130.973 179.528,131.549 177.796,131.712 177.478 C 131.876 177.161,132.362 175.907,132.793 174.692 C 133.924 171.500,135.973 167.573,137.685 165.314 C 140.031 162.218,143.662 158.278,144.334 158.098 C 144.671 158.007,144.990 157.913,145.043 157.889 C 145.096 157.864,145.140 158.021,145.140 158.238 M209.594 221.463 C 209.691 221.939,209.855 222.762,209.959 223.292 C 210.500 226.042,212.741 233.012,213.869 235.449 C 214.449 236.703,215.209 238.508,215.557 239.461 C 215.905 240.414,216.687 242.060,217.294 243.118 C 219.100 246.266,223.670 253.741,225.169 256.000 C 225.936 257.156,226.910 258.647,227.334 259.312 C 227.757 259.977,228.754 261.503,229.548 262.703 C 230.342 263.903,230.991 265.040,230.991 265.230 C 230.991 265.420,231.133 265.634,231.305 265.704 C 231.478 265.775,232.422 267.045,233.403 268.527 C 238.386 276.060,239.856 278.239,240.586 279.174 C 242.814 282.029,248.316 290.750,248.316 291.427 C 248.316 292.344,247.702 292.400,245.725 291.664 C 237.092 288.450,225.634 289.309,214.699 293.989 C 213.035 294.701,211.445 295.284,211.166 295.284 C 210.887 295.284,209.559 295.868,208.216 296.582 C 205.207 298.183,203.657 298.605,203.657 297.825 C 203.657 296.823,224.315 285.619,229.204 283.968 C 230.108 283.663,229.451 282.490,226.995 280.025 C 224.546 277.567,222.316 274.704,218.638 269.297 C 208.883 254.954,205.301 240.411,207.356 223.484 C 207.690 220.736,209.173 219.397,209.594 221.463 " stroke="none" fill="#040404" fill-rule="evenodd"></path><path id="path1" d="M0.000 192.493 L 0.000 384.986 31.689 384.986 L 63.377 384.986 63.891 382.981 C 64.607 380.186,66.610 376.495,69.290 373.030 C 72.565 368.797,73.292 367.205,74.674 361.242 C 80.219 337.315,84.680 328.355,93.625 323.188 C 98.169 320.562,105.214 316.907,106.922 316.289 C 107.720 316.000,110.192 314.906,112.416 313.858 C 114.639 312.810,117.931 311.297,119.731 310.496 C 127.583 307.000,129.355 306.081,129.355 305.509 C 129.355 304.740,128.750 302.294,127.173 296.692 C 126.468 294.185,125.893 291.933,125.896 291.688 C 125.935 288.668,119.999 278.735,117.319 277.335 C 114.722 275.979,107.809 276.286,104.716 277.895 C 103.851 278.345,95.366 280.941,89.894 282.431 C 78.569 285.513,71.334 281.304,69.305 270.452 C 68.203 264.562,66.749 261.124,64.218 258.422 C 60.764 254.736,60.331 252.573,62.383 249.254 C 63.300 247.769,62.960 246.776,61.535 246.776 C 60.786 246.776,58.450 245.659,57.323 244.762 C 56.254 243.911,56.138 242.648,56.827 239.332 C 58.033 233.533,56.917 231.724,50.127 228.472 C 43.351 225.227,40.814 223.073,40.810 220.567 C 40.808 219.570,42.495 215.015,43.172 214.187 C 43.371 213.943,44.285 212.384,45.202 210.722 C 46.120 209.060,47.841 205.974,49.028 203.865 C 55.215 192.872,55.293 190.616,49.802 181.595 C 48.667 179.730,47.738 178.120,47.738 178.017 C 47.738 177.915,47.435 177.504,47.064 177.103 C 46.694 176.703,46.047 175.714,45.628 174.906 C 45.208 174.097,44.097 172.223,43.159 170.741 C 40.420 166.413,37.140 160.885,36.078 158.807 C 31.559 149.958,34.953 164.963,39.823 175.361 C 42.008 180.024,42.348 180.851,42.348 181.483 C 42.348 182.694,41.076 182.058,38.381 179.500 C 36.876 178.070,35.461 176.728,35.238 176.516 C 33.095 174.482,27.334 166.166,27.334 165.105 C 27.334 164.933,26.816 163.662,26.183 162.281 C 25.550 160.899,24.767 158.599,24.442 157.170 C 24.117 155.741,23.678 153.818,23.466 152.896 C 21.838 145.817,22.853 134.634,25.969 125.304 C 32.062 107.065,41.108 92.687,50.818 85.809 C 54.944 82.887,60.229 80.817,65.460 80.075 C 68.876 79.591,68.912 79.568,68.912 77.924 C 68.912 72.787,75.422 68.820,92.782 63.379 C 102.843 60.224,105.964 59.337,113.956 57.356 C 118.296 56.280,123.234 55.041,124.928 54.602 C 126.622 54.164,129.480 53.483,131.280 53.089 C 133.080 52.696,135.765 52.103,137.247 51.771 C 138.730 51.440,141.328 50.904,143.022 50.580 C 150.547 49.140,155.345 48.081,155.628 47.798 C 155.797 47.630,155.754 45.428,155.532 42.905 C 155.105 38.032,155.376 36.355,156.631 36.103 C 158.308 35.767,175.402 38.251,183.995 40.079 C 199.248 43.324,199.049 43.213,199.335 48.671 C 199.524 52.286,199.551 52.375,200.534 52.578 C 222.811 57.184,237.093 72.632,248.561 104.524 C 249.094 106.006,249.849 107.999,250.240 108.952 C 250.631 109.906,251.322 112.071,251.777 113.764 C 252.231 115.458,252.867 117.796,253.189 118.961 C 253.512 120.125,254.024 122.117,254.328 123.388 C 254.632 124.658,255.035 126.218,255.224 126.853 C 256.257 130.327,259.742 147.674,260.250 151.877 C 260.705 155.636,261.126 158.328,264.100 176.516 C 264.689 180.119,266.361 189.404,266.792 191.463 C 267.005 192.485,267.180 193.729,267.180 194.226 C 267.180 198.484,271.466 209.971,274.613 214.147 C 283.490 225.928,299.030 231.763,314.341 229.065 C 322.408 227.643,321.296 229.558,312.223 232.714 C 307.512 234.353,303.340 234.825,293.478 234.835 C 290.050 234.838,287.157 234.984,287.049 235.158 C 286.877 235.436,288.566 236.968,292.917 240.479 C 293.995 241.349,305.862 249.267,310.958 252.518 C 312.852 253.725,321.053 258.497,323.773 259.973 C 324.937 260.605,326.478 261.475,327.196 261.906 C 329.335 263.191,347.285 272.055,349.570 272.956 C 350.732 273.414,351.856 273.917,352.068 274.073 C 352.281 274.230,354.100 275.026,356.112 275.842 C 358.123 276.658,359.942 277.438,360.154 277.574 C 360.366 277.710,361.838 278.224,363.426 278.716 C 370.989 281.058,371.960 281.655,369.802 282.639 C 368.223 283.358,348.603 282.288,340.520 281.042 C 339.038 280.813,336.607 280.472,335.120 280.284 C 332.355 279.934,328.553 279.136,325.120 278.185 C 324.062 277.891,322.243 277.444,321.078 277.191 C 319.913 276.937,316.549 275.968,313.601 275.037 C 306.519 272.800,306.425 272.951,312.416 276.940 C 314.533 278.350,316.612 279.735,317.036 280.019 C 318.560 281.038,324.976 284.889,325.150 284.889 C 325.248 284.889,325.974 285.290,326.764 285.779 C 327.554 286.269,328.807 286.901,329.548 287.184 C 330.289 287.468,332.108 288.220,333.590 288.856 C 335.072 289.492,336.805 290.143,337.440 290.303 C 338.075 290.462,339.894 290.932,341.482 291.347 C 350.099 293.598,357.822 293.300,367.509 290.345 C 371.369 289.167,377.706 285.378,381.625 281.906 C 387.485 276.712,383.048 288.329,376.516 295.282 C 364.373 308.207,345.415 311.077,323.165 303.357 C 319.622 302.128,318.643 301.719,314.754 299.847 C 313.499 299.243,312.317 298.749,312.127 298.749 C 311.726 298.749,318.202 305.893,321.806 309.426 C 323.159 310.753,324.478 311.838,324.737 311.838 C 324.997 311.838,325.622 312.157,326.127 312.547 C 326.632 312.937,327.392 313.360,327.815 313.488 C 328.239 313.616,329.591 314.071,330.821 314.499 C 333.581 315.461,336.571 316.195,342.060 317.260 C 361.394 321.010,373.757 328.630,382.577 342.235 C 385.231 346.329,384.691 347.029,380.589 344.814 C 372.199 340.282,365.400 338.555,339.485 334.370 C 336.163 333.834,332.009 332.886,330.254 332.265 C 328.498 331.644,326.973 331.224,326.865 331.332 C 326.624 331.573,330.103 338.137,331.345 339.786 C 331.839 340.441,332.243 341.112,332.243 341.277 C 332.243 343.482,343.247 353.417,345.690 353.417 C 345.927 353.417,347.633 354.178,349.481 355.108 C 351.328 356.039,353.272 356.928,353.802 357.085 C 354.331 357.242,355.544 357.767,356.497 358.253 C 357.449 358.738,359.322 359.587,360.658 360.140 C 372.014 364.840,381.371 372.195,387.177 380.984 L 389.798 384.952 394.899 384.969 L 400.000 384.986 400.000 192.493 L 400.000 0.000 200.000 0.000 L 0.000 0.000 0.000 192.493 M188.829 110.524 C 188.017 114.706,188.111 114.649,183.303 113.816 C 179.267 113.116,170.721 112.961,169.779 113.571 C 169.344 113.852,169.534 113.949,170.549 113.962 C 171.290 113.973,175.165 114.141,179.161 114.336 C 188.371 114.785,188.024 114.558,187.661 119.909 C 187.294 125.340,188.031 124.265,188.804 118.243 C 190.093 108.198,190.107 103.944,188.829 110.524 M182.281 157.090 C 181.774 157.910,182.496 159.234,184.687 161.501 C 194.835 172.006,196.711 186.776,189.747 201.340 C 183.743 213.899,170.550 221.403,156.561 220.215 C 150.000 219.658,149.554 220.320,155.762 221.401 C 172.839 224.375,187.932 215.701,193.378 199.784 C 199.264 182.583,197.733 170.582,188.493 161.501 C 184.756 157.829,182.718 156.382,182.281 157.090 M208.277 224.046 C 208.277 224.250,208.087 226.161,207.855 228.294 C 206.491 240.833,211.086 256.765,219.503 268.678 C 221.057 270.878,222.866 273.477,223.523 274.453 C 224.180 275.429,226.128 277.742,227.854 279.594 C 231.876 283.911,231.913 283.732,226.475 286.287 C 214.817 291.764,209.510 294.996,216.963 292.079 C 219.105 291.240,223.438 290.114,228.275 289.138 C 232.737 288.238,239.336 288.650,244.391 290.145 C 247.036 290.928,247.180 290.695,245.560 288.258 C 244.821 287.146,243.709 285.473,243.090 284.540 C 242.470 283.607,241.444 282.101,240.808 281.192 C 238.260 277.549,228.681 263.299,228.681 263.152 C 228.681 263.065,227.510 261.294,226.079 259.216 C 223.779 255.876,221.310 251.969,219.396 248.638 C 219.054 248.042,218.602 247.336,218.393 247.069 C 217.624 246.087,215.700 242.265,214.466 239.269 C 213.768 237.575,212.787 235.281,212.284 234.171 C 211.782 233.061,210.926 230.549,210.383 228.589 C 209.839 226.628,209.305 224.721,209.195 224.350 C 208.986 223.644,208.277 223.409,208.277 224.046 M319.544 383.542 C 319.558 384.653,320.212 385.034,321.886 384.904 L 323.580 384.772 321.720 383.916 C 319.545 382.916,319.536 382.915,319.544 383.542 " stroke="none" fill="#fbfbfb" fill-rule="evenodd"></path><path id="path2" d="M156.035 42.733 C 156.035 43.898,156.107 44.374,156.195 43.792 C 156.283 43.210,156.283 42.257,156.195 41.675 C 156.107 41.092,156.035 41.569,156.035 42.733 M226.756 67.180 C 227.907 68.345,228.934 69.297,229.040 69.297 C 229.146 69.297,228.292 68.345,227.141 67.180 C 225.991 66.015,224.964 65.063,224.858 65.063 C 224.752 65.063,225.606 66.015,226.756 67.180 M67.950 80.077 L 66.795 80.371 67.831 80.416 C 68.401 80.441,68.974 80.289,69.105 80.077 C 69.236 79.865,69.289 79.713,69.224 79.738 C 69.158 79.763,68.585 79.915,67.950 80.077 M191.251 93.936 C 190.787 95.241,189.734 100.545,189.905 100.717 C 190.007 100.819,190.213 100.250,190.362 99.452 C 190.512 98.654,190.890 97.249,191.202 96.330 C 191.514 95.410,191.699 94.366,191.613 94.008 C 191.483 93.466,191.423 93.454,191.251 93.936 M191.042 101.636 C 191.042 102.377,191.121 102.680,191.218 102.310 C 191.315 101.939,191.315 101.333,191.218 100.962 C 191.121 100.592,191.042 100.895,191.042 101.636 M172.969 112.701 C 174.194 112.777,176.100 112.777,177.204 112.699 C 178.308 112.622,177.305 112.559,174.976 112.560 C 172.647 112.561,171.744 112.624,172.969 112.701 M161.018 114.211 C 159.968 114.635,161.075 115.107,162.968 115.043 L 164.966 114.976 163.234 114.810 C 161.874 114.679,161.667 114.575,162.271 114.326 L 163.041 114.010 162.271 114.013 C 161.848 114.015,161.284 114.104,161.018 114.211 M156.925 115.496 C 156.795 116.131,156.583 117.170,156.453 117.806 C 156.307 118.517,156.375 118.961,156.629 118.961 C 156.876 118.961,157.095 120.161,157.173 121.944 C 157.256 123.839,157.332 122.996,157.382 119.634 C 157.460 114.297,157.358 113.378,156.925 115.496 M177.190 115.006 C 177.984 115.089,179.283 115.089,180.077 115.006 C 180.871 114.923,180.221 114.855,178.633 114.855 C 177.045 114.855,176.396 114.923,177.190 115.006 M186.807 121.270 C 186.807 122.012,186.887 122.315,186.983 121.944 C 187.080 121.574,187.080 120.967,186.983 120.597 C 186.887 120.226,186.807 120.529,186.807 121.270 M156.042 124.735 C 156.042 126.112,156.112 126.675,156.198 125.987 C 156.283 125.298,156.283 124.172,156.198 123.484 C 156.112 122.796,156.042 123.359,156.042 124.735 M186.430 125.698 C 186.434 126.545,186.513 126.846,186.605 126.367 C 186.697 125.888,186.694 125.195,186.598 124.827 C 186.501 124.459,186.426 124.851,186.430 125.698 M156.786 128.008 C 156.790 128.855,156.869 129.156,156.961 128.677 C 157.053 128.198,157.050 127.505,156.954 127.137 C 156.857 126.769,156.782 127.161,156.786 128.008 M186.959 131.169 C 186.826 131.548,186.617 132.074,186.493 132.339 C 186.370 132.603,186.438 132.820,186.644 132.820 C 186.851 132.820,187.133 132.366,187.272 131.812 C 187.565 130.648,187.319 130.143,186.959 131.169 M155.246 132.243 C 155.251 133.090,155.329 133.391,155.421 132.912 C 155.514 132.433,155.510 131.740,155.414 131.372 C 155.317 131.004,155.242 131.396,155.246 132.243 M154.469 138.595 C 154.469 139.336,154.548 139.639,154.645 139.269 C 154.741 138.898,154.741 138.292,154.645 137.921 C 154.548 137.551,154.469 137.854,154.469 138.595 M23.246 143.407 C 23.247 145.948,23.309 146.937,23.385 145.606 C 23.460 144.274,23.459 142.195,23.383 140.986 C 23.307 139.777,23.245 140.866,23.246 143.407 M154.047 141.547 C 154.018 142.006,153.895 142.699,153.773 143.087 C 153.563 143.754,153.575 143.756,153.990 143.107 C 154.232 142.731,154.355 142.038,154.264 141.567 C 154.099 140.713,154.099 140.713,154.047 141.547 M152.551 151.107 C 152.556 151.954,152.634 152.255,152.727 151.776 C 152.819 151.297,152.815 150.604,152.719 150.236 C 152.622 149.868,152.547 150.260,152.551 151.107 M151.726 157.122 C 151.703 158.102,151.590 159.487,151.474 160.202 C 151.264 161.500,151.264 161.500,151.831 160.009 C 152.232 158.951,152.306 158.053,152.083 156.929 L 151.769 155.342 151.726 157.122 M138.639 164.814 C 137.728 165.874,137.554 166.246,138.061 166.051 C 138.766 165.781,138.766 165.802,138.082 166.847 C 137.695 167.437,137.453 167.995,137.544 168.087 C 137.636 168.178,138.126 167.431,138.634 166.427 C 139.142 165.423,139.774 164.368,140.038 164.082 C 140.586 163.492,140.651 163.219,140.231 163.266 C 140.072 163.284,139.356 163.981,138.639 164.814 M136.624 167.565 C 136.371 168.041,135.914 168.864,135.607 169.394 C 135.071 170.317,135.075 170.325,135.696 169.586 C 136.463 168.674,137.540 166.699,137.271 166.699 C 137.167 166.699,136.876 167.089,136.624 167.565 M133.068 175.022 C 132.267 176.702,132.267 177.268,133.068 175.789 C 133.481 175.026,133.762 174.825,133.962 175.147 C 134.164 175.475,134.315 175.382,134.456 174.841 C 134.811 173.485,133.734 173.625,133.068 175.022 M36.574 177.286 C 37.938 178.662,39.140 179.788,39.246 179.788 C 39.352 179.788,38.323 178.662,36.959 177.286 C 35.595 175.910,34.392 174.783,34.286 174.783 C 34.180 174.783,35.210 175.910,36.574 177.286 M192.993 179.018 C 192.993 180.183,193.065 180.659,193.154 180.077 C 193.242 179.495,193.242 178.542,193.154 177.960 C 193.065 177.377,192.993 177.854,192.993 179.018 M193.001 185.563 C 193.001 186.939,193.071 187.502,193.156 186.814 C 193.242 186.126,193.242 185.000,193.156 184.312 C 193.071 183.624,193.001 184.187,193.001 185.563 M129.012 191.177 C 129.035 192.854,129.187 195.265,129.350 196.535 C 129.535 197.979,129.572 196.897,129.448 193.648 C 129.231 187.950,128.946 186.332,129.012 191.177 M130.103 195.573 C 129.955 198.909,130.036 200.798,130.365 201.732 C 130.824 203.033,131.207 202.482,130.899 200.962 C 130.835 200.645,130.677 198.219,130.549 195.573 L 130.316 190.760 130.103 195.573 M52.036 198.862 C 51.391 200.277,51.514 200.579,52.211 199.292 C 52.537 198.691,52.731 198.127,52.643 198.039 C 52.555 197.951,52.282 198.321,52.036 198.862 M132.159 204.331 C 132.271 204.808,132.196 205.197,131.991 205.197 C 131.787 205.197,131.728 205.373,131.861 205.589 C 131.994 205.804,132.291 205.864,132.521 205.722 C 132.761 205.573,132.829 205.641,132.681 205.881 C 132.539 206.111,132.858 206.942,133.391 207.727 C 133.924 208.512,134.363 208.914,134.366 208.620 C 134.371 208.186,134.439 208.192,134.731 208.652 C 134.946 208.992,134.949 209.306,134.738 209.436 C 134.545 209.556,135.331 210.675,136.484 211.924 C 138.503 214.111,139.499 214.587,138.620 212.944 C 138.387 212.508,137.960 212.247,137.665 212.360 C 136.934 212.641,136.444 211.736,137.102 211.320 C 137.394 211.135,137.453 210.981,137.233 210.978 C 136.733 210.971,134.260 207.682,132.946 205.278 C 132.401 204.281,132.047 203.855,132.159 204.331 M182.868 210.010 C 181.933 210.962,181.255 211.742,181.360 211.742 C 181.466 211.742,182.318 210.962,183.253 210.010 C 184.188 209.057,184.867 208.277,184.761 208.277 C 184.655 208.277,183.803 209.057,182.868 210.010 M185.741 213.378 L 183.831 215.399 185.852 213.489 C 186.963 212.438,187.873 211.529,187.873 211.468 C 187.873 211.181,187.516 211.500,185.741 213.378 M208.069 221.777 C 207.929 222.003,207.919 222.292,208.046 222.419 C 208.173 222.546,208.277 222.429,208.277 222.160 C 208.277 221.882,208.528 221.765,208.855 221.891 C 209.172 222.013,209.432 221.945,209.432 221.740 C 209.432 221.236,208.386 221.264,208.069 221.777 M157.555 222.402 C 157.926 222.499,158.532 222.499,158.903 222.402 C 159.273 222.305,158.970 222.226,158.229 222.226 C 157.488 222.226,157.185 222.305,157.555 222.402 M165.255 222.402 C 165.626 222.499,166.232 222.499,166.603 222.402 C 166.973 222.305,166.670 222.226,165.929 222.226 C 165.188 222.226,164.885 222.305,165.255 222.402 M317.134 229.322 C 317.400 229.429,317.497 229.719,317.349 229.966 C 317.201 230.212,317.417 230.160,317.828 229.849 C 318.239 229.538,318.648 229.235,318.736 229.175 C 318.824 229.115,318.391 229.080,317.774 229.097 C 317.156 229.114,316.868 229.215,317.134 229.322 M206.847 231.954 C 206.850 233.013,206.925 233.400,207.014 232.815 C 207.102 232.230,207.100 231.363,207.008 230.890 C 206.917 230.416,206.844 230.895,206.847 231.954 M304.047 233.959 C 304.526 234.051,305.219 234.047,305.587 233.951 C 305.955 233.854,305.563 233.779,304.716 233.783 C 303.869 233.788,303.568 233.866,304.047 233.959 M287.107 234.344 C 287.586 234.436,288.279 234.432,288.647 234.336 C 289.015 234.239,288.624 234.164,287.777 234.168 C 286.930 234.173,286.629 234.251,287.107 234.344 M290.953 234.353 C 291.853 234.434,293.325 234.434,294.225 234.353 C 295.125 234.272,294.389 234.206,292.589 234.206 C 290.789 234.206,290.053 234.272,290.953 234.353 M287.584 236.959 C 288.303 237.700,288.977 238.306,289.083 238.306 C 289.189 238.306,288.688 237.700,287.969 236.959 C 287.251 236.218,286.577 235.611,286.471 235.611 C 286.365 235.611,286.866 236.218,287.584 236.959 M62.753 256.136 C 62.753 256.202,63.316 256.765,64.004 257.387 L 65.255 258.518 64.124 257.267 C 63.070 256.100,62.753 255.838,62.753 256.136 M305.294 272.118 C 305.294 272.293,305.770 272.856,306.352 273.369 L 307.411 274.302 306.541 273.311 C 306.063 272.766,305.789 272.203,305.932 272.060 C 306.075 271.917,305.990 271.800,305.743 271.800 C 305.496 271.800,305.294 271.943,305.294 272.118 M369.201 281.396 C 369.201 281.592,368.898 281.832,368.527 281.929 C 368.020 282.062,368.068 282.116,368.720 282.150 C 369.253 282.177,369.586 281.972,369.586 281.617 C 369.586 281.299,369.500 281.039,369.394 281.039 C 369.288 281.039,369.201 281.200,369.201 281.396 M382.831 281.484 C 382.668 281.748,382.725 281.824,382.972 281.672 C 383.200 281.531,383.451 281.720,383.528 282.093 C 383.644 282.650,383.712 282.616,383.906 281.906 C 384.161 280.977,383.343 280.656,382.831 281.484 M350.053 281.701 C 350.639 281.789,351.505 281.787,351.978 281.695 C 352.452 281.604,351.973 281.532,350.914 281.535 C 349.856 281.537,349.468 281.612,350.053 281.701 M358.720 282.092 C 359.626 282.173,361.012 282.172,361.800 282.089 C 362.589 282.007,361.848 281.940,360.154 281.941 C 358.460 281.943,357.815 282.010,358.720 282.092 M81.713 282.855 C 82.295 282.943,83.248 282.943,83.831 282.855 C 84.413 282.767,83.936 282.695,82.772 282.695 C 81.607 282.695,81.131 282.767,81.713 282.855 M247.546 291.021 C 247.546 291.217,247.243 291.457,246.872 291.554 C 246.365 291.686,246.413 291.741,247.064 291.774 C 247.598 291.802,247.931 291.597,247.931 291.242 C 247.931 290.924,247.844 290.664,247.738 290.664 C 247.632 290.664,247.546 290.825,247.546 291.021 M348.123 293.239 C 348.494 293.336,349.100 293.336,349.471 293.239 C 349.841 293.143,349.538 293.063,348.797 293.063 C 348.056 293.063,347.753 293.143,348.123 293.239 M356.208 293.239 C 356.578 293.336,357.185 293.336,357.555 293.239 C 357.926 293.143,357.623 293.063,356.882 293.063 C 356.141 293.063,355.837 293.143,356.208 293.239 M375.733 295.188 L 373.628 297.401 375.842 295.297 C 377.899 293.342,378.232 292.974,377.946 292.974 C 377.886 292.974,376.890 293.970,375.733 295.188 M209.663 294.272 C 208.607 294.911,208.321 295.255,208.700 295.429 C 208.997 295.566,208.850 295.605,208.374 295.517 C 207.898 295.428,207.418 295.501,207.309 295.678 C 206.889 296.358,207.776 296.345,209.247 295.650 C 210.090 295.251,210.520 294.915,210.202 294.903 C 209.809 294.889,209.933 294.641,210.587 294.129 C 211.894 293.107,211.482 293.171,209.663 294.272 M310.298 297.739 C 310.298 298.031,310.602 298.499,310.972 298.779 C 311.530 299.202,311.569 299.202,311.195 298.780 C 310.947 298.499,310.835 298.031,310.947 297.739 C 311.059 297.448,310.959 297.209,310.725 297.209 C 310.490 297.209,310.298 297.448,310.298 297.739 M314.341 302.599 C 316.025 304.293,317.489 305.679,317.595 305.679 C 317.701 305.679,316.410 304.293,314.726 302.599 C 313.042 300.905,311.577 299.519,311.471 299.519 C 311.366 299.519,312.657 300.905,314.341 302.599 M380.173 373.436 C 381.216 374.495,382.156 375.361,382.262 375.361 C 382.368 375.361,381.601 374.495,380.558 373.436 C 379.515 372.377,378.576 371.511,378.470 371.511 C 378.364 371.511,379.130 372.377,380.173 373.436 " stroke="none" fill="#6c6c6c" fill-rule="evenodd"></path><path id="path3" d="M156.631 36.103 C 155.376 36.355,155.105 38.032,155.532 42.905 C 155.754 45.428,155.797 47.630,155.628 47.798 C 155.345 48.081,150.547 49.140,143.022 50.580 C 141.328 50.904,138.730 51.440,137.247 51.771 C 135.765 52.103,133.080 52.699,131.280 53.097 C 126.129 54.234,122.633 55.186,123.070 55.332 C 123.291 55.406,125.705 54.927,128.435 54.269 C 134.732 52.750,139.262 51.769,144.370 50.819 C 150.333 49.709,155.629 48.543,155.886 48.282 C 156.010 48.156,156.112 45.513,156.112 42.409 L 156.112 36.766 159.192 36.847 C 168.805 37.101,196.651 42.583,198.051 44.498 C 198.361 44.922,198.630 46.629,198.724 48.766 C 198.910 53.025,198.486 52.530,202.914 53.656 C 218.221 57.546,230.810 67.985,238.503 83.166 C 239.058 84.262,239.605 85.066,239.717 84.954 C 240.238 84.433,235.443 76.782,230.871 70.837 C 223.941 61.828,212.780 55.110,200.534 52.578 C 199.551 52.375,199.524 52.286,199.335 48.671 C 199.049 43.213,199.248 43.324,183.995 40.079 C 175.402 38.251,158.308 35.767,156.631 36.103 M116.073 56.740 C 113.532 57.400,111.808 57.991,112.242 58.053 C 112.676 58.115,115.188 57.564,117.824 56.828 C 123.765 55.171,122.383 55.101,116.073 56.740 M106.256 59.292 C 97.113 61.985,92.043 63.549,90.092 64.276 C 88.930 64.708,87.736 65.063,87.439 65.063 C 86.719 65.063,81.071 67.420,77.019 69.412 C 71.194 72.275,68.912 74.671,68.912 77.924 C 68.912 79.568,68.876 79.591,65.460 80.075 C 58.996 80.992,52.604 83.924,47.412 88.353 C 38.746 95.745,25.272 121.092,24.043 132.313 C 23.894 133.681,24.087 133.246,24.782 130.655 C 27.757 119.552,34.497 105.009,40.281 97.209 C 47.573 87.375,54.423 82.771,64.870 80.682 L 69.105 79.835 69.343 77.907 C 69.860 73.730,75.565 69.568,85.274 66.284 C 89.708 64.785,99.942 61.634,104.909 60.239 C 107.661 59.466,110.260 58.687,110.683 58.509 L 111.453 58.185 110.683 58.200 C 110.260 58.208,108.268 58.699,106.256 59.292 M239.922 85.659 C 239.990 85.871,240.926 87.777,242.002 89.894 C 243.077 92.012,245.145 96.815,246.596 100.568 C 248.047 104.321,249.304 107.321,249.390 107.235 C 249.705 106.920,245.164 95.301,242.838 90.472 C 241.364 87.412,239.488 84.315,239.922 85.659 M191.203 96.121 C 190.527 98.442,190.050 100.667,189.373 104.652 C 188.953 107.122,188.448 110.083,188.250 111.232 C 187.864 113.481,187.353 114.091,186.141 113.748 C 181.767 112.513,167.847 112.585,163.811 113.864 L 161.501 114.595 173.436 114.783 C 188.864 115.026,187.559 114.225,186.837 123.003 C 185.961 133.663,186.649 134.870,188.223 125.432 C 188.666 122.778,189.007 120.019,188.982 119.302 C 188.951 118.418,188.796 118.828,188.501 120.572 C 187.822 124.583,187.361 124.220,187.657 119.909 C 188.025 114.558,188.372 114.786,179.161 114.336 C 175.165 114.141,171.290 113.973,170.549 113.962 C 169.534 113.949,169.344 113.852,169.779 113.571 C 170.721 112.961,179.267 113.116,183.303 113.816 C 188.120 114.651,188.012 114.716,188.860 110.427 C 189.764 105.855,190.030 107.048,189.416 112.918 C 189.155 115.417,189.026 117.547,189.130 117.651 C 189.325 117.846,189.425 117.096,190.398 108.181 C 190.710 105.322,191.149 101.366,191.375 99.390 C 191.758 96.039,191.677 94.497,191.203 96.121 M249.488 107.988 C 249.496 108.666,252.116 116.096,252.141 115.516 C 252.173 114.781,250.355 108.921,249.865 108.181 C 249.655 107.863,249.485 107.777,249.488 107.988 M252.161 116.490 C 252.149 117.335,254.679 126.340,254.781 125.816 C 254.844 125.496,254.520 123.866,254.063 122.194 C 253.605 120.521,253.092 118.576,252.924 117.871 C 252.624 116.614,252.170 115.794,252.161 116.490 M156.304 122.418 C 156.304 124.320,156.128 127.049,155.914 128.482 C 155.699 129.915,155.186 133.773,154.774 137.055 C 154.362 140.337,153.836 144.062,153.604 145.332 C 153.038 148.438,152.454 152.910,152.247 155.727 L 152.076 158.037 152.670 155.534 C 152.996 154.158,153.415 152.079,153.600 150.914 C 153.785 149.750,154.384 146.285,154.931 143.215 C 156.555 134.100,157.652 118.961,156.689 118.961 C 156.461 118.961,156.304 120.370,156.304 122.418 M255.037 127.815 C 255.195 128.556,255.464 129.769,255.634 130.510 C 255.804 131.251,256.418 134.156,256.999 136.965 C 257.580 139.775,258.136 141.992,258.236 141.893 C 258.584 141.545,255.548 127.198,255.025 126.719 C 254.873 126.581,254.879 127.074,255.037 127.815 M23.214 135.373 C 22.728 137.120,22.913 151.335,23.436 152.454 C 23.835 153.306,23.863 153.217,23.677 151.684 C 23.122 147.113,23.022 140.824,23.457 137.851 C 23.923 134.662,23.790 133.304,23.214 135.373 M258.438 143.888 C 258.869 147.094,260.651 158.062,260.800 158.422 C 261.390 159.847,260.824 155.178,259.413 146.968 C 258.694 142.790,257.993 140.574,258.438 143.888 M33.109 154.082 C 33.109 158.744,36.124 168.646,40.081 176.974 C 42.529 182.127,42.190 182.441,38.154 178.758 C 31.376 172.571,26.188 163.482,24.129 154.187 C 23.983 153.528,23.952 153.548,23.914 154.324 C 23.845 155.730,24.943 159.573,26.198 162.312 C 26.823 163.677,27.334 164.933,27.334 165.105 C 27.334 166.166,33.095 174.482,35.238 176.516 C 35.461 176.728,36.876 178.070,38.381 179.500 C 41.076 182.058,42.348 182.694,42.348 181.483 C 42.348 180.851,42.008 180.024,39.823 175.361 C 36.874 169.064,34.701 162.222,34.076 157.267 C 33.788 154.981,34.342 155.407,36.078 158.807 C 37.140 160.885,40.420 166.413,43.159 170.741 C 44.097 172.223,45.208 174.097,45.628 174.906 C 46.047 175.714,46.694 176.703,47.064 177.103 C 47.435 177.504,47.738 177.915,47.738 178.017 C 47.738 178.120,48.667 179.730,49.802 181.595 C 55.293 190.616,55.215 192.872,49.028 203.865 C 47.841 205.974,46.120 209.060,45.202 210.722 C 44.285 212.384,43.371 213.943,43.172 214.187 C 42.495 215.015,40.808 219.570,40.810 220.567 C 40.814 223.073,43.351 225.227,50.127 228.472 C 56.917 231.724,58.033 233.533,56.827 239.332 C 56.138 242.648,56.254 243.911,57.323 244.762 C 58.450 245.659,60.786 246.776,61.535 246.776 C 62.960 246.776,63.300 247.769,62.383 249.254 C 60.331 252.573,60.764 254.736,64.218 258.422 C 66.747 261.121,68.191 264.532,69.309 270.452 C 69.831 273.217,71.178 277.117,71.729 277.457 C 71.981 277.613,72.016 277.435,71.826 276.964 C 70.884 274.632,70.013 271.777,69.504 269.356 C 68.173 263.025,67.269 260.969,64.494 257.950 C 61.300 254.476,60.878 252.762,62.550 250.048 C 63.845 247.945,63.818 246.850,62.464 246.577 C 57.893 245.654,56.311 243.685,57.169 239.985 C 58.699 233.387,57.348 231.311,48.893 227.264 C 39.280 222.662,39.229 221.692,47.820 207.016 C 55.894 193.225,56.068 190.924,49.805 180.752 C 48.139 178.045,45.910 174.391,44.851 172.631 C 43.792 170.872,41.772 167.561,40.361 165.274 C 38.951 162.987,36.981 159.558,35.985 157.653 C 33.361 152.633,33.109 152.321,33.109 154.082 M181.970 156.561 C 181.130 157.401,181.789 159.214,183.555 160.916 C 190.047 167.174,192.903 173.170,193.174 181.115 C 193.817 199.956,184.808 213.418,167.903 218.875 C 163.158 220.406,150.796 219.924,147.832 218.093 C 147.622 217.963,147.449 218.033,147.449 218.248 C 147.449 220.595,159.458 223.097,166.212 222.157 C 180.277 220.201,189.436 212.906,193.787 200.192 C 199.610 183.181,198.166 170.428,189.426 161.668 C 185.211 157.442,182.764 155.766,181.970 156.561 M188.493 161.501 C 197.733 170.582,199.264 182.583,193.378 199.784 C 187.932 215.701,172.839 224.375,155.762 221.401 C 149.554 220.320,150.000 219.658,156.561 220.215 C 170.550 221.403,183.743 213.899,189.747 201.340 C 196.711 186.776,194.835 172.006,184.687 161.501 C 182.496 159.234,181.774 157.910,182.281 157.090 C 182.718 156.382,184.756 157.829,188.493 161.501 M261.194 160.539 C 261.661 165.116,263.604 176.158,263.667 174.591 C 263.693 173.956,263.190 170.318,262.549 166.506 C 261.385 159.580,260.861 157.274,261.194 160.539 M136.625 168.142 C 134.635 171.600,134.495 171.882,134.220 172.980 C 134.065 173.595,134.119 174.013,134.353 174.013 C 134.568 174.013,134.750 173.797,134.757 173.532 C 134.770 173.003,135.947 170.588,137.570 167.757 C 138.147 166.752,138.457 165.929,138.259 165.929 C 138.061 165.929,137.325 166.925,136.625 168.142 M132.667 176.698 C 132.039 178.056,131.780 179.187,131.884 180.123 C 132.003 181.193,131.970 181.299,131.742 180.574 C 130.667 177.147,128.968 189.937,129.673 196.150 L 130.023 199.230 130.075 195.573 C 130.144 190.803,130.976 185.731,132.655 179.839 C 134.132 174.652,134.137 173.527,132.667 176.698 M263.792 176.901 C 263.792 177.536,263.931 178.489,264.100 179.018 C 264.400 179.954,264.408 179.949,264.408 178.826 C 264.408 178.191,264.270 177.238,264.100 176.708 C 263.800 175.773,263.792 175.778,263.792 176.901 M264.520 180.751 C 264.441 181.883,266.938 195.335,267.124 194.778 C 267.288 194.287,266.987 192.441,265.468 184.601 C 264.976 182.060,264.549 180.327,264.520 180.751 M267.180 196.473 C 267.180 199.454,270.656 209.159,272.976 212.652 C 281.641 225.702,296.518 231.930,313.571 229.648 C 318.989 228.923,319.141 228.925,318.035 229.700 C 313.157 233.116,304.760 234.423,287.488 234.454 C 286.694 234.455,286.044 234.623,286.044 234.826 C 286.044 236.836,304.582 249.672,320.632 258.775 C 333.987 266.350,362.613 279.885,365.279 279.885 C 366.454 279.885,369.586 281.155,369.586 281.632 C 369.586 282.481,357.082 282.289,344.562 281.247 C 342.823 281.103,342.374 281.144,343.089 281.383 C 345.490 282.186,368.715 283.252,369.906 282.614 C 371.835 281.582,370.940 281.043,363.426 278.716 C 361.838 278.224,360.366 277.710,360.154 277.574 C 359.942 277.438,358.123 276.658,356.112 275.842 C 354.100 275.026,352.281 274.230,352.068 274.073 C 351.856 273.917,350.732 273.414,349.570 272.956 C 347.285 272.055,329.335 263.191,327.196 261.906 C 326.478 261.475,324.937 260.605,323.773 259.973 C 321.053 258.497,312.852 253.725,310.958 252.518 C 305.862 249.267,293.995 241.349,292.917 240.479 C 288.566 236.968,286.877 235.436,287.049 235.158 C 287.157 234.984,290.050 234.838,293.478 234.835 C 303.340 234.825,307.512 234.353,312.223 232.714 C 321.296 229.558,322.408 227.643,314.341 229.065 C 292.806 232.860,274.008 221.168,268.660 200.650 C 267.482 196.132,267.180 195.279,267.180 196.473 M131.579 203.487 C 131.292 203.774,131.677 205.197,132.042 205.197 C 132.199 205.197,132.245 204.764,132.144 204.235 C 131.947 203.205,131.910 203.156,131.579 203.487 M134.360 208.616 C 134.360 208.883,134.620 209.362,134.937 209.680 C 135.675 210.418,135.667 209.858,134.925 208.877 C 134.608 208.458,134.360 208.343,134.360 208.616 M136.542 211.580 C 136.662 211.893,137.100 212.330,137.514 212.552 C 138.185 212.911,138.224 212.872,137.865 212.201 C 137.370 211.278,136.219 210.736,136.542 211.580 M208.129 222.353 C 206.696 226.088,207.093 239.527,208.840 246.409 C 211.813 258.122,219.168 271.215,227.910 280.359 C 230.936 283.524,230.901 283.733,227.045 285.504 C 218.903 289.244,209.521 294.346,209.967 294.792 C 210.058 294.883,212.963 293.999,216.423 292.828 C 228.540 288.728,237.653 288.040,244.645 290.697 C 249.074 292.380,249.719 293.585,232.663 268.335 C 221.841 252.315,217.400 245.007,214.757 238.871 C 213.888 236.853,213.111 235.269,213.030 235.350 C 212.676 235.704,217.152 245.485,218.393 247.069 C 218.602 247.336,219.054 248.042,219.396 248.638 C 221.310 251.969,223.779 255.876,226.079 259.216 C 227.510 261.294,228.681 263.065,228.681 263.152 C 228.681 263.299,238.260 277.549,240.808 281.192 C 241.444 282.101,242.470 283.607,243.090 284.540 C 243.709 285.473,244.821 287.146,245.560 288.258 C 247.180 290.695,247.036 290.928,244.391 290.145 C 239.336 288.650,232.737 288.238,228.275 289.138 C 223.438 290.114,219.105 291.240,216.963 292.079 C 209.510 294.996,214.817 291.764,226.475 286.287 C 231.913 283.732,231.876 283.911,227.854 279.594 C 226.128 277.742,224.180 275.429,223.523 274.453 C 222.866 273.477,221.057 270.878,219.503 268.678 C 211.008 256.654,206.499 240.883,207.882 228.034 C 208.508 222.223,208.598 222.221,210.200 227.963 C 211.352 232.094,212.441 235.041,212.714 234.767 C 212.801 234.681,212.293 232.886,211.585 230.779 C 210.877 228.673,210.081 225.996,209.816 224.832 C 209.130 221.811,209.109 221.752,208.715 221.752 C 208.520 221.752,208.256 222.022,208.129 222.353 M306.244 272.933 C 307.695 274.551,313.762 278.628,322.810 284.065 C 343.307 296.379,364.553 296.224,380.231 283.645 C 384.284 280.393,384.509 280.448,382.940 284.312 C 373.572 307.382,345.395 313.733,315.216 299.577 C 309.052 296.685,309.174 296.900,320.425 308.774 C 324.390 312.958,337.132 318.273,340.436 317.120 C 340.694 317.030,340.125 316.828,339.172 316.670 C 336.943 316.301,332.318 315.084,330.221 314.313 C 329.321 313.983,328.239 313.610,327.815 313.484 C 327.392 313.359,326.632 312.937,326.127 312.547 C 325.622 312.157,324.997 311.838,324.737 311.838 C 324.478 311.838,323.159 310.753,321.806 309.426 C 318.202 305.893,311.726 298.749,312.127 298.749 C 312.317 298.749,313.499 299.243,314.754 299.847 C 318.643 301.719,319.622 302.128,323.165 303.357 C 351.154 313.068,375.646 305.196,383.657 283.914 C 385.171 279.891,384.569 279.296,381.625 281.906 C 377.706 285.378,371.369 289.167,367.509 290.345 C 357.822 293.300,350.099 293.598,341.482 291.347 C 339.894 290.932,338.075 290.462,337.440 290.303 C 336.805 290.143,335.072 289.492,333.590 288.856 C 332.108 288.220,330.289 287.468,329.548 287.184 C 328.807 286.901,327.554 286.269,326.764 285.779 C 325.974 285.290,325.248 284.889,325.150 284.889 C 324.976 284.889,318.560 281.038,317.036 280.019 C 316.612 279.735,314.533 278.350,312.416 276.940 C 306.641 273.095,306.643 272.841,312.442 274.702 C 318.307 276.584,322.066 277.582,323.092 277.530 C 323.873 277.490,323.884 277.466,323.195 277.304 C 320.874 276.758,311.521 273.974,309.981 273.371 C 308.991 272.983,307.575 272.536,306.833 272.377 L 305.486 272.089 306.244 272.933 M108.068 276.504 C 103.965 277.571,104.596 277.808,109.012 276.859 C 117.718 274.988,123.029 280.052,126.314 293.359 C 127.221 297.032,128.504 301.031,128.550 300.325 C 128.667 298.525,125.540 288.864,123.367 284.312 C 119.683 276.595,115.646 274.535,108.068 276.504 M103.176 278.008 C 102.647 278.219,100.221 278.975,97.786 279.687 C 83.182 283.959,78.563 283.919,73.743 279.475 C 72.769 278.577,72.078 278.120,72.208 278.460 C 72.544 279.335,75.542 281.717,77.271 282.482 C 79.232 283.350,86.628 283.320,89.894 282.431 C 96.443 280.648,104.063 278.283,104.504 277.896 C 104.991 277.468,104.402 277.518,103.176 278.008 M324.543 277.889 C 325.866 278.723,333.663 280.229,339.750 280.827 L 341.675 281.016 339.942 280.633 C 338.989 280.423,337.084 280.094,335.707 279.903 C 333.574 279.607,330.549 279.002,325.120 277.785 C 324.328 277.607,324.147 277.640,324.543 277.889 M128.804 302.406 C 128.935 303.253,129.132 304.421,129.242 305.002 C 129.459 306.150,129.348 306.214,119.731 310.496 C 117.931 311.297,114.639 312.810,112.416 313.858 C 110.192 314.906,107.720 316.000,106.922 316.289 C 105.214 316.907,98.169 320.562,93.625 323.188 C 84.680 328.355,80.219 337.315,74.674 361.242 C 73.297 367.183,72.571 368.779,69.322 373.012 C 65.912 377.453,63.110 383.199,63.624 384.699 C 63.714 384.962,64.090 384.146,64.459 382.885 C 65.406 379.648,66.497 377.657,69.772 373.185 C 72.803 369.048,74.150 366.392,74.698 363.477 C 75.824 357.484,79.365 344.732,81.369 339.453 C 85.257 329.209,89.986 324.804,104.331 318.065 C 112.430 314.261,122.745 309.528,122.940 309.528 C 123.459 309.528,129.199 306.696,129.462 306.310 C 129.805 305.807,129.470 302.894,128.929 301.682 C 128.661 301.081,128.628 301.272,128.804 302.406 M342.445 317.682 C 359.118 321.740,369.222 326.780,375.977 334.409 C 379.943 338.889,383.879 344.642,383.344 345.177 C 383.190 345.331,381.027 344.494,378.538 343.316 C 373.157 340.768,370.742 339.911,365.351 338.636 C 357.473 336.773,353.635 336.064,343.022 334.514 C 336.541 333.567,333.505 332.887,329.028 331.382 C 325.285 330.124,325.644 331.501,331.541 341.011 C 336.768 349.442,338.958 351.006,356.304 358.696 C 373.061 366.124,380.649 371.720,386.873 381.240 C 388.226 383.309,389.415 384.919,389.517 384.818 C 390.620 383.714,379.190 370.937,373.946 367.412 C 369.656 364.528,360.436 359.577,359.356 359.577 C 359.212 359.577,358.120 359.082,356.929 358.477 C 355.738 357.873,354.331 357.248,353.802 357.089 C 353.272 356.930,351.328 356.039,349.481 355.108 C 347.633 354.178,345.927 353.417,345.690 353.417 C 343.247 353.417,332.243 343.482,332.243 341.277 C 332.243 341.112,331.839 340.441,331.345 339.786 C 330.103 338.137,326.624 331.573,326.865 331.332 C 326.973 331.224,328.498 331.644,330.254 332.265 C 332.009 332.886,336.163 333.834,339.485 334.370 C 365.400 338.555,372.199 340.282,380.589 344.814 C 384.691 347.029,385.231 346.329,382.577 342.235 C 376.735 333.224,368.791 326.425,359.473 322.462 C 353.969 320.120,343.841 317.166,341.675 317.271 C 341.251 317.291,341.598 317.476,342.445 317.682 M318.768 382.961 C 318.768 383.358,319.031 384.020,319.351 384.431 C 319.906 385.141,319.923 385.125,319.695 384.119 C 319.400 382.821,319.461 382.820,322.089 384.063 C 323.254 384.614,324.304 384.968,324.423 384.849 C 324.625 384.647,321.363 383.062,319.576 382.495 C 318.951 382.297,318.768 382.403,318.768 382.961 " stroke="none" fill="#969696" fill-rule="evenodd"></path><path id="path4" d="M156.074 37.496 C 155.961 37.791,155.927 38.700,155.999 39.517 C 156.121 40.892,156.144 40.852,156.314 38.980 C 156.500 36.916,156.440 36.542,156.074 37.496 M160.154 37.205 C 160.683 37.282,162.329 37.513,163.811 37.716 C 165.294 37.920,168.899 38.458,171.823 38.912 C 174.747 39.365,177.222 39.653,177.324 39.551 C 177.425 39.450,176.246 39.177,174.702 38.945 C 173.159 38.713,169.580 38.171,166.749 37.741 C 163.918 37.311,161.060 36.982,160.397 37.011 C 159.402 37.054,159.359 37.088,160.154 37.205 M181.328 40.415 C 184.679 41.303,191.782 42.803,191.931 42.654 C 192.120 42.465,183.835 40.557,181.521 40.258 L 179.981 40.058 181.328 40.415 M193.648 43.173 C 194.389 43.390,195.580 43.821,196.294 44.130 C 197.008 44.439,197.685 44.600,197.797 44.487 C 198.098 44.186,195.612 43.249,193.840 42.997 L 192.300 42.777 193.648 43.173 M156.378 45.895 L 156.304 48.479 154.860 48.854 C 153.640 49.171,151.487 49.617,142.830 51.347 C 142.300 51.452,142.820 51.454,143.985 51.351 C 146.827 51.098,155.864 49.103,156.345 48.621 C 156.556 48.410,156.667 47.129,156.591 45.774 L 156.452 43.311 156.378 45.895 M198.177 47.853 C 198.366 52.019,198.542 52.540,198.594 49.086 C 198.620 47.392,198.508 45.797,198.346 45.543 C 198.184 45.288,198.108 46.327,198.177 47.853 M133.397 53.305 C 131.492 53.796,130.136 54.217,130.383 54.240 C 130.915 54.291,137.559 52.744,137.793 52.515 C 138.120 52.195,136.769 52.438,133.397 53.305 M198.717 52.743 C 198.900 53.299,201.877 54.215,203.465 54.203 C 203.888 54.200,203.203 53.949,201.942 53.644 C 200.681 53.340,199.397 52.883,199.088 52.628 C 198.637 52.256,198.564 52.278,198.717 52.743 M125.923 54.968 C 124.564 55.309,123.617 55.643,123.819 55.710 C 124.020 55.777,125.478 55.498,127.059 55.090 C 128.639 54.683,129.586 54.349,129.163 54.348 C 128.739 54.348,127.281 54.626,125.923 54.968 M209.013 56.221 C 211.006 57.063,212.699 57.689,212.775 57.613 C 212.947 57.441,206.302 54.650,205.775 54.674 C 205.563 54.683,207.020 55.379,209.013 56.221 M119.065 56.695 C 117.323 57.142,115.973 57.583,116.065 57.675 C 116.253 57.863,123.195 56.205,123.195 55.972 C 123.195 55.708,122.302 55.865,119.065 56.695 M113.378 58.133 C 112.330 58.399,112.312 58.428,113.186 58.445 C 113.715 58.455,114.495 58.315,114.918 58.133 C 115.867 57.725,114.981 57.725,113.378 58.133 M216.062 59.431 C 217.687 60.357,219.242 61.206,219.518 61.317 C 220.573 61.743,227.829 68.511,229.152 70.303 C 229.915 71.338,231.236 73.051,232.086 74.110 C 232.937 75.168,234.158 76.930,234.800 78.024 C 235.442 79.118,236.154 80.129,236.383 80.271 C 237.144 80.741,234.353 76.474,231.347 72.570 C 226.707 66.545,221.795 62.103,216.714 59.337 C 212.827 57.222,212.314 57.296,216.062 59.431 M107.796 59.506 C 101.085 61.396,93.928 63.643,94.094 63.808 C 94.188 63.902,96.833 63.203,99.972 62.255 C 103.110 61.306,107.064 60.142,108.758 59.667 C 110.452 59.192,111.910 58.739,111.999 58.660 C 112.360 58.339,110.888 58.636,107.796 59.506 M88.932 65.264 C 86.920 65.971,85.462 66.562,85.691 66.576 C 86.188 66.608,93.210 64.377,93.487 64.100 C 93.930 63.657,92.369 64.056,88.932 65.264 M79.885 68.726 C 78.402 69.435,77.308 70.027,77.453 70.041 C 77.827 70.078,82.505 68.078,82.945 67.693 C 83.651 67.074,82.582 67.436,79.885 68.726 M74.419 71.562 C 70.686 73.975,69.857 75.116,69.353 78.537 C 69.108 80.205,69.041 80.278,67.562 80.504 L 66.025 80.738 67.422 80.792 C 69.050 80.856,69.727 80.218,69.919 78.436 C 70.263 75.255,71.246 73.890,74.709 71.786 C 76.709 70.572,77.341 70.067,76.864 70.067 C 76.791 70.067,75.691 70.740,74.419 71.562 M62.945 81.232 C 61.915 81.494,61.894 81.526,62.753 81.526 C 63.282 81.526,64.235 81.394,64.870 81.232 C 65.900 80.970,65.921 80.938,65.063 80.938 C 64.533 80.938,63.580 81.070,62.945 81.232 M236.766 80.920 C 236.766 81.045,237.469 82.422,238.327 83.980 C 239.186 85.539,240.684 88.420,241.656 90.383 C 242.628 92.346,243.504 93.871,243.603 93.772 C 243.702 93.673,242.358 90.855,240.616 87.508 C 237.713 81.931,236.766 80.311,236.766 80.920 M59.865 82.002 C 59.380 82.210,59.309 82.333,59.673 82.333 C 59.990 82.333,60.597 82.184,61.020 82.002 C 61.506 81.793,61.577 81.671,61.213 81.671 C 60.895 81.671,60.289 81.820,59.865 82.002 M55.919 83.536 C 54.596 84.148,53.513 84.742,53.513 84.855 C 53.513 85.098,58.162 83.170,58.691 82.707 C 59.382 82.102,58.350 82.411,55.919 83.536 M51.299 86.275 C 50.399 86.912,49.663 87.521,49.663 87.627 C 49.663 87.941,51.972 86.488,52.636 85.756 C 53.485 84.820,53.195 84.932,51.299 86.275 M47.102 89.494 C 46.075 90.438,45.409 91.217,45.621 91.223 C 45.833 91.230,46.770 90.457,47.704 89.506 C 49.891 87.279,49.516 87.272,47.102 89.494 M191.205 91.530 C 190.896 92.031,189.702 98.973,189.892 99.164 C 189.992 99.264,190.288 98.258,190.549 96.930 C 191.263 93.306,191.480 93.112,191.739 95.861 C 191.972 98.329,191.976 98.315,192.041 94.803 C 192.100 91.667,191.813 90.545,191.205 91.530 M43.173 93.831 C 42.110 95.044,41.305 96.101,41.385 96.182 C 41.527 96.324,43.230 94.492,44.735 92.579 C 46.134 90.800,45.116 91.617,43.173 93.831 M243.696 94.423 C 243.696 94.479,244.025 95.389,244.426 96.444 C 246.158 100.994,248.371 106.875,248.538 107.370 C 248.637 107.665,248.799 107.826,248.898 107.727 C 248.996 107.629,248.287 105.482,247.321 102.956 C 246.355 100.430,245.219 97.454,244.795 96.343 C 244.164 94.686,243.696 93.868,243.696 94.423 M39.914 97.923 C 38.053 100.364,32.971 109.327,33.276 109.632 C 33.367 109.723,33.907 108.871,34.476 107.738 C 35.807 105.089,37.847 101.643,39.743 98.845 C 41.381 96.427,41.486 95.863,39.914 97.923 M191.136 102.974 C 190.984 105.010,190.942 106.759,191.045 106.861 C 191.147 106.964,191.353 105.379,191.503 103.341 C 191.652 101.303,191.694 99.554,191.594 99.454 C 191.495 99.355,191.289 100.939,191.136 102.974 M189.252 102.053 C 189.108 103.144,189.067 104.113,189.162 104.208 C 189.256 104.303,189.456 103.492,189.605 102.406 C 189.755 101.320,189.796 100.351,189.696 100.251 C 189.597 100.152,189.397 100.963,189.252 102.053 M188.056 109.070 L 187.295 112.993 184.986 112.923 L 182.676 112.852 184.947 113.238 C 186.656 113.528,187.289 113.508,187.505 113.158 C 187.878 112.555,189.201 105.531,188.983 105.313 C 188.892 105.222,188.475 106.912,188.056 109.070 M189.994 113.282 C 189.012 121.378,188.913 123.499,189.769 118.107 C 190.534 113.288,191.139 107.411,190.869 107.411 C 190.780 107.411,190.386 110.053,189.994 113.282 M156.960 110.374 C 156.859 110.544,156.651 112.156,156.497 113.956 C 156.221 117.191,156.496 117.882,157.079 115.419 C 157.524 113.540,157.518 122.595,157.071 127.045 C 156.442 133.306,156.275 136.405,156.676 134.360 C 158.261 126.279,158.480 107.825,156.960 110.374 M249.893 110.647 C 249.849 111.053,251.706 117.637,252.183 118.768 C 252.403 119.290,252.436 119.105,252.285 118.191 C 252.036 116.679,249.951 110.104,249.893 110.647 M31.838 112.110 C 30.623 114.978,29.708 117.508,29.993 117.211 C 30.451 116.735,32.382 111.946,32.193 111.757 C 32.114 111.678,31.954 111.837,31.838 112.110 M173.160 112.315 C 174.279 112.393,176.011 112.392,177.010 112.313 C 178.009 112.234,177.093 112.170,174.976 112.171 C 172.859 112.172,172.041 112.237,173.160 112.315 M168.917 112.688 C 169.396 112.780,170.089 112.777,170.457 112.680 C 170.825 112.584,170.433 112.509,169.586 112.513 C 168.739 112.517,168.438 112.596,168.917 112.688 M179.692 112.687 C 180.168 112.779,180.948 112.779,181.424 112.687 C 181.901 112.596,181.511 112.521,180.558 112.521 C 179.605 112.521,179.216 112.596,179.692 112.687 M162.514 113.390 C 160.104 113.977,159.291 114.573,160.157 115.121 C 161.018 115.665,161.464 115.569,160.951 114.951 C 160.592 114.518,160.642 114.368,161.192 114.222 C 163.337 113.654,165.491 113.182,166.506 113.058 C 167.365 112.953,167.266 112.912,166.121 112.901 C 165.274 112.893,163.651 113.113,162.514 113.390 M167.583 115.012 C 169.233 115.085,171.832 115.084,173.357 115.011 C 174.883 114.938,173.532 114.879,170.356 114.880 C 167.180 114.880,165.932 114.940,167.583 115.012 M183.562 115.492 C 186.495 115.825,186.633 115.947,186.818 118.383 L 186.964 120.308 187.034 118.132 C 187.114 115.617,186.341 115.061,182.907 115.163 C 181.271 115.212,181.321 115.237,183.562 115.492 M156.042 120.115 C 156.042 121.492,156.112 122.055,156.198 121.367 C 156.283 120.679,156.283 119.552,156.198 118.864 C 156.112 118.176,156.042 118.739,156.042 120.115 M27.398 123.067 C 26.711 124.885,26.217 126.442,26.301 126.526 C 26.386 126.610,27.016 125.191,27.703 123.372 C 28.389 121.553,28.883 119.996,28.800 119.913 C 28.716 119.830,28.086 121.249,27.398 123.067 M252.579 120.040 C 252.544 120.653,254.802 129.425,255.061 129.684 C 255.162 129.785,255.243 129.710,255.239 129.516 C 255.228 128.866,252.607 119.531,252.579 120.040 M186.448 122.425 C 186.448 123.590,186.521 124.066,186.609 123.484 C 186.697 122.902,186.697 121.949,186.609 121.367 C 186.521 120.784,186.448 121.261,186.448 122.425 M188.436 124.913 C 188.287 126.105,188.248 127.164,188.350 127.265 C 188.451 127.367,188.650 126.468,188.791 125.268 C 188.932 124.068,188.971 123.010,188.877 122.916 C 188.783 122.822,188.585 123.721,188.436 124.913 M155.369 126.880 C 155.220 128.919,155.178 130.668,155.278 130.767 C 155.377 130.866,155.583 129.282,155.736 127.247 C 155.888 125.211,155.930 123.462,155.827 123.360 C 155.725 123.258,155.519 124.842,155.369 126.880 M25.092 130.220 C 24.631 132.058,24.265 133.872,24.278 134.250 C 24.292 134.628,24.728 133.299,25.247 131.297 C 25.766 129.295,26.132 127.481,26.060 127.267 C 25.989 127.053,25.553 128.382,25.092 130.220 M186.114 130.287 C 186.154 135.401,187.452 134.904,188.044 129.548 C 188.304 127.197,188.070 127.639,187.485 130.606 C 186.880 133.672,186.391 133.373,186.226 129.836 C 186.091 126.940,186.087 126.953,186.114 130.287 M255.329 130.895 C 255.325 131.424,255.461 132.291,255.630 132.820 C 256.045 134.114,256.045 132.716,255.630 131.088 C 255.366 130.050,255.336 130.031,255.329 130.895 M154.446 135.515 C 154.169 137.950,153.781 140.774,153.583 141.790 C 153.386 142.806,153.246 144.105,153.272 144.677 C 153.333 145.981,153.711 143.893,154.566 137.530 C 154.915 134.933,155.144 132.421,155.075 131.948 C 155.006 131.475,154.723 133.080,154.446 135.515 M256.048 134.395 C 256.009 135.128,257.534 142.551,257.773 142.791 C 258.101 143.119,257.896 141.809,256.995 137.825 C 256.493 135.602,256.067 134.058,256.048 134.395 M23.694 136.983 C 23.535 138.108,23.496 139.120,23.608 139.232 C 23.883 139.507,24.380 136.079,24.158 135.443 C 24.061 135.165,23.852 135.858,23.694 136.983 M155.727 139.365 C 155.579 140.240,155.544 141.043,155.650 141.149 C 155.756 141.255,155.964 140.625,156.112 139.750 C 156.260 138.874,156.294 138.071,156.188 137.965 C 156.082 137.860,155.875 138.489,155.727 139.365 M154.957 144.370 C 154.807 145.455,154.772 146.430,154.878 146.536 C 154.984 146.642,155.192 145.840,155.342 144.755 C 155.491 143.669,155.527 142.694,155.421 142.588 C 155.315 142.482,155.106 143.284,154.957 144.370 M257.979 144.209 C 258.000 144.827,258.164 145.765,258.344 146.295 C 258.565 146.944,258.599 146.630,258.449 145.332 C 258.199 143.166,257.920 142.501,257.979 144.209 M152.720 146.689 C 152.579 147.213,152.481 148.162,152.502 148.797 C 152.531 149.718,152.608 149.601,152.880 148.219 C 153.252 146.327,153.130 145.156,152.720 146.689 M153.994 149.952 C 153.721 151.549,153.584 152.942,153.690 153.048 C 153.796 153.154,154.106 151.934,154.379 150.337 C 154.652 148.740,154.789 147.346,154.683 147.240 C 154.578 147.135,154.267 148.355,153.994 149.952 M23.551 148.412 C 23.538 149.047,23.672 150.260,23.847 151.107 C 24.124 152.447,24.168 152.497,24.188 151.492 C 24.200 150.857,24.066 149.644,23.891 148.797 C 23.614 147.457,23.570 147.407,23.551 148.412 M258.787 148.412 C 258.776 149.047,258.906 150.346,259.076 151.299 C 259.303 152.577,259.389 152.729,259.404 151.877 C 259.414 151.242,259.284 149.942,259.115 148.989 C 258.888 147.712,258.802 147.560,258.787 148.412 M152.069 150.796 C 152.069 151.013,151.736 153.510,151.329 156.346 C 150.299 163.526,150.125 165.544,150.534 165.544 C 151.294 165.544,152.174 162.758,152.663 158.807 C 152.845 157.341,152.817 157.369,152.089 159.384 L 151.324 161.501 151.522 159.384 C 151.631 158.219,151.905 155.828,152.130 154.069 C 152.356 152.310,152.434 150.766,152.305 150.636 C 152.175 150.507,152.069 150.579,152.069 150.796 M32.730 152.551 C 32.734 153.167,32.829 153.270,33.059 152.907 C 33.299 152.528,33.593 152.726,34.201 153.677 C 35.236 155.293,35.296 154.622,34.268 152.936 C 33.381 151.480,32.721 151.315,32.730 152.551 M24.291 153.328 C 24.253 154.036,25.721 159.824,26.013 160.116 C 26.304 160.407,26.158 159.661,25.232 156.112 C 24.734 154.206,24.311 152.953,24.291 153.328 M259.536 153.994 C 259.525 154.524,259.747 156.083,260.030 157.459 C 260.312 158.835,260.553 159.528,260.566 158.999 C 260.578 158.470,260.356 156.910,260.072 155.534 C 259.788 154.158,259.547 153.465,259.536 153.994 M153.053 154.695 C 152.895 155.399,152.861 156.069,152.976 156.185 C 153.266 156.474,153.725 154.529,153.512 153.914 C 153.417 153.641,153.211 153.992,153.053 154.695 M32.762 155.951 C 32.783 156.675,32.945 157.700,33.122 158.229 C 33.329 158.850,33.365 158.441,33.224 157.074 C 32.973 154.652,32.705 154.001,32.762 155.951 M35.034 155.391 C 35.034 156.092,40.824 166.042,41.081 165.784 C 41.167 165.698,40.646 164.699,39.923 163.565 C 39.201 162.430,37.866 160.072,36.957 158.325 C 35.419 155.369,35.034 154.781,35.034 155.391 M181.719 155.907 C 180.370 156.760,181.076 159.354,183.219 161.420 C 184.312 162.473,185.290 163.250,185.394 163.146 C 185.498 163.043,184.812 162.326,183.870 161.554 C 180.842 159.073,180.536 154.742,183.506 156.414 C 189.750 159.929,195.189 167.611,196.920 175.361 C 197.204 176.631,197.450 177.213,197.467 176.653 C 197.634 171.090,191.150 161.049,184.631 156.776 C 182.530 155.399,182.525 155.398,181.719 155.907 M144.334 158.098 C 143.662 158.278,140.031 162.218,137.685 165.314 C 136.067 167.450,134.056 171.240,132.829 174.468 C 131.755 177.293,131.859 177.713,133.016 175.226 C 133.544 174.094,133.975 172.961,133.975 172.708 C 133.975 171.349,139.818 162.789,140.369 163.340 C 140.472 163.443,140.332 163.772,140.057 164.071 C 139.511 164.666,137.802 167.854,138.030 167.854 C 138.107 167.854,139.068 166.511,140.166 164.870 C 141.263 163.229,142.832 161.154,143.650 160.259 C 144.828 158.972,145.622 157.620,145.043 157.889 C 144.990 157.913,144.671 158.007,144.334 158.098 M33.549 160.154 C 33.553 161.216,34.554 164.544,34.591 163.619 C 34.604 163.301,34.374 162.175,34.080 161.116 C 33.771 160.004,33.547 159.598,33.549 160.154 M260.674 161.149 C 260.695 161.766,260.859 162.705,261.039 163.234 C 261.260 163.883,261.294 163.570,261.144 162.271 C 260.894 160.106,260.615 159.441,260.674 161.149 M26.203 160.628 C 26.167 161.059,29.180 167.469,29.418 167.469 C 29.658 167.469,29.198 166.383,27.458 162.849 C 26.780 161.473,26.216 160.473,26.203 160.628 M187.335 166.070 C 188.338 167.524,189.733 169.776,190.433 171.075 C 191.133 172.374,191.709 173.225,191.714 172.967 C 191.727 172.260,188.101 166.312,186.720 164.774 C 185.907 163.869,186.109 164.295,187.335 166.070 M34.660 164.774 C 34.660 165.091,34.828 165.611,35.034 165.929 C 35.365 166.442,35.407 166.442,35.407 165.929 C 35.407 165.611,35.239 165.091,35.034 164.774 C 34.702 164.261,34.660 164.261,34.660 164.774 M261.456 165.159 C 261.388 166.376,263.773 181.014,264.002 180.784 C 264.142 180.644,263.572 176.829,261.667 165.159 L 261.510 164.196 261.456 165.159 M41.781 167.276 C 43.063 169.400,44.374 171.319,44.542 171.319 C 44.837 171.319,43.096 168.465,42.075 167.276 L 41.084 166.121 41.781 167.276 M35.446 167.350 C 35.431 167.814,35.592 168.300,35.804 168.431 C 36.259 168.713,36.259 168.336,35.804 167.276 C 35.485 166.534,35.472 166.537,35.446 167.350 M30.074 168.720 C 31.858 172.100,41.136 182.079,41.494 181.004 C 41.660 180.507,39.244 175.449,38.972 175.722 C 38.871 175.823,39.123 176.476,39.532 177.173 C 40.600 178.995,40.851 179.788,40.359 179.788 C 39.616 179.788,33.455 173.154,31.690 170.452 C 30.037 167.923,29.153 166.976,30.074 168.720 M135.885 171.496 C 134.999 173.327,134.375 174.927,134.499 175.050 C 134.622 175.174,134.881 174.861,135.074 174.356 C 135.267 173.850,135.964 172.324,136.624 170.964 C 137.283 169.605,137.749 168.419,137.659 168.330 C 137.570 168.240,136.771 169.665,135.885 171.496 M36.189 169.282 C 36.189 169.502,36.593 170.614,37.088 171.752 C 37.583 172.890,38.106 174.149,38.252 174.550 C 38.398 174.951,38.594 175.201,38.689 175.107 C 38.853 174.943,36.733 169.424,36.364 169.056 C 36.268 168.959,36.189 169.061,36.189 169.282 M45.356 173.051 C 45.786 173.898,46.427 174.937,46.781 175.361 C 47.134 175.784,46.951 175.265,46.375 174.206 C 45.088 171.845,44.275 170.922,45.356 173.051 M191.958 174.591 C 192.274 176.007,192.495 176.314,192.487 175.329 C 192.484 174.923,192.305 174.331,192.090 174.013 C 191.805 173.592,191.769 173.747,191.958 174.591 M133.205 178.441 C 132.708 180.026,132.387 181.408,132.492 181.513 C 132.596 181.618,133.082 180.400,133.571 178.807 C 134.060 177.213,134.381 175.831,134.284 175.734 C 134.188 175.638,133.702 176.856,133.205 178.441 M50.302 181.181 C 51.962 183.959,53.377 186.183,53.445 186.125 C 53.637 185.962,52.639 184.159,50.256 180.366 C 46.901 175.025,46.930 175.539,50.302 181.181 M192.642 182.483 C 192.638 187.807,192.680 188.276,192.897 185.381 C 193.040 183.482,193.042 180.623,192.901 179.029 C 192.710 176.855,192.645 177.718,192.642 182.483 M197.638 181.906 C 197.639 184.023,197.704 184.840,197.782 183.721 C 197.860 182.603,197.859 180.870,197.780 179.872 C 197.701 178.873,197.637 179.788,197.638 181.906 M130.152 182.007 C 129.714 183.479,129.367 184.925,129.381 185.220 C 129.396 185.514,129.819 184.374,130.322 182.686 C 130.825 180.997,131.172 179.551,131.093 179.473 C 131.014 179.394,130.591 180.534,130.152 182.007 M264.189 182.483 C 264.189 183.224,264.269 183.527,264.365 183.157 C 264.462 182.786,264.462 182.180,264.365 181.809 C 264.269 181.439,264.189 181.742,264.189 182.483 M131.858 182.868 C 131.713 183.324,131.681 183.783,131.787 183.889 C 131.893 183.995,132.098 183.709,132.243 183.253 C 132.387 182.798,132.419 182.339,132.313 182.233 C 132.207 182.127,132.002 182.413,131.858 182.868 M131.120 186.750 C 130.975 187.841,130.934 188.810,131.029 188.905 C 131.124 189.000,131.323 188.189,131.473 187.103 C 131.622 186.017,131.663 185.047,131.563 184.948 C 131.464 184.849,131.264 185.660,131.120 186.750 M197.026 188.065 C 196.878 189.336,196.321 192.021,195.788 194.033 C 194.406 199.244,194.285 200.043,195.376 196.739 C 196.574 193.113,197.588 188.195,197.421 186.814 C 197.344 186.177,197.187 186.675,197.026 188.065 M264.927 186.718 C 264.914 187.916,267.083 198.750,267.123 197.690 C 267.139 197.267,266.654 194.408,266.044 191.338 C 265.435 188.268,264.932 186.189,264.927 186.718 M128.826 187.921 C 128.503 189.537,128.560 195.008,128.919 196.920 C 129.101 197.883,129.201 196.259,129.186 192.590 C 129.160 186.126,129.167 186.214,128.826 187.921 M54.528 189.877 C 54.691 191.109,54.560 192.323,54.119 193.673 C 53.762 194.764,53.554 195.742,53.658 195.846 C 54.414 196.602,55.375 189.732,54.665 188.643 C 54.406 188.247,54.363 188.634,54.528 189.877 M130.586 194.470 C 130.527 198.517,130.646 200.016,131.106 201.015 C 131.691 202.287,131.697 202.289,131.436 201.155 C 131.290 200.520,131.056 197.575,130.916 194.610 L 130.661 189.220 130.586 194.470 M192.155 190.375 C 192.123 190.799,192.008 191.578,191.899 192.108 L 191.701 193.070 192.113 192.126 C 192.340 191.606,192.455 190.827,192.369 190.393 C 192.217 189.626,192.211 189.625,192.155 190.375 M191.035 195.013 C 186.694 211.950,167.968 222.988,151.123 218.539 C 149.862 218.206,148.762 218.001,148.678 218.085 C 148.085 218.678,155.527 219.796,160.189 219.814 C 170.550 219.854,182.250 213.022,187.666 203.771 C 189.481 200.669,191.834 194.704,191.640 193.694 C 191.577 193.367,191.305 193.960,191.035 195.013 M51.666 200.393 C 51.205 201.342,50.909 202.117,51.008 202.117 C 51.269 202.117,52.824 198.990,52.650 198.816 C 52.569 198.735,52.126 199.445,51.666 200.393 M129.394 199.700 C 129.287 203.127,136.706 214.437,139.062 214.437 C 140.311 214.437,139.781 213.221,137.445 210.724 C 136.178 209.369,134.425 206.956,133.550 205.363 C 132.675 203.769,131.885 202.540,131.793 202.631 C 131.355 203.069,135.222 209.192,137.132 211.086 C 138.215 212.158,139.111 213.664,138.832 213.943 C 138.510 214.265,134.875 210.374,134.080 208.855 C 133.748 208.219,133.082 207.180,132.601 206.545 C 131.657 205.299,130.287 202.067,129.760 199.841 L 129.432 198.460 129.394 199.700 M267.449 200.000 C 267.735 201.958,269.327 206.894,270.102 208.224 C 270.427 208.782,270.571 208.893,270.421 208.470 C 269.950 207.137,268.035 201.215,267.620 199.808 L 267.224 198.460 267.449 200.000 M193.272 202.283 C 191.403 207.898,185.881 214.445,180.262 217.707 C 178.511 218.723,177.163 219.640,177.267 219.744 C 177.755 220.232,184.325 215.532,186.888 212.860 C 190.560 209.031,195.227 200.873,194.284 199.930 C 194.189 199.836,193.734 200.894,193.272 202.283 M49.564 204.305 C 49.467 204.478,48.914 205.443,48.334 206.449 C 47.754 207.454,47.368 208.277,47.476 208.277 C 47.788 208.277,50.112 204.363,49.916 204.167 C 49.820 204.070,49.661 204.133,49.564 204.305 M46.093 210.298 C 44.678 212.738,43.747 214.681,44.202 214.244 C 44.706 213.761,47.463 208.662,47.221 208.662 C 47.122 208.662,46.614 209.398,46.093 210.298 M270.649 209.548 C 270.597 213.046,280.980 222.927,288.805 226.826 C 295.570 230.196,310.044 231.952,315.111 230.017 C 315.628 229.819,315.754 229.851,315.496 230.112 C 315.284 230.326,313.854 230.986,312.317 231.578 C 310.781 232.170,309.597 232.728,309.687 232.818 C 309.898 233.030,316.917 230.251,317.421 229.755 C 317.673 229.507,317.144 229.454,315.881 229.601 C 295.361 231.990,279.924 225.448,271.556 210.816 C 271.060 209.949,270.652 209.378,270.649 209.548 M42.760 216.397 C 41.629 218.739,41.804 219.240,42.970 216.998 C 43.504 215.971,43.855 215.045,43.749 214.940 C 43.644 214.834,43.199 215.490,42.760 216.397 M146.367 218.191 C 146.617 219.494,153.671 222.565,156.248 222.493 C 156.808 222.478,156.054 222.160,154.572 221.786 C 151.388 220.984,149.394 220.167,147.733 218.984 L 146.520 218.121 147.466 217.857 C 148.394 217.599,148.391 217.593,147.325 217.555 C 146.487 217.526,146.268 217.671,146.367 218.191 M41.676 220.404 C 41.680 221.251,41.759 221.552,41.851 221.073 C 41.943 220.595,41.939 219.902,41.843 219.534 C 41.747 219.165,41.671 219.557,41.676 220.404 M170.356 221.604 C 168.187 222.180,167.539 222.448,168.624 222.321 C 170.369 222.115,175.473 220.660,174.398 220.675 C 174.081 220.679,172.262 221.097,170.356 221.604 M207.969 221.059 C 207.715 221.313,207.524 221.962,207.546 222.502 L 207.584 223.484 207.851 222.524 C 208.278 220.991,209.423 221.038,209.477 222.590 C 209.502 223.299,209.603 223.555,209.703 223.165 C 210.173 221.346,209.048 219.980,207.969 221.059 M42.346 222.759 C 42.990 223.791,46.459 225.976,50.433 227.854 C 57.406 231.149,58.570 233.375,57.207 240.808 C 57.056 241.636,57.148 241.527,57.535 240.423 C 59.751 234.090,57.851 231.070,48.861 226.640 C 46.831 225.640,44.428 224.186,43.520 223.409 C 42.612 222.632,42.083 222.339,42.346 222.759 M159.673 222.807 C 160.996 222.882,163.162 222.882,164.485 222.807 C 165.808 222.732,164.726 222.670,162.079 222.670 C 159.432 222.670,158.349 222.732,159.673 222.807 M210.052 225.024 C 210.369 226.440,210.589 226.747,210.581 225.762 C 210.578 225.356,210.399 224.764,210.185 224.447 C 209.899 224.025,209.863 224.181,210.052 225.024 M206.999 226.183 C 206.860 227.028,206.766 228.325,206.790 229.066 C 206.818 229.911,206.958 229.480,207.164 227.911 C 207.530 225.135,207.399 223.763,206.999 226.183 M210.587 227.066 C 210.587 227.546,212.451 232.769,212.483 232.380 C 212.527 231.861,210.965 226.756,210.763 226.756 C 210.666 226.756,210.587 226.896,210.587 227.066 M305.679 233.301 L 303.946 233.571 305.486 233.590 C 306.333 233.601,307.459 233.471,307.988 233.301 C 309.204 232.912,308.183 232.912,305.679 233.301 M206.759 235.451 C 206.772 236.492,206.929 238.037,207.109 238.884 C 207.337 239.958,207.372 239.435,207.226 237.151 C 206.993 233.507,206.725 232.532,206.759 235.451 M285.494 234.331 C 285.086 235.394,288.796 238.864,294.894 243.124 C 297.778 245.139,306.335 250.839,307.988 251.847 C 308.730 252.299,310.202 253.223,311.261 253.900 C 316.086 256.987,319.960 259.187,320.181 258.966 C 320.273 258.874,319.169 258.143,317.729 257.341 C 304.681 250.077,284.619 235.756,285.813 234.558 C 285.975 234.396,290.034 234.171,294.834 234.057 L 303.561 233.850 294.651 233.768 C 286.626 233.694,285.717 233.750,285.494 234.331 M213.282 234.864 C 213.282 234.962,213.886 236.426,214.625 238.118 C 215.363 239.809,215.970 240.988,215.972 240.738 C 215.978 240.186,214.052 235.567,213.602 235.053 C 213.426 234.852,213.282 234.767,213.282 234.864 M217.344 243.888 C 220.207 249.136,227.134 260.001,227.428 259.707 C 227.533 259.602,227.015 258.685,226.278 257.670 C 224.820 255.662,221.563 250.407,218.571 245.236 C 216.231 241.193,215.338 240.212,217.344 243.888 M207.542 242.837 C 207.504 243.784,208.960 249.526,209.320 249.850 C 209.441 249.959,209.407 249.528,209.245 248.893 C 209.082 248.258,208.640 246.439,208.263 244.851 C 207.886 243.263,207.561 242.356,207.542 242.837 M57.056 243.359 C 57.313 244.143,59.573 245.564,61.370 246.072 C 63.960 246.803,64.261 247.295,63.222 249.100 C 62.129 251.000,62.384 251.120,63.540 249.250 C 64.565 247.592,64.139 246.012,62.665 245.997 C 61.469 245.986,58.770 244.718,57.734 243.682 C 57.265 243.213,56.960 243.068,57.056 243.359 M209.444 250.626 C 209.444 250.943,209.612 251.463,209.817 251.781 C 210.149 252.294,210.190 252.294,210.190 251.781 C 210.190 251.463,210.022 250.943,209.817 250.626 C 209.485 250.112,209.444 250.112,209.444 250.626 M61.799 252.126 C 61.461 253.666,62.307 255.320,65.038 258.456 C 66.299 259.904,67.587 261.810,67.899 262.691 C 68.211 263.572,68.477 264.033,68.489 263.715 C 68.535 262.506,66.973 259.843,64.890 257.577 C 62.456 254.930,61.842 253.683,62.190 252.099 C 62.321 251.500,62.342 251.011,62.236 251.011 C 62.130 251.011,61.934 251.512,61.799 252.126 M210.202 252.869 C 210.202 253.044,210.650 254.300,211.198 255.660 C 212.170 258.072,212.897 259.278,212.897 258.479 C 212.897 258.268,212.743 257.930,212.555 257.729 C 212.366 257.527,211.823 256.280,211.348 254.957 C 210.544 252.718,210.202 252.095,210.202 252.869 M320.885 259.385 C 321.097 259.610,322.483 260.444,323.965 261.239 C 325.448 262.033,326.487 262.505,326.275 262.288 C 325.751 261.751,320.401 258.869,320.885 259.385 M229.136 262.727 C 230.020 264.113,230.809 265.181,230.889 265.101 C 231.078 264.912,228.429 260.762,227.917 260.446 C 227.704 260.314,228.252 261.341,229.136 262.727 M213.672 260.747 C 213.664 261.261,215.249 264.186,215.435 264.000 C 215.531 263.904,215.175 263.064,214.643 262.134 C 214.111 261.204,213.674 260.580,213.672 260.747 M327.045 262.883 C 327.934 263.809,349.494 274.311,349.826 273.979 C 349.908 273.897,349.061 273.439,347.942 272.962 C 346.824 272.486,341.578 269.932,336.285 267.288 C 330.991 264.645,326.833 262.662,327.045 262.883 M68.539 264.870 C 68.539 265.188,68.707 265.707,68.912 266.025 C 69.244 266.538,69.286 266.538,69.286 266.025 C 69.286 265.707,69.118 265.188,68.912 264.870 C 68.581 264.357,68.539 264.357,68.539 264.870 M216.724 266.334 C 217.172 267.205,220.894 272.617,222.866 275.265 C 224.152 276.992,224.706 277.575,225.064 277.575 C 225.222 277.575,224.955 277.153,224.471 276.638 C 223.566 275.675,222.432 274.112,219.004 269.105 C 216.862 265.977,216.002 264.931,216.724 266.334 M232.998 268.624 C 234.130 270.265,235.415 272.127,235.854 272.762 C 236.292 273.397,237.312 274.913,238.120 276.131 C 238.928 277.348,239.661 278.345,239.749 278.345 C 239.984 278.345,238.388 275.792,236.501 273.147 C 235.594 271.877,234.113 269.669,233.210 268.242 C 232.307 266.815,231.427 265.645,231.255 265.643 C 231.082 265.642,231.867 266.983,232.998 268.624 M69.333 267.290 C 69.285 268.220,70.941 274.763,71.102 274.279 C 71.172 274.068,70.811 272.255,70.299 270.249 C 69.788 268.243,69.353 266.912,69.333 267.290 M304.303 271.461 C 303.962 272.011,305.676 273.542,309.913 276.474 C 313.629 279.046,313.114 278.462,308.836 275.255 C 306.695 273.649,305.485 272.480,305.484 272.014 C 305.482 271.149,304.717 270.791,304.303 271.461 M309.872 273.163 C 312.073 273.905,313.964 274.422,314.075 274.311 C 314.186 274.200,314.203 274.110,314.113 274.110 C 314.023 274.110,312.422 273.590,310.554 272.955 C 308.686 272.320,306.869 271.803,306.515 271.806 C 306.161 271.810,307.672 272.420,309.872 273.163 M315.111 274.880 C 316.262 275.374,317.223 275.374,316.458 274.880 C 316.141 274.674,315.534 274.516,315.111 274.528 L 314.341 274.549 315.111 274.880 M71.240 274.991 C 70.948 279.955,80.763 284.036,88.162 282.027 C 89.326 281.711,89.673 281.539,88.932 281.646 C 79.611 282.992,74.808 281.500,72.174 276.444 C 71.670 275.478,71.250 274.824,71.240 274.991 M352.262 275.068 C 352.262 275.333,357.280 277.580,357.801 277.549 C 358.036 277.534,357.796 277.328,357.267 277.090 C 356.737 276.851,355.449 276.257,354.403 275.768 C 352.362 274.814,352.262 274.781,352.262 275.068 M108.951 275.687 C 105.561 276.573,104.654 276.871,104.822 277.039 C 104.921 277.138,106.277 276.866,107.835 276.435 C 116.246 274.104,120.547 276.775,124.789 286.960 C 125.594 288.892,126.257 290.269,126.263 290.021 C 126.281 289.339,123.789 283.581,122.592 281.538 C 119.516 276.290,114.640 274.198,108.951 275.687 M317.260 275.417 C 317.576 275.716,323.811 277.280,323.987 277.103 C 324.086 277.005,322.736 276.548,320.986 276.089 C 317.895 275.278,316.930 275.104,317.260 275.417 M325.120 277.575 C 326.271 278.069,327.233 278.069,326.468 277.575 C 326.150 277.369,325.544 277.211,325.120 277.223 L 324.350 277.244 325.120 277.575 M358.633 277.908 C 359.292 278.508,364.565 280.340,365.060 280.140 C 365.373 280.014,365.325 279.935,364.923 279.915 C 364.582 279.898,363.042 279.365,361.501 278.730 C 358.547 277.511,358.038 277.365,358.633 277.908 M100.096 278.355 C 99.567 278.538,97.836 279.074,96.250 279.545 C 94.665 280.015,93.538 280.457,93.748 280.526 C 93.958 280.595,96.035 280.055,98.364 279.328 C 100.693 278.600,102.252 278.008,101.829 278.012 C 101.405 278.017,100.626 278.171,100.096 278.355 M225.559 278.574 C 225.774 279.017,226.521 279.820,227.219 280.358 C 227.918 280.895,228.802 281.875,229.185 282.536 L 229.881 283.736 228.800 284.143 C 226.778 284.903,223.604 286.485,223.770 286.651 C 224.085 286.966,230.211 283.924,230.216 283.449 C 230.219 283.186,229.085 281.800,227.695 280.369 C 226.306 278.938,225.345 278.130,225.559 278.574 M328.393 278.345 C 328.922 278.514,329.702 278.653,330.125 278.653 C 330.735 278.653,330.695 278.589,329.933 278.345 C 329.403 278.175,328.624 278.036,328.200 278.036 C 327.591 278.036,327.631 278.100,328.393 278.345 M313.108 278.602 C 313.453 279.162,316.898 281.113,317.130 280.881 C 317.223 280.788,316.721 280.413,316.013 280.048 C 315.305 279.684,314.299 279.108,313.778 278.769 C 313.257 278.430,312.955 278.355,313.108 278.602 M243.916 284.747 C 248.099 291.068,248.369 291.648,247.257 291.939 C 246.750 292.071,246.798 292.126,247.449 292.159 C 248.075 292.192,248.316 291.989,248.316 291.430 C 248.316 290.665,241.487 279.997,240.442 279.130 C 240.144 278.883,241.707 281.411,243.916 284.747 M332.628 279.162 C 333.580 279.354,335.486 279.676,336.862 279.878 C 338.239 280.080,339.971 280.362,340.712 280.505 C 341.453 280.648,341.948 280.643,341.812 280.494 C 341.534 280.190,332.862 278.724,331.665 278.779 C 331.242 278.798,331.675 278.971,332.628 279.162 M91.049 281.039 C 90.068 281.461,91.080 281.461,92.397 281.039 C 93.170 280.792,93.208 280.729,92.589 280.720 C 92.166 280.714,91.473 280.857,91.049 281.039 M345.332 281.056 C 346.497 281.217,348.142 281.342,348.989 281.335 C 350.477 281.322,350.463 281.311,348.604 281.022 C 347.546 280.857,345.900 280.731,344.947 280.742 L 343.215 280.763 345.332 281.056 M317.613 281.346 C 317.613 282.052,330.600 289.169,331.783 289.111 C 331.930 289.104,330.058 288.104,327.623 286.888 C 325.188 285.673,321.939 283.863,320.404 282.867 C 318.869 281.870,317.613 281.186,317.613 281.346 M367.661 281.396 C 367.132 281.551,363.494 281.634,359.577 281.581 L 352.454 281.486 359.577 281.839 C 366.749 282.194,369.201 282.084,369.201 281.407 C 369.201 280.996,369.040 280.995,367.661 281.396 M381.512 282.805 C 378.510 285.403,376.053 287.036,372.569 288.749 C 370.716 289.660,369.268 290.475,369.352 290.559 C 369.689 290.895,377.252 286.783,379.178 285.216 C 382.946 282.151,382.843 282.195,382.576 283.740 L 382.345 285.082 382.915 283.785 C 383.932 281.471,383.446 281.131,381.512 282.805 M380.173 288.692 C 376.170 295.596,369.355 301.048,360.627 304.329 C 358.433 305.154,358.407 305.536,360.597 304.764 C 366.377 302.724,371.991 299.065,376.134 294.635 C 378.363 292.253,382.647 285.861,382.252 285.508 C 382.167 285.433,381.232 286.866,380.173 288.692 M219.731 288.378 C 218.090 289.217,216.747 289.990,216.747 290.096 C 216.747 290.268,222.868 287.322,223.260 286.962 C 223.805 286.460,222.309 287.060,219.731 288.378 M230.414 289.470 C 229.567 289.601,231.299 289.710,234.264 289.714 C 237.687 289.718,239.021 289.622,237.921 289.451 C 235.868 289.131,232.560 289.140,230.414 289.470 M223.709 290.697 C 221.050 291.383,219.941 291.819,220.856 291.819 C 221.460 291.819,227.248 290.301,227.463 290.086 C 227.798 289.751,226.648 289.938,223.709 290.697 M241.089 290.111 C 241.209 290.230,242.147 290.557,243.175 290.838 C 244.202 291.118,245.390 291.467,245.813 291.612 C 246.500 291.849,246.511 291.831,245.912 291.446 C 244.771 290.711,240.511 289.532,241.089 290.111 M212.320 292.291 C 210.414 293.356,207.685 294.906,206.256 295.735 C 202.264 298.052,203.097 299.212,207.256 297.127 C 209.091 296.208,208.900 295.833,207.001 296.626 C 205.765 297.143,205.632 297.143,205.828 296.632 C 205.950 296.314,206.176 296.054,206.330 296.054 C 206.593 296.054,215.986 290.779,216.330 290.438 C 216.878 289.894,215.326 290.611,212.320 292.291 M126.394 291.242 C 126.512 291.665,126.904 293.099,127.265 294.428 C 127.627 295.757,127.992 296.776,128.076 296.691 C 128.271 296.496,126.764 291.020,126.429 290.706 C 126.292 290.577,126.276 290.818,126.394 291.242 M337.055 291.255 C 337.690 291.546,338.556 291.779,338.980 291.772 C 339.479 291.765,339.277 291.578,338.402 291.242 C 336.638 290.562,335.565 290.573,337.055 291.255 M366.891 291.242 C 366.009 291.581,365.810 291.766,366.314 291.776 C 366.737 291.785,367.517 291.544,368.046 291.242 C 369.246 290.556,368.673 290.556,366.891 291.242 M218.479 292.204 C 217.994 292.413,217.923 292.535,218.287 292.535 C 218.604 292.535,219.211 292.386,219.634 292.204 C 220.120 291.995,220.191 291.873,219.827 291.873 C 219.509 291.873,218.903 292.022,218.479 292.204 M340.520 292.204 C 340.943 292.386,341.636 292.530,342.060 292.524 C 342.679 292.514,342.641 292.452,341.867 292.204 C 340.551 291.782,339.539 291.782,340.520 292.204 M363.426 292.204 C 362.653 292.452,362.615 292.514,363.234 292.524 C 363.657 292.530,364.350 292.386,364.774 292.204 C 365.755 291.782,364.743 291.782,363.426 292.204 M344.370 292.954 C 345.102 293.288,347.948 293.517,347.610 293.216 C 347.522 293.137,346.583 292.967,345.525 292.838 C 344.229 292.681,343.851 292.719,344.370 292.954 M358.999 292.974 L 357.844 293.268 358.999 293.275 C 359.634 293.279,360.587 293.144,361.116 292.974 L 362.079 292.666 361.116 292.673 C 360.587 292.677,359.634 292.812,358.999 292.974 M212.705 294.343 C 211.434 294.835,210.741 295.238,211.165 295.237 C 211.588 295.237,212.801 294.829,213.859 294.330 C 216.311 293.175,215.701 293.182,212.705 294.343 M351.023 293.643 C 352.142 293.721,353.875 293.720,354.873 293.641 C 355.872 293.562,354.957 293.499,352.839 293.500 C 350.722 293.501,349.905 293.565,351.023 293.643 M309.364 296.779 C 309.009 297.353,311.315 300.015,319.988 309.041 C 323.471 312.666,331.850 317.061,333.912 316.344 C 334.159 316.259,333.754 316.056,333.013 315.894 C 328.401 314.885,322.808 311.749,319.895 308.537 C 319.169 307.737,316.713 305.116,314.437 302.711 C 310.771 298.838,309.340 296.731,310.780 297.325 C 311.044 297.435,313.513 298.561,316.266 299.828 C 319.018 301.096,321.790 302.233,322.425 302.355 C 323.718 302.605,323.457 302.469,319.923 301.055 C 318.758 300.589,316.101 299.360,314.017 298.323 C 310.034 296.342,309.702 296.232,309.364 296.779 M128.435 298.556 C 128.752 299.972,128.972 300.279,128.964 299.294 C 128.961 298.888,128.783 298.296,128.568 297.979 C 128.282 297.557,128.246 297.713,128.435 298.556 M129.217 301.636 C 130.407 306.287,130.082 306.691,122.618 309.857 C 118.678 311.529,115.837 312.948,116.375 312.977 C 116.541 312.986,117.574 312.538,118.671 311.982 C 119.768 311.427,121.762 310.559,123.103 310.054 C 124.443 309.550,126.594 308.605,127.883 307.954 L 130.226 306.772 130.031 304.353 C 129.925 303.022,129.631 301.607,129.379 301.208 C 128.990 300.590,128.966 300.654,129.217 301.636 M323.773 302.760 C 323.773 303.018,328.808 304.621,329.004 304.426 C 329.101 304.328,328.082 303.877,326.738 303.424 C 324.245 302.582,323.773 302.476,323.773 302.760 M330.318 304.909 C 331.634 305.330,332.646 305.330,331.665 304.909 C 331.242 304.727,330.549 304.583,330.125 304.589 C 329.506 304.598,329.544 304.661,330.318 304.909 M333.590 305.679 C 335.219 306.093,336.616 306.093,335.322 305.679 C 334.793 305.509,333.927 305.374,333.397 305.377 C 332.533 305.384,332.553 305.415,333.590 305.679 M351.511 306.381 C 347.775 306.883,346.313 306.903,341.930 306.507 C 335.845 305.957,334.749 306.143,340.332 306.778 C 346.219 307.448,355.746 306.943,356.782 305.907 C 357.055 305.634,357.083 305.631,351.511 306.381 M112.031 314.726 C 110.231 315.657,108.875 316.428,109.019 316.439 C 109.314 316.461,115.493 313.509,115.806 313.197 C 116.364 312.638,114.983 313.198,112.031 314.726 M103.369 318.717 C 88.727 325.865,82.390 332.619,80.252 343.355 C 80.048 344.380,81.406 341.132,82.798 337.268 C 85.366 330.133,91.527 324.766,104.041 318.761 C 106.636 317.516,108.585 316.489,108.373 316.479 C 108.162 316.470,105.910 317.477,103.369 318.717 M335.322 316.843 C 335.852 317.013,336.631 317.151,337.055 317.151 C 337.665 317.151,337.624 317.087,336.862 316.843 C 336.333 316.674,335.553 316.535,335.130 316.535 C 334.520 316.535,334.560 316.599,335.322 316.843 M340.899 318.007 C 344.998 318.953,346.722 319.265,346.477 319.017 C 346.210 318.747,339.187 317.218,338.420 317.263 C 338.093 317.282,339.208 317.617,340.899 318.007 M347.642 319.538 C 348.958 319.960,349.970 319.960,348.989 319.538 C 348.566 319.356,347.873 319.212,347.449 319.218 C 346.830 319.228,346.868 319.290,347.642 319.538 M353.582 321.295 C 355.684 322.018,357.469 322.544,357.548 322.465 C 357.767 322.245,351.161 319.919,350.413 319.952 C 350.054 319.968,351.479 320.573,353.582 321.295 M359.384 323.464 C 361.449 324.553,363.426 325.368,363.426 325.129 C 363.426 324.920,358.468 322.607,358.080 322.635 C 357.950 322.644,358.537 323.017,359.384 323.464 M364.004 325.571 C 364.216 325.761,365.424 326.604,366.690 327.443 C 372.449 331.265,379.650 338.663,381.947 343.118 C 382.845 344.861,382.691 344.880,379.981 343.363 C 377.631 342.047,373.047 340.203,372.784 340.466 C 372.691 340.559,373.276 340.850,374.084 341.112 C 374.892 341.375,377.066 342.345,378.914 343.268 C 384.536 346.076,384.413 345.385,377.752 336.698 C 376.113 334.561,370.561 329.576,367.516 327.507 C 365.805 326.345,363.373 325.004,364.004 325.571 M325.476 330.447 C 325.234 331.079,329.860 339.942,330.432 339.942 C 330.610 339.942,330.420 339.466,330.011 338.884 C 328.822 337.191,326.083 331.668,326.083 330.962 C 326.083 330.123,326.255 330.141,329.163 331.280 C 330.513 331.809,331.889 332.234,332.219 332.222 C 332.943 332.198,328.255 330.329,326.761 330.046 C 326.027 329.907,325.637 330.029,325.476 330.447 M333.590 332.610 C 334.329 332.944,336.391 333.163,336.060 332.871 C 335.972 332.793,335.207 332.624,334.360 332.495 C 333.287 332.332,333.053 332.366,333.590 332.610 M338.595 333.613 C 339.865 333.899,341.424 334.122,342.060 334.108 C 342.695 334.093,342.002 333.851,340.520 333.570 C 337.019 332.907,335.605 332.938,338.595 333.613 M344.370 334.552 C 345.005 334.714,346.044 334.846,346.679 334.846 L 347.834 334.846 346.679 334.552 C 346.044 334.391,345.005 334.259,344.370 334.259 L 343.215 334.259 344.370 334.552 M349.759 335.322 C 350.395 335.484,351.434 335.617,352.069 335.618 C 353.040 335.619,352.979 335.568,351.684 335.300 C 349.734 334.897,348.158 334.915,349.759 335.322 M356.689 336.503 C 361.448 337.540,363.446 337.769,360.076 336.892 C 358.551 336.495,356.385 336.075,355.264 335.959 C 353.818 335.810,354.232 335.968,356.689 336.503 M363.619 338.017 C 364.042 338.199,364.649 338.348,364.966 338.348 C 365.330 338.348,365.259 338.226,364.774 338.017 C 364.350 337.835,363.744 337.686,363.426 337.686 C 363.062 337.686,363.134 337.809,363.619 338.017 M366.699 338.677 C 367.122 338.779,368.485 339.201,369.727 339.614 C 370.970 340.028,372.069 340.283,372.171 340.181 C 372.411 339.941,367.390 338.389,366.562 338.447 C 366.110 338.479,366.150 338.545,366.699 338.677 M330.711 340.528 C 330.671 342.418,337.450 349.807,341.612 352.410 C 343.797 353.777,342.946 352.742,340.611 351.193 C 337.493 349.125,334.632 346.190,332.461 342.830 C 331.503 341.347,330.715 340.312,330.711 340.528 M79.156 346.710 C 78.165 349.852,77.343 353.121,77.503 353.281 C 77.580 353.358,78.195 351.490,78.869 349.129 C 80.137 344.689,80.345 342.938,79.156 346.710 M343.600 353.353 C 344.131 353.883,354.223 358.514,354.418 358.318 C 354.560 358.176,351.342 356.619,345.332 353.921 C 344.167 353.398,343.388 353.143,343.600 353.353 M75.871 358.997 C 75.185 361.858,74.685 364.382,74.759 364.605 C 74.833 364.828,75.460 362.552,76.152 359.548 C 76.844 356.545,77.345 354.021,77.264 353.940 C 77.184 353.860,76.557 356.135,75.871 358.997 M355.168 358.741 C 355.850 359.338,362.275 362.012,362.495 361.791 C 362.616 361.670,362.315 361.445,361.826 361.290 C 361.337 361.135,359.677 360.426,358.138 359.715 C 355.338 358.421,354.481 358.141,355.168 358.741 M363.041 362.044 C 363.041 362.320,367.392 364.593,367.573 364.413 C 367.665 364.321,366.682 363.713,365.390 363.061 C 364.098 362.409,363.041 361.951,363.041 362.044 M369.586 365.542 C 369.586 365.638,371.189 366.794,373.147 368.110 C 377.804 371.240,383.414 376.914,386.318 381.432 C 387.569 383.378,388.666 384.898,388.754 384.810 C 389.262 384.302,383.287 376.493,379.822 373.137 C 376.676 370.090,369.586 364.829,369.586 365.542 M72.561 369.511 C 71.933 370.505,70.626 372.358,69.657 373.628 C 68.687 374.899,67.419 376.805,66.839 377.863 C 65.555 380.206,65.588 380.162,72.222 370.640 C 73.220 369.208,73.961 367.962,73.869 367.870 C 73.777 367.778,73.189 368.516,72.561 369.511 M65.255 380.751 C 65.111 381.206,65.079 381.665,65.185 381.771 C 65.291 381.877,65.496 381.591,65.640 381.136 C 65.785 380.680,65.816 380.221,65.710 380.115 C 65.604 380.009,65.400 380.295,65.255 380.751 M318.223 382.153 C 318.089 382.501,318.071 382.877,318.182 382.987 C 318.292 383.098,318.383 382.987,318.383 382.740 C 318.383 382.126,319.906 382.198,321.078 382.868 C 321.607 383.171,322.214 383.417,322.425 383.415 C 322.939 383.410,319.470 381.560,318.905 381.538 C 318.663 381.529,318.356 381.805,318.223 382.153 M64.485 383.446 C 64.339 384.111,64.300 384.736,64.398 384.834 C 64.496 384.932,64.687 384.459,64.822 383.782 C 65.143 382.178,64.832 381.867,64.485 383.446 M324.290 384.260 C 325.104 384.690,325.859 384.952,325.968 384.843 C 326.156 384.656,323.561 383.427,323.052 383.463 C 322.919 383.472,323.476 383.831,324.290 384.260 " stroke="none" fill="#5c5c5c" fill-rule="evenodd"></path></g></svg>