<svg id="svg" version="1.1" xmlns="http://www.w3.org/2000/svg" xmlns:xlink="http://www.w3.org/1999/xlink" width="400" height="655.8139534883721" viewBox="0, 0, 400,655.8139534883721"><g id="svgg"><path id="path0" d="M182.127 17.295 C 181.948 17.573,181.677 38.590,181.525 64.000 C 181.374 89.410,181.064 119.200,180.837 130.200 C 180.610 141.200,180.414 163.340,180.403 179.400 C 180.392 195.460,180.202 216.340,179.981 225.800 C 179.760 235.260,179.400 266.580,179.179 295.400 C 178.959 324.220,178.617 358.600,178.419 371.800 C 178.221 385.000,178.045 407.050,178.029 420.800 C 177.989 453.988,177.637 470.306,176.946 470.997 C 176.340 471.602,175.291 471.419,170.800 469.926 C 167.179 468.721,163.538 467.878,158.200 467.008 C 156.000 466.649,153.030 466.140,151.600 465.878 C 145.271 464.715,120.553 465.515,111.400 467.179 C 110.300 467.378,107.600 467.845,105.400 468.216 C 103.200 468.586,100.721 469.139,99.892 469.445 C 99.062 469.750,98.007 470.000,97.546 470.000 C 97.085 470.000,95.873 470.261,94.854 470.579 C 93.834 470.898,91.920 471.466,90.600 471.841 C 87.503 472.722,84.809 473.592,83.800 474.038 C 83.360 474.233,81.830 474.826,80.400 475.355 C 76.040 476.971,68.457 480.532,64.400 482.871 C 63.630 483.315,62.280 484.066,61.400 484.539 C 60.520 485.013,59.710 485.497,59.600 485.614 C 59.490 485.732,57.993 486.698,56.273 487.760 C 46.560 493.757,34.608 504.327,27.054 513.600 C 25.351 515.690,23.608 517.820,23.179 518.334 C 22.751 518.848,22.400 519.362,22.400 519.476 C 22.400 519.591,21.890 520.341,21.266 521.142 C 20.643 521.944,20.011 522.870,19.862 523.200 C 19.713 523.530,19.278 524.273,18.896 524.851 C 18.513 525.429,17.125 527.769,15.811 530.051 C 13.547 533.982,12.745 535.550,11.337 538.800 C 11.003 539.570,10.476 540.710,10.165 541.332 C 9.854 541.955,9.600 542.737,9.600 543.071 C 9.600 543.404,9.355 544.154,9.055 544.738 C 8.350 546.114,7.566 548.335,7.340 549.600 C 7.242 550.150,6.913 551.500,6.610 552.600 C 3.895 562.434,3.298 581.298,5.566 585.537 C 5.805 585.983,6.000 586.893,6.000 587.560 C 6.000 588.227,6.246 589.364,6.548 590.086 C 7.314 591.925,8.043 594.032,8.295 595.140 C 8.412 595.656,8.924 596.826,9.432 597.740 C 9.940 598.653,10.768 600.210,11.272 601.200 C 16.484 611.434,27.392 622.937,36.940 628.270 C 41.686 630.921,50.207 634.806,53.000 635.592 C 53.660 635.778,54.740 636.115,55.400 636.341 C 58.083 637.262,64.564 638.726,71.000 639.865 C 75.647 640.687,94.459 640.776,99.400 639.999 C 100.940 639.757,103.370 639.401,104.800 639.208 C 112.926 638.114,128.874 633.784,132.895 631.581 C 133.277 631.371,133.781 631.200,134.017 631.200 C 134.390 631.200,135.202 630.875,139.000 629.205 C 140.388 628.594,147.739 625.182,149.188 624.476 C 161.139 618.651,184.068 599.798,189.658 591.200 C 190.015 590.650,190.708 589.750,191.198 589.200 C 191.687 588.650,193.100 586.670,194.337 584.800 C 195.574 582.930,196.688 581.310,196.813 581.200 C 197.248 580.816,199.600 576.785,199.600 576.423 C 199.600 576.222,199.825 575.819,200.100 575.529 C 200.565 575.037,202.633 570.950,203.808 568.200 C 204.090 567.540,204.592 566.370,204.923 565.600 C 205.926 563.272,206.725 561.116,207.445 558.800 C 207.820 557.590,208.369 555.921,208.664 555.092 C 208.959 554.262,209.200 553.036,209.200 552.366 C 209.200 551.696,209.372 550.827,209.581 550.435 C 210.966 547.847,210.968 547.645,211.186 331.720 C 211.335 184.387,211.528 119.912,211.821 119.619 C 212.116 119.324,213.043 120.082,214.910 122.144 C 217.164 124.633,219.185 126.655,223.169 130.407 C 224.294 131.466,232.935 137.820,234.600 138.813 C 235.480 139.337,236.260 139.909,236.333 140.083 C 236.407 140.257,236.651 140.400,236.876 140.400 C 237.101 140.400,237.967 140.940,238.800 141.600 C 239.633 142.260,240.415 142.800,240.538 142.800 C 240.660 142.800,241.560 143.340,242.538 144.000 C 243.516 144.660,244.422 145.200,244.551 145.200 C 244.680 145.200,245.928 145.899,247.325 146.754 C 248.721 147.608,251.019 148.934,252.432 149.700 C 253.844 150.466,255.630 151.475,256.400 151.941 C 257.170 152.408,258.160 152.975,258.600 153.201 C 259.040 153.427,259.940 153.955,260.600 154.374 C 261.260 154.793,263.150 155.814,264.800 156.643 C 266.450 157.472,268.928 158.837,270.307 159.675 C 271.686 160.514,272.922 161.200,273.055 161.200 C 273.187 161.200,274.309 161.812,275.548 162.559 C 277.818 163.930,279.434 164.847,282.777 166.663 C 283.780 167.208,285.140 167.970,285.800 168.357 C 286.460 168.743,288.170 169.701,289.600 170.485 C 291.030 171.270,293.190 172.581,294.400 173.400 C 295.610 174.219,297.031 175.055,297.558 175.257 C 298.491 175.615,312.401 184.707,312.800 185.220 C 312.910 185.361,314.260 186.345,315.800 187.407 C 317.340 188.468,319.070 189.711,319.645 190.168 C 338.563 205.224,349.080 218.357,355.390 234.800 C 355.770 235.790,356.333 237.191,356.640 237.914 C 356.948 238.636,357.200 239.683,357.200 240.240 C 357.200 240.797,357.403 241.633,357.652 242.097 C 357.901 242.562,358.245 243.945,358.418 245.171 C 358.591 246.397,358.951 248.210,359.218 249.200 C 359.983 252.041,359.891 270.684,359.094 274.437 C 358.057 279.316,357.579 281.702,357.258 283.600 C 357.091 284.590,356.739 285.793,356.477 286.274 C 356.215 286.754,356.000 287.621,356.000 288.200 C 356.000 288.779,355.792 289.642,355.537 290.117 C 355.283 290.592,354.939 291.525,354.773 292.191 C 354.426 293.576,353.709 295.633,352.934 297.460 C 352.640 298.154,352.400 298.921,352.400 299.166 C 352.400 299.411,352.229 299.923,352.019 300.305 C 351.810 300.687,351.347 301.720,350.990 302.600 C 350.317 304.259,349.627 305.885,348.655 308.106 C 346.362 313.344,341.209 323.300,338.313 328.088 C 337.344 329.690,336.420 331.270,336.260 331.600 C 335.139 333.907,328.564 344.032,326.519 346.600 C 325.489 347.893,322.400 352.789,322.400 353.129 C 322.400 353.351,322.175 353.624,321.900 353.735 C 321.539 353.881,321.557 353.946,321.964 353.968 C 324.576 354.115,341.540 337.448,349.816 326.606 C 350.639 325.528,351.645 324.289,352.052 323.852 C 352.459 323.415,353.661 321.785,354.724 320.229 C 355.786 318.673,357.529 316.140,358.597 314.600 C 360.408 311.986,365.498 303.743,366.129 302.400 C 366.284 302.070,366.951 300.900,367.611 299.800 C 368.911 297.634,376.400 282.628,376.400 282.189 C 376.400 281.868,377.423 279.444,378.224 277.868 C 378.541 277.245,378.800 276.430,378.800 276.057 C 378.800 275.683,379.044 275.023,379.342 274.589 C 379.640 274.155,379.982 273.350,380.102 272.800 C 380.222 272.250,380.703 270.810,381.172 269.600 C 381.640 268.390,382.191 266.770,382.395 266.000 C 382.600 265.230,383.062 263.610,383.423 262.400 C 389.289 242.737,390.610 220.671,387.015 202.400 C 386.281 198.670,385.414 194.793,385.136 194.000 C 384.526 192.257,383.642 189.244,383.406 188.105 C 383.259 187.392,382.972 186.706,382.769 186.581 C 382.566 186.455,382.400 186.076,382.400 185.737 C 382.400 185.398,382.154 184.554,381.854 183.860 C 381.554 183.167,380.995 181.790,380.613 180.800 C 377.487 172.718,368.782 157.963,363.033 151.000 C 362.306 150.120,360.848 148.333,359.792 147.028 C 358.135 144.979,352.309 139.151,347.000 134.231 C 346.120 133.416,343.330 131.178,340.800 129.259 C 338.270 127.340,335.750 125.381,335.200 124.906 C 333.906 123.790,332.581 122.852,325.800 118.253 C 322.720 116.165,318.658 113.395,316.774 112.099 C 314.890 110.803,313.090 109.613,312.774 109.455 C 312.458 109.298,311.840 108.947,311.400 108.676 C 307.314 106.161,280.685 88.622,279.715 87.807 C 279.449 87.583,278.035 86.590,276.573 85.600 C 258.757 73.531,242.049 59.237,231.220 46.800 C 229.592 44.930,228.147 43.310,228.009 43.200 C 227.871 43.090,227.138 42.102,226.379 41.005 C 225.621 39.908,224.820 38.805,224.600 38.554 C 224.380 38.303,223.930 37.699,223.600 37.212 C 223.270 36.725,222.269 35.308,221.376 34.063 C 220.482 32.818,219.625 31.530,219.471 31.200 C 219.317 30.870,218.845 30.060,218.423 29.400 C 217.242 27.555,216.039 25.368,213.803 21.000 L 211.756 17.000 197.104 16.895 C 185.654 16.813,182.382 16.900,182.127 17.295 " stroke="none" fill="#040404" fill-rule="evenodd"></path><path id="path1" d="M0.000 327.800 L 0.000 655.600 200.000 655.600 L 400.000 655.600 400.000 327.800 L 400.000 0.000 200.000 0.000 L 0.000 0.000 0.000 327.800 M212.311 15.823 C 212.800 16.165,213.200 16.668,213.200 16.941 C 213.200 18.333,220.947 31.723,224.267 36.070 C 225.220 37.318,226.000 38.533,226.000 38.770 C 226.000 39.006,226.149 39.200,226.332 39.200 C 226.515 39.200,227.225 39.980,227.909 40.934 C 230.606 44.688,249.006 63.600,249.962 63.600 C 250.203 63.600,250.400 63.749,250.400 63.932 C 250.400 64.115,251.220 64.853,252.223 65.573 C 253.225 66.293,254.350 67.192,254.723 67.570 C 255.095 67.948,256.570 69.135,258.000 70.208 C 259.430 71.280,260.996 72.572,261.481 73.079 C 261.965 73.585,262.465 74.000,262.591 74.000 C 263.005 74.000,266.800 76.963,266.800 77.285 C 266.800 77.458,266.979 77.600,267.199 77.600 C 267.418 77.600,268.654 78.365,269.944 79.300 C 271.235 80.235,272.697 81.270,273.194 81.600 C 273.691 81.930,274.333 82.425,274.620 82.700 C 274.908 82.975,275.259 83.200,275.402 83.200 C 275.544 83.200,276.713 84.010,278.000 85.000 C 279.287 85.990,280.524 86.800,280.750 86.800 C 280.976 86.800,281.304 87.025,281.480 87.300 C 281.839 87.861,282.955 88.609,284.300 89.191 C 284.795 89.405,285.200 89.765,285.200 89.990 C 285.200 90.216,285.397 90.400,285.638 90.400 C 286.213 90.400,291.799 94.077,293.385 95.500 C 293.692 95.775,294.030 96.000,294.137 96.000 C 294.319 96.000,298.104 98.388,299.022 99.081 C 299.893 99.739,301.029 100.414,301.900 100.791 C 302.395 101.005,302.800 101.344,302.800 101.543 C 302.800 101.743,303.115 102.021,303.500 102.160 C 304.266 102.437,304.894 102.811,307.600 104.606 C 308.590 105.263,309.460 105.935,309.533 106.100 C 309.607 106.265,309.895 106.400,310.173 106.400 C 310.452 106.400,311.425 106.940,312.337 107.600 C 313.248 108.260,314.092 108.800,314.213 108.800 C 314.541 108.800,316.979 110.554,317.133 110.900 C 317.207 111.065,317.451 111.200,317.676 111.200 C 317.901 111.200,318.767 111.740,319.600 112.400 C 320.433 113.060,321.320 113.600,321.570 113.600 C 321.820 113.600,322.129 113.870,322.255 114.200 C 322.382 114.530,322.721 114.800,323.009 114.800 C 323.298 114.800,323.593 114.935,323.667 115.100 C 323.861 115.538,326.302 117.200,326.750 117.200 C 326.961 117.200,327.193 117.335,327.267 117.500 C 327.340 117.665,328.477 118.520,329.793 119.400 C 332.234 121.032,332.855 121.478,333.714 122.219 C 333.981 122.450,336.450 124.331,339.200 126.400 C 341.950 128.469,344.405 130.350,344.655 130.581 C 344.905 130.811,346.071 131.810,347.246 132.800 C 351.170 136.106,362.000 147.146,362.000 147.841 C 362.000 147.929,362.315 148.321,362.700 148.714 C 364.291 150.336,371.744 160.712,372.530 162.400 C 372.683 162.730,373.164 163.540,373.598 164.200 C 374.033 164.860,374.560 165.788,374.769 166.261 C 374.979 166.735,375.342 167.240,375.575 167.385 C 375.809 167.529,376.000 167.982,376.000 168.390 C 376.000 168.799,376.143 169.193,376.318 169.267 C 376.767 169.455,378.400 172.706,378.400 173.412 C 378.400 173.736,378.545 174.000,378.723 174.000 C 378.901 174.000,379.372 174.765,379.770 175.700 C 380.169 176.635,380.743 177.923,381.047 178.561 C 381.351 179.200,381.600 179.893,381.600 180.101 C 381.600 180.517,382.524 182.760,383.424 184.532 C 383.741 185.155,384.000 186.066,384.000 186.556 C 384.000 187.046,384.264 187.796,384.587 188.224 C 384.910 188.651,385.186 189.540,385.200 190.200 C 385.214 190.860,385.490 191.749,385.813 192.176 C 386.136 192.604,386.400 193.528,386.400 194.231 C 386.400 194.934,386.669 196.024,386.998 196.654 C 387.326 197.284,387.596 198.544,387.598 199.454 C 387.599 200.364,387.869 201.624,388.198 202.254 C 388.549 202.928,388.796 204.479,388.798 206.020 C 388.799 207.580,389.002 208.842,389.300 209.139 C 390.000 209.839,390.254 234.970,389.592 238.042 C 389.336 239.229,389.000 241.774,388.845 243.699 C 388.690 245.623,388.346 247.414,388.081 247.679 C 387.817 247.943,387.599 249.069,387.598 250.180 C 387.596 251.291,387.326 252.716,386.998 253.346 C 386.669 253.976,386.394 255.146,386.387 255.946 C 386.380 256.746,386.110 257.749,385.787 258.176 C 385.464 258.604,385.200 259.604,385.200 260.400 C 385.200 261.196,384.936 262.196,384.613 262.624 C 384.290 263.051,384.020 263.874,384.013 264.454 C 384.006 265.034,383.731 266.024,383.402 266.654 C 383.074 267.284,382.804 268.094,382.802 268.454 C 382.801 268.814,382.531 269.624,382.202 270.254 C 381.874 270.884,381.604 271.704,381.602 272.076 C 381.601 272.448,381.420 272.864,381.200 273.000 C 380.980 273.136,380.799 273.552,380.798 273.924 C 380.796 274.296,380.543 275.083,380.235 275.673 C 379.927 276.263,379.554 277.298,379.406 277.973 C 379.258 278.648,378.971 279.200,378.768 279.200 C 378.566 279.200,378.400 279.577,378.400 280.038 C 378.400 280.499,378.157 281.354,377.861 281.938 C 377.299 283.045,376.248 285.365,375.841 286.400 C 375.711 286.730,375.437 287.270,375.231 287.600 C 375.026 287.930,374.756 288.470,374.631 288.800 C 374.507 289.130,374.237 289.670,374.031 290.000 C 373.826 290.330,373.556 290.870,373.431 291.200 C 373.307 291.530,373.041 292.070,372.840 292.400 C 372.639 292.730,371.873 294.259,371.138 295.798 C 370.036 298.102,365.517 306.072,363.991 308.400 C 363.775 308.730,363.423 309.405,363.209 309.900 C 362.995 310.395,362.635 310.800,362.410 310.800 C 362.184 310.800,362.000 311.019,362.000 311.287 C 362.000 311.554,360.785 313.549,359.300 315.719 C 357.815 317.890,356.420 319.958,356.200 320.316 C 355.980 320.674,355.563 321.224,355.272 321.539 C 354.982 321.854,354.442 322.582,354.072 323.156 C 353.337 324.297,352.192 325.728,351.100 326.869 C 350.715 327.271,350.396 327.735,350.391 327.900 C 350.386 328.065,349.801 328.852,349.091 329.650 C 348.381 330.447,347.367 331.617,346.837 332.250 C 345.292 334.096,340.691 339.307,339.601 340.445 C 339.051 341.020,337.950 342.190,337.156 343.045 C 329.450 351.345,319.093 358.728,319.540 355.603 C 319.696 354.511,324.323 347.200,324.858 347.200 C 325.046 347.200,325.200 347.001,325.200 346.758 C 325.200 346.514,325.740 345.633,326.400 344.800 C 327.060 343.967,327.600 343.101,327.600 342.876 C 327.600 342.651,327.735 342.407,327.900 342.333 C 328.295 342.158,330.278 339.243,332.209 336.000 C 333.061 334.570,333.902 333.340,334.079 333.267 C 334.256 333.193,334.400 332.891,334.400 332.595 C 334.400 332.299,334.625 331.819,334.900 331.529 C 335.175 331.238,335.850 330.131,336.400 329.068 C 337.442 327.055,337.930 326.206,339.196 324.200 C 339.612 323.540,340.638 321.650,341.476 320.000 C 342.314 318.350,343.090 316.910,343.200 316.800 C 343.408 316.592,345.075 313.144,347.216 308.494 C 347.899 307.012,348.714 305.290,349.028 304.668 C 349.343 304.045,349.600 303.212,349.600 302.817 C 349.600 302.421,349.870 301.874,350.200 301.600 C 350.530 301.326,350.806 300.629,350.813 300.051 C 350.820 299.473,351.090 298.651,351.413 298.224 C 351.736 297.796,352.000 297.054,352.000 296.573 C 352.000 296.092,352.270 295.474,352.600 295.200 C 352.930 294.926,353.200 294.205,353.200 293.597 C 353.200 292.989,353.469 291.976,353.798 291.346 C 354.126 290.716,354.396 289.873,354.398 289.474 C 354.399 289.074,354.585 288.402,354.811 287.979 C 355.228 287.200,355.719 285.170,356.451 281.200 C 356.673 279.990,356.968 278.730,357.105 278.400 C 358.909 274.050,358.941 247.825,357.146 245.000 C 357.006 244.780,356.764 243.655,356.608 242.500 C 356.452 241.346,356.162 240.300,355.963 240.177 C 355.763 240.054,355.600 239.586,355.600 239.137 C 355.600 238.688,355.354 237.754,355.054 237.060 C 354.754 236.367,354.192 234.990,353.804 234.000 C 353.416 233.010,352.863 231.660,352.575 231.000 C 352.287 230.340,351.951 229.530,351.828 229.200 C 351.705 228.870,351.437 228.330,351.231 228.000 C 351.026 227.670,350.753 227.130,350.624 226.800 C 350.496 226.470,350.045 225.660,349.623 225.000 C 349.200 224.340,348.475 223.106,348.011 222.257 C 346.876 220.181,339.925 210.800,339.521 210.800 C 339.344 210.800,339.200 210.614,339.200 210.387 C 339.200 210.159,336.445 207.234,333.078 203.887 C 326.560 197.406,326.383 197.244,322.149 193.954 C 320.637 192.779,319.310 191.712,319.200 191.582 C 319.090 191.453,318.100 190.735,317.000 189.988 C 315.900 189.240,313.614 187.587,311.920 186.314 C 310.227 185.041,308.765 184.000,308.672 184.000 C 308.580 184.000,306.726 182.811,304.552 181.357 C 302.378 179.903,298.460 177.428,295.844 175.857 C 293.228 174.286,290.618 172.715,290.044 172.366 C 289.470 172.017,286.390 170.286,283.200 168.518 C 275.283 164.131,273.761 163.275,271.421 161.891 C 270.309 161.234,267.510 159.704,265.200 158.491 C 262.890 157.279,259.508 155.396,257.684 154.307 C 255.860 153.218,253.430 151.845,252.284 151.255 C 251.138 150.665,249.480 149.720,248.600 149.154 C 247.720 148.589,245.937 147.537,244.637 146.816 C 241.727 145.202,228.485 136.485,227.600 135.600 C 227.490 135.490,225.675 134.012,223.566 132.315 C 221.458 130.618,218.280 127.693,216.506 125.815 C 214.731 123.937,213.172 122.400,213.041 122.400 C 212.910 122.400,212.730 215.595,212.640 329.500 C 212.483 529.009,212.378 545.950,211.293 547.874 C 211.022 548.354,210.794 549.524,210.786 550.474 C 210.778 551.423,210.514 552.650,210.200 553.200 C 209.886 553.750,209.616 554.740,209.600 555.400 C 209.584 556.060,209.314 557.050,209.000 557.600 C 208.686 558.150,208.422 558.999,208.414 559.486 C 208.406 559.974,208.145 560.964,207.833 561.686 C 207.522 562.409,206.982 563.657,206.633 564.460 C 206.285 565.264,206.000 566.058,206.000 566.226 C 206.000 566.618,201.162 576.534,200.841 576.800 C 200.709 576.910,200.247 577.720,199.815 578.600 C 199.383 579.480,198.528 580.856,197.915 581.658 C 197.302 582.459,196.800 583.220,196.800 583.348 C 196.800 583.568,192.062 590.373,191.611 590.800 C 191.495 590.910,190.680 591.900,189.801 593.000 C 188.921 594.100,187.841 595.450,187.401 596.000 C 184.715 599.355,175.102 608.397,170.200 612.179 C 168.880 613.198,167.260 614.455,166.600 614.972 C 134.818 639.888,80.007 649.761,49.817 636.008 C 48.842 635.564,47.939 635.200,47.810 635.200 C 45.886 635.200,32.575 627.433,28.000 623.640 C 22.768 619.303,14.800 610.696,14.800 609.381 C 14.800 609.235,14.260 608.433,13.600 607.600 C 12.940 606.767,12.400 605.811,12.400 605.476 C 12.400 605.141,12.248 604.807,12.062 604.733 C 11.700 604.590,11.403 604.063,9.137 599.528 C 7.130 595.513,6.400 593.788,6.400 593.063 C 6.400 592.724,6.244 592.351,6.053 592.233 C 5.862 592.115,5.587 591.121,5.441 590.025 C 5.296 588.930,5.002 587.925,4.788 587.793 C 4.575 587.661,4.400 586.748,4.400 585.764 C 4.400 584.779,4.130 583.328,3.800 582.538 C 3.063 580.775,2.920 562.790,3.627 560.928 C 3.862 560.310,4.214 558.724,4.408 557.402 C 4.945 553.754,6.711 546.820,7.255 546.220 C 7.445 546.011,7.601 545.561,7.602 545.220 C 7.604 544.879,7.857 544.117,8.165 543.527 C 8.473 542.937,8.846 541.902,8.994 541.227 C 9.142 540.552,9.429 540.000,9.632 540.000 C 9.834 540.000,10.000 539.659,10.000 539.241 C 10.000 538.437,15.698 527.047,16.424 526.400 C 16.548 526.290,17.351 525.030,18.209 523.600 C 19.739 521.050,20.094 520.537,21.100 519.415 C 21.375 519.108,21.600 518.704,21.600 518.518 C 21.600 518.331,22.140 517.587,22.800 516.864 C 23.460 516.142,24.000 515.391,24.000 515.195 C 24.000 515.000,24.230 514.696,24.511 514.520 C 24.792 514.344,25.643 513.390,26.402 512.400 C 29.893 507.849,39.110 498.808,44.345 494.800 C 45.063 494.250,46.225 493.308,46.926 492.706 C 47.627 492.105,48.307 491.610,48.439 491.606 C 48.570 491.603,49.110 491.218,49.639 490.750 C 51.098 489.460,59.418 483.991,61.061 483.242 C 61.535 483.026,62.040 482.658,62.185 482.425 C 62.329 482.191,62.797 482.000,63.224 482.000 C 63.651 482.000,64.000 481.862,64.000 481.694 C 64.000 481.526,64.945 480.948,66.100 480.408 C 67.255 479.869,68.290 479.331,68.400 479.214 C 68.630 478.967,70.764 477.927,72.800 477.069 C 73.570 476.744,75.415 475.921,76.901 475.239 C 78.387 474.558,79.917 473.994,80.301 473.987 C 80.685 473.980,81.349 473.710,81.776 473.387 C 82.204 473.064,82.924 472.794,83.376 472.787 C 83.829 472.780,84.549 472.510,84.976 472.187 C 85.404 471.864,86.214 471.594,86.776 471.587 C 87.339 471.580,88.149 471.310,88.576 470.987 C 89.004 470.664,89.838 470.400,90.431 470.400 C 91.024 470.400,92.024 470.131,92.654 469.802 C 93.284 469.474,94.374 469.204,95.076 469.202 C 95.778 469.201,96.458 469.030,96.586 468.823 C 96.714 468.616,97.669 468.333,98.709 468.196 C 99.749 468.058,100.960 467.774,101.400 467.564 C 101.840 467.355,103.460 466.999,105.000 466.774 C 106.540 466.549,109.510 466.093,111.600 465.762 C 123.189 463.923,140.587 463.151,148.136 464.142 C 150.811 464.492,153.720 464.866,154.600 464.972 C 156.280 465.174,161.339 466.042,165.400 466.826 C 166.720 467.080,167.971 467.449,168.180 467.644 C 168.389 467.840,168.929 468.001,169.380 468.002 C 169.831 468.004,170.716 468.274,171.346 468.602 C 171.976 468.931,172.886 469.200,173.369 469.200 C 173.852 469.200,174.596 469.464,175.024 469.787 C 175.451 470.110,175.908 470.380,176.039 470.387 C 176.171 470.394,176.397 456.045,176.542 438.500 C 176.687 420.955,176.975 402.460,177.182 397.400 C 177.389 392.340,177.572 369.840,177.589 347.400 C 177.609 322.112,177.841 298.920,178.200 286.400 C 178.561 273.814,178.785 251.273,178.794 226.600 C 178.801 204.820,178.992 181.690,179.218 175.200 C 179.443 168.710,179.826 138.290,180.067 107.600 C 180.616 37.924,180.911 16.337,181.324 15.700 C 181.859 14.872,211.119 14.988,212.311 15.823 " stroke="none" fill="#fbfbfb" fill-rule="evenodd"></path><path id="path2" d="M196.839 15.990 C 205.582 16.116,211.712 16.361,212.058 16.600 C 212.377 16.820,212.294 16.685,211.875 16.300 C 211.173 15.657,209.941 15.607,196.656 15.690 L 182.200 15.781 196.839 15.990 M181.368 16.540 C 181.254 16.837,181.217 18.322,181.285 19.840 L 181.410 22.600 181.605 19.299 C 181.800 16.003,181.758 15.522,181.368 16.540 M217.608 26.901 C 217.603 27.067,218.137 28.057,218.792 29.101 C 219.448 30.146,219.988 30.864,219.992 30.699 C 219.997 30.533,219.463 29.543,218.808 28.499 C 218.152 27.454,217.612 26.736,217.608 26.901 M221.216 32.963 C 221.968 34.009,222.756 34.973,222.967 35.103 C 223.178 35.233,222.735 34.484,221.984 33.437 C 221.232 32.391,220.444 31.427,220.233 31.297 C 220.022 31.167,220.465 31.916,221.216 32.963 M228.800 43.055 C 228.800 43.268,229.475 44.063,230.300 44.822 L 231.800 46.200 230.400 44.604 C 229.630 43.727,228.955 42.932,228.900 42.838 C 228.845 42.744,228.800 42.841,228.800 43.055 M235.819 51.011 C 238.184 53.547,241.938 57.272,244.160 59.288 C 247.249 62.092,246.780 61.548,242.164 56.977 C 238.844 53.690,235.189 49.965,234.041 48.700 C 232.894 47.435,231.857 46.400,231.737 46.400 C 231.617 46.400,233.454 48.475,235.819 51.011 M180.975 64.400 C 180.975 70.450,181.031 72.925,181.099 69.900 C 181.167 66.875,181.167 61.925,181.099 58.900 C 181.031 55.875,180.975 58.350,180.975 64.400 M249.200 63.725 C 249.200 63.794,249.785 64.379,250.500 65.025 L 251.800 66.200 250.625 64.900 C 249.530 63.688,249.200 63.416,249.200 63.725 M252.000 66.133 C 252.000 66.243,252.720 66.903,253.600 67.600 C 254.480 68.297,255.200 68.777,255.200 68.667 C 255.200 68.557,254.480 67.897,253.600 67.200 C 252.720 66.503,252.000 66.023,252.000 66.133 M259.400 72.156 C 260.280 72.944,261.165 73.591,261.367 73.594 C 261.568 73.597,261.658 73.545,261.567 73.477 C 261.475 73.410,260.590 72.763,259.600 72.039 L 257.800 70.724 259.400 72.156 M262.000 74.171 C 262.000 74.429,267.884 78.881,269.400 79.770 C 270.353 80.329,270.435 80.339,269.800 79.820 C 267.922 78.284,262.000 73.995,262.000 74.171 M180.576 88.000 C 180.576 94.270,180.632 96.835,180.699 93.700 C 180.767 90.565,180.767 85.435,180.699 82.300 C 180.632 79.165,180.576 81.730,180.576 88.000 M270.897 80.633 C 271.027 80.844,271.991 81.632,273.037 82.384 C 274.084 83.135,274.833 83.578,274.703 83.367 C 274.573 83.156,273.609 82.368,272.563 81.616 C 271.516 80.865,270.767 80.422,270.897 80.633 M277.600 85.346 C 277.600 85.456,278.140 85.930,278.800 86.400 C 279.460 86.870,280.000 87.164,280.000 87.054 C 280.000 86.944,279.460 86.470,278.800 86.000 C 278.140 85.530,277.600 85.236,277.600 85.346 M280.400 87.346 C 280.400 87.456,280.940 87.930,281.600 88.400 C 282.260 88.870,282.800 89.164,282.800 89.054 C 282.800 88.944,282.260 88.470,281.600 88.000 C 280.940 87.530,280.400 87.236,280.400 87.346 M284.169 89.951 C 284.301 90.163,285.321 90.898,286.438 91.586 C 287.555 92.273,288.362 92.661,288.231 92.449 C 288.099 92.237,287.079 91.502,285.962 90.814 C 284.845 90.127,284.038 89.739,284.169 89.951 M291.200 94.546 C 291.200 94.656,291.740 95.130,292.400 95.600 C 293.060 96.070,293.600 96.364,293.600 96.254 C 293.600 96.144,293.060 95.670,292.400 95.200 C 291.740 94.730,291.200 94.436,291.200 94.546 M296.175 97.959 C 296.297 98.157,297.039 98.698,297.823 99.160 C 298.607 99.623,299.148 99.839,299.025 99.641 C 298.903 99.443,298.161 98.902,297.377 98.440 C 296.593 97.977,296.052 97.761,296.175 97.959 M300.000 100.489 C 300.330 100.810,301.860 101.842,303.400 102.783 C 304.940 103.723,305.930 104.231,305.600 103.911 C 305.270 103.590,303.740 102.558,302.200 101.617 C 300.660 100.677,299.670 100.169,300.000 100.489 M306.540 104.702 C 306.681 104.932,307.461 105.511,308.273 105.990 C 309.084 106.469,309.549 106.622,309.305 106.330 C 308.731 105.643,306.201 104.154,306.540 104.702 M180.185 127.000 C 180.185 137.560,180.237 141.823,180.300 136.472 C 180.363 131.122,180.363 122.482,180.300 117.272 C 180.236 112.063,180.185 116.440,180.185 127.000 M314.000 109.321 C 314.000 109.412,315.035 110.151,316.300 110.963 C 317.565 111.775,318.108 112.021,317.506 111.510 C 316.318 110.500,314.000 109.053,314.000 109.321 M322.200 114.997 C 323.519 116.126,327.200 118.497,327.200 118.217 C 327.200 118.120,325.805 117.125,324.100 116.006 C 322.395 114.886,321.540 114.432,322.200 114.997 M327.800 118.674 C 328.020 118.887,329.190 119.741,330.400 120.573 C 332.174 121.791,332.329 121.849,331.200 120.870 C 329.900 119.743,326.908 117.810,327.800 118.674 M212.000 120.557 C 212.000 120.881,212.315 121.261,212.700 121.402 C 213.085 121.543,214.390 122.805,215.600 124.207 C 217.453 126.353,222.877 131.328,225.800 133.562 C 227.417 134.798,225.493 132.988,222.200 130.175 C 220.440 128.671,218.100 126.455,217.000 125.250 C 213.195 121.080,212.000 119.959,212.000 120.557 M335.170 124.132 C 336.189 125.254,336.408 125.393,336.387 124.900 C 336.381 124.735,335.886 124.254,335.287 123.832 L 334.200 123.064 335.170 124.132 M337.997 126.344 C 338.766 127.001,339.473 127.460,339.568 127.365 C 339.766 127.167,338.586 126.188,337.400 125.568 C 336.960 125.337,337.229 125.686,337.997 126.344 M341.820 129.155 C 342.029 129.350,343.306 130.421,344.658 131.535 C 346.010 132.648,348.755 135.119,350.758 137.025 C 352.761 138.931,354.400 140.372,354.400 140.226 C 354.400 140.081,353.905 139.506,353.300 138.948 C 352.695 138.390,351.210 136.997,350.000 135.850 C 347.051 133.057,342.045 128.800,341.710 128.800 C 341.561 128.800,341.611 128.960,341.820 129.155 M231.775 137.960 C 231.909 138.176,233.139 139.027,234.509 139.851 C 235.879 140.674,237.540 141.741,238.200 142.221 C 240.103 143.605,241.600 144.511,241.600 144.277 C 241.600 144.065,238.462 141.940,233.866 139.039 C 232.582 138.229,231.641 137.743,231.775 137.960 M356.383 142.100 C 357.364 143.145,358.219 144.000,358.283 144.000 C 358.584 144.000,358.266 143.641,356.500 141.983 L 354.600 140.200 356.383 142.100 M361.598 148.349 C 363.405 150.577,364.984 152.400,365.104 152.400 C 365.225 152.400,365.052 152.085,364.720 151.700 C 364.387 151.315,363.000 149.610,361.638 147.911 C 360.275 146.213,358.969 144.704,358.735 144.560 C 358.502 144.416,359.790 146.121,361.598 148.349 M244.000 145.737 C 244.000 146.033,247.644 148.089,247.833 147.900 C 247.927 147.806,247.103 147.239,246.002 146.640 C 244.901 146.040,244.000 145.634,244.000 145.737 M248.403 148.310 C 248.407 148.620,251.650 150.483,251.846 150.288 C 251.910 150.224,251.161 149.687,250.181 149.095 C 249.201 148.504,248.401 148.150,248.403 148.310 M252.600 150.691 C 252.820 150.923,254.080 151.701,255.400 152.421 C 256.720 153.141,257.620 153.541,257.400 153.309 C 257.180 153.077,255.920 152.299,254.600 151.579 C 253.280 150.859,252.380 150.459,252.600 150.691 M366.000 154.000 C 366.470 154.660,366.944 155.200,367.054 155.200 C 367.164 155.200,366.870 154.660,366.400 154.000 C 365.930 153.340,365.456 152.800,365.346 152.800 C 365.236 152.800,365.530 153.340,366.000 154.000 M260.000 154.941 C 260.000 155.208,263.690 157.243,263.863 157.071 C 263.940 156.993,263.103 156.439,262.002 155.840 C 260.901 155.240,260.000 154.836,260.000 154.941 M369.600 159.200 C 370.070 159.860,370.544 160.400,370.654 160.400 C 370.764 160.400,370.470 159.860,370.000 159.200 C 369.530 158.540,369.056 158.000,368.946 158.000 C 368.836 158.000,369.130 158.540,369.600 159.200 M266.800 158.527 C 266.800 158.757,272.332 162.000,272.724 162.000 C 273.102 162.000,271.688 161.070,269.100 159.616 C 267.835 158.905,266.800 158.415,266.800 158.527 M273.400 162.296 C 273.620 162.525,274.880 163.301,276.200 164.021 C 277.520 164.741,278.420 165.148,278.200 164.925 C 277.980 164.702,276.720 163.926,275.400 163.200 C 274.080 162.474,273.180 162.067,273.400 162.296 M280.499 166.408 C 281.543 167.063,282.533 167.597,282.699 167.592 C 282.864 167.588,282.146 167.048,281.101 166.392 C 280.057 165.737,279.067 165.203,278.901 165.208 C 278.736 165.212,279.454 165.752,280.499 166.408 M286.899 170.008 C 287.943 170.663,288.933 171.197,289.099 171.192 C 289.264 171.188,288.546 170.648,287.501 169.992 C 286.457 169.337,285.467 168.803,285.301 168.808 C 285.136 168.812,285.854 169.352,286.899 170.008 M289.800 171.490 C 290.020 171.700,290.920 172.276,291.800 172.770 C 292.680 173.265,293.040 173.370,292.600 173.004 C 291.706 172.261,289.172 170.891,289.800 171.490 M179.775 184.000 C 179.775 189.830,179.831 192.215,179.899 189.300 C 179.967 186.385,179.967 181.615,179.899 178.700 C 179.831 175.785,179.775 178.170,179.775 184.000 M293.801 174.002 C 294.069 174.436,296.400 175.734,296.400 175.450 C 296.400 175.356,295.759 174.901,294.976 174.439 C 294.193 173.977,293.664 173.780,293.801 174.002 M297.600 176.150 C 297.600 176.244,298.241 176.699,299.024 177.161 C 299.807 177.623,300.336 177.820,300.199 177.598 C 299.931 177.164,297.600 175.866,297.600 176.150 M303.095 179.670 C 303.669 180.357,306.199 181.846,305.860 181.298 C 305.719 181.068,304.939 180.489,304.127 180.010 C 303.316 179.531,302.851 179.378,303.095 179.670 M306.575 181.959 C 306.697 182.157,307.439 182.698,308.223 183.160 C 309.007 183.623,309.548 183.839,309.425 183.641 C 309.303 183.443,308.561 182.902,307.777 182.440 C 306.993 181.977,306.452 181.761,306.575 181.959 M310.000 184.191 C 310.000 184.276,310.540 184.730,311.200 185.200 C 311.860 185.670,312.399 185.907,312.397 185.727 C 312.396 185.547,311.856 185.093,311.197 184.719 C 310.539 184.344,310.000 184.107,310.000 184.191 M316.000 188.477 C 316.110 188.606,317.100 189.390,318.200 190.220 C 319.300 191.050,320.965 192.352,321.900 193.113 C 322.835 193.874,323.600 194.405,323.600 194.293 C 323.600 194.021,318.513 189.934,317.000 188.991 C 316.340 188.579,315.890 188.348,316.000 188.477 M324.000 194.760 C 324.000 195.002,324.135 195.201,324.300 195.202 C 324.465 195.203,325.230 195.773,326.000 196.468 C 330.400 200.441,330.585 200.595,329.595 199.460 C 328.017 197.650,324.000 194.277,324.000 194.760 M179.377 206.600 C 179.377 213.200,179.432 215.956,179.499 212.725 C 179.566 209.493,179.566 204.093,179.499 200.725 C 179.432 197.356,179.377 200.000,179.377 206.600 M330.817 200.443 C 330.808 200.576,331.661 201.566,332.713 202.643 C 333.766 203.719,336.049 206.130,337.788 208.000 C 339.527 209.870,340.383 210.680,339.690 209.800 C 338.083 207.759,330.840 200.121,330.817 200.443 M387.668 202.800 C 387.688 203.839,388.318 205.546,388.332 204.600 C 388.338 204.160,388.189 203.440,388.000 203.000 C 387.789 202.510,387.661 202.432,387.668 202.800 M389.101 213.000 C 389.214 214.540,389.372 215.875,389.453 215.967 C 389.747 216.300,389.535 211.778,389.220 211.000 C 389.035 210.542,388.984 211.398,389.101 213.000 M346.000 218.400 C 346.470 219.060,346.944 219.600,347.054 219.600 C 347.164 219.600,346.870 219.060,346.400 218.400 C 345.930 217.740,345.456 217.200,345.346 217.200 C 345.236 217.200,345.530 217.740,346.000 218.400 M178.986 250.400 C 178.986 261.950,179.037 266.675,179.100 260.900 C 179.162 255.125,179.162 245.675,179.100 239.900 C 179.037 234.125,178.986 238.850,178.986 250.400 M389.265 234.200 C 389.225 235.080,389.106 236.520,389.002 237.400 L 388.812 239.000 389.223 237.400 C 389.448 236.520,389.567 235.080,389.486 234.200 L 389.340 232.600 389.265 234.200 M355.630 238.000 C 355.628 238.576,356.757 240.866,356.786 240.346 C 356.794 240.206,356.537 239.486,356.216 238.746 C 355.894 238.006,355.631 237.670,355.630 238.000 M388.054 244.667 C 388.025 245.144,387.896 245.864,387.770 246.267 C 387.552 246.961,387.564 246.962,387.996 246.288 C 388.247 245.897,388.375 245.177,388.281 244.688 C 388.109 243.801,388.109 243.801,388.054 244.667 M359.320 261.200 C 359.320 262.410,359.395 262.905,359.487 262.300 C 359.578 261.695,359.578 260.705,359.487 260.100 C 359.395 259.495,359.320 259.990,359.320 261.200 M382.332 267.600 C 382.206 268.150,381.978 268.960,381.826 269.400 C 381.674 269.840,381.842 269.695,382.199 269.077 C 382.557 268.459,382.785 267.649,382.705 267.277 C 382.602 266.794,382.495 266.887,382.332 267.600 M358.893 270.000 C 358.893 270.770,358.975 271.085,359.076 270.700 C 359.176 270.315,359.176 269.685,359.076 269.300 C 358.975 268.915,358.893 269.230,358.893 270.000 M377.285 281.213 C 377.018 281.640,376.801 282.217,376.802 282.495 C 376.804 282.773,377.077 282.478,377.410 281.840 C 378.103 280.511,378.011 280.050,377.285 281.213 M373.632 289.139 C 372.979 290.360,373.114 290.700,373.841 289.663 C 374.193 289.160,374.388 288.654,374.273 288.540 C 374.159 288.425,373.870 288.695,373.632 289.139 M178.210 313.681 C 178.053 324.967,177.987 335.010,178.064 336.000 C 178.141 336.990,178.356 327.843,178.543 315.674 C 178.729 303.505,178.795 293.462,178.689 293.356 C 178.583 293.249,178.367 302.396,178.210 313.681 M367.486 301.035 C 366.889 302.024,366.403 302.960,366.408 303.116 C 366.412 303.272,366.963 302.527,367.634 301.459 C 368.304 300.392,368.789 299.456,368.712 299.378 C 368.634 299.301,368.083 300.047,367.486 301.035 M345.665 312.617 C 344.995 314.088,345.123 314.402,345.847 313.065 C 346.186 312.440,346.388 311.854,346.296 311.763 C 346.205 311.671,345.921 312.056,345.665 312.617 M360.400 312.800 C 359.930 313.460,359.636 314.000,359.746 314.000 C 359.856 314.000,360.330 313.460,360.800 312.800 C 361.270 312.140,361.564 311.600,361.454 311.600 C 361.344 311.600,360.870 312.140,360.400 312.800 M358.000 316.400 C 357.530 317.060,357.236 317.600,357.346 317.600 C 357.456 317.600,357.930 317.060,358.400 316.400 C 358.870 315.740,359.164 315.200,359.054 315.200 C 358.944 315.200,358.470 315.740,358.000 316.400 M355.200 320.400 C 354.304 321.720,353.660 322.800,353.770 322.800 C 353.880 322.800,354.704 321.720,355.600 320.400 C 356.496 319.080,357.140 318.000,357.030 318.000 C 356.920 318.000,356.096 319.080,355.200 320.400 M350.946 326.100 C 349.657 327.695,348.511 329.090,348.401 329.200 C 348.290 329.310,347.329 330.480,346.263 331.800 C 344.472 334.020,344.453 334.065,346.011 332.400 C 346.937 331.410,348.780 329.250,350.105 327.600 C 351.431 325.950,352.787 324.285,353.120 323.900 C 353.452 323.515,353.627 323.200,353.507 323.200 C 353.388 323.200,352.236 324.505,350.946 326.100 M333.733 334.300 C 333.356 334.905,332.857 335.660,332.624 335.977 C 332.316 336.396,332.325 336.479,332.660 336.278 C 333.146 335.987,334.899 333.200,334.596 333.200 C 334.498 333.200,334.110 333.695,333.733 334.300 M340.446 338.371 C 337.104 341.994,335.317 343.777,329.400 349.400 C 327.960 350.768,327.848 350.935,329.000 349.997 C 331.207 348.199,336.913 342.681,339.776 339.576 C 341.082 338.159,342.693 336.415,343.354 335.700 C 344.016 334.985,344.457 334.400,344.334 334.400 C 344.211 334.400,342.462 336.187,340.446 338.371 M330.133 339.900 C 329.756 340.505,329.257 341.260,329.024 341.577 C 328.716 341.996,328.725 342.079,329.060 341.878 C 329.546 341.587,331.299 338.800,330.996 338.800 C 330.898 338.800,330.510 339.295,330.133 339.900 M327.600 343.600 C 327.130 344.260,326.836 344.800,326.946 344.800 C 327.056 344.800,327.530 344.260,328.000 343.600 C 328.470 342.940,328.764 342.400,328.654 342.400 C 328.544 342.400,328.070 342.940,327.600 343.600 M324.000 348.800 C 323.530 349.460,323.236 350.000,323.346 350.000 C 323.456 350.000,323.930 349.460,324.400 348.800 C 324.870 348.140,325.164 347.600,325.054 347.600 C 324.944 347.600,324.470 348.140,324.000 348.800 M321.868 351.900 C 319.473 355.715,319.453 357.236,321.824 355.398 C 322.550 354.834,322.529 354.821,321.500 355.188 C 320.090 355.691,320.115 355.477,321.789 352.700 C 323.312 350.174,323.379 349.493,321.868 351.900 M325.200 352.649 C 322.634 354.656,322.264 355.163,324.518 353.583 C 326.200 352.404,327.585 351.160,327.149 351.221 C 327.067 351.232,326.190 351.875,325.200 352.649 M177.786 373.200 C 177.786 384.530,177.837 389.165,177.900 383.500 C 177.962 377.835,177.962 368.565,177.900 362.900 C 177.837 357.235,177.786 361.870,177.786 373.200 M177.015 432.481 C 176.861 442.886,176.794 452.930,176.867 454.800 C 176.940 456.670,177.150 448.240,177.334 436.067 C 177.518 423.894,177.584 413.851,177.482 413.748 C 177.379 413.646,177.169 422.076,177.015 432.481 M131.200 464.378 C 129.037 464.506,131.708 464.602,137.400 464.601 C 142.941 464.601,146.062 464.490,144.400 464.352 C 140.854 464.059,136.441 464.068,131.200 464.378 M121.111 465.093 C 122.051 465.178,123.491 465.177,124.311 465.091 C 125.130 465.005,124.360 464.936,122.600 464.937 C 120.840 464.939,120.170 465.009,121.111 465.093 M149.700 465.087 C 150.305 465.178,151.295 465.178,151.900 465.087 C 152.505 464.995,152.010 464.920,150.800 464.920 C 149.590 464.920,149.095 464.995,149.700 465.087 M115.800 465.600 C 114.730 465.872,114.708 465.905,115.600 465.905 C 116.150 465.905,117.140 465.768,117.800 465.600 C 118.870 465.328,118.892 465.295,118.000 465.295 C 117.450 465.295,116.460 465.432,115.800 465.600 M154.000 465.600 C 154.550 465.776,155.360 465.920,155.800 465.920 C 156.433 465.920,156.392 465.854,155.600 465.600 C 155.050 465.424,154.240 465.280,153.800 465.280 C 153.167 465.280,153.208 465.346,154.000 465.600 M111.505 466.283 C 112.002 466.379,112.722 466.375,113.105 466.275 C 113.487 466.175,113.080 466.096,112.200 466.101 C 111.320 466.105,111.007 466.187,111.505 466.283 M158.100 466.276 C 158.485 466.376,159.115 466.376,159.500 466.276 C 159.885 466.175,159.570 466.093,158.800 466.093 C 158.030 466.093,157.715 466.175,158.100 466.276 M108.000 466.800 C 107.208 467.054,107.167 467.120,107.800 467.120 C 108.240 467.120,109.050 466.976,109.600 466.800 C 110.392 466.546,110.433 466.480,109.800 466.480 C 109.360 466.480,108.550 466.624,108.000 466.800 M161.200 466.800 C 161.750 466.976,162.560 467.120,163.000 467.120 C 163.633 467.120,163.592 467.054,162.800 466.800 C 162.250 466.624,161.440 466.480,161.000 466.480 C 160.367 466.480,160.408 466.546,161.200 466.800 M102.200 467.846 C 100.630 468.398,100.626 468.404,102.000 468.159 C 105.432 467.549,106.315 467.292,105.000 467.288 C 104.340 467.286,103.080 467.537,102.200 467.846 M165.800 467.809 C 168.322 468.510,169.030 468.505,167.200 467.800 C 166.430 467.503,165.350 467.259,164.800 467.257 C 164.221 467.255,164.642 467.488,165.800 467.809 M98.000 468.818 C 97.562 469.115,97.724 469.152,98.600 468.956 C 100.071 468.627,100.390 468.398,99.367 468.406 C 98.945 468.409,98.330 468.595,98.000 468.818 M170.200 469.012 C 172.273 469.758,172.994 469.740,171.254 468.984 C 170.514 468.663,169.614 468.408,169.254 468.418 C 168.894 468.427,169.320 468.695,170.200 469.012 M173.946 470.216 C 174.686 470.537,175.496 470.793,175.746 470.784 C 175.996 470.776,175.594 470.506,174.854 470.184 C 174.114 469.863,173.304 469.607,173.054 469.616 C 172.804 469.624,173.206 469.894,173.946 470.216 M88.600 471.414 C 86.985 472.154,87.951 472.155,89.654 471.416 C 90.394 471.094,90.730 470.839,90.400 470.848 C 90.070 470.857,89.260 471.112,88.600 471.414 M63.200 482.418 C 62.210 483.060,61.536 483.588,61.701 483.592 C 61.867 483.597,62.857 483.063,63.901 482.408 C 64.946 481.752,65.620 481.223,65.400 481.233 C 65.180 481.243,64.190 481.776,63.200 482.418 M56.731 486.322 C 54.609 487.705,53.036 488.963,54.400 488.187 C 56.085 487.228,59.200 485.152,59.200 484.988 C 59.200 484.713,59.198 484.714,56.731 486.322 M52.200 489.435 L 51.000 490.466 52.300 489.606 C 53.015 489.133,53.600 488.668,53.600 488.573 C 53.600 488.273,53.431 488.378,52.200 489.435 M47.585 492.829 L 46.200 494.058 47.700 492.981 C 49.026 492.030,49.457 491.600,49.085 491.600 C 49.022 491.600,48.347 492.153,47.585 492.829 M41.334 497.713 C 39.758 499.081,38.364 500.436,38.237 500.724 C 38.110 501.012,39.445 499.943,41.203 498.348 C 44.061 495.755,44.640 495.169,44.300 495.213 C 44.245 495.220,42.910 496.345,41.334 497.713 M33.391 505.300 L 30.200 508.600 33.500 505.409 C 35.315 503.655,36.800 502.170,36.800 502.109 C 36.800 501.818,36.354 502.235,33.391 505.300 M28.966 510.100 C 27.196 512.032,26.253 513.200,26.462 513.200 C 26.564 513.200,27.502 512.210,28.547 511.000 C 30.607 508.613,30.896 507.993,28.966 510.100 M18.493 523.900 C 17.457 525.396,17.121 526.000,17.323 526.000 C 17.417 526.000,17.970 525.280,18.553 524.400 C 19.736 522.612,19.684 522.179,18.493 523.900 M15.803 528.231 C 15.212 529.239,14.795 530.129,14.876 530.209 C 14.957 530.290,15.523 529.466,16.134 528.378 C 17.534 525.887,17.250 525.762,15.803 528.231 M211.740 539.200 C 211.740 541.070,211.809 541.835,211.893 540.900 C 211.977 539.965,211.977 538.435,211.893 537.500 C 211.809 536.565,211.740 537.330,211.740 539.200 M9.665 540.617 C 8.995 542.088,9.123 542.402,9.847 541.065 C 10.186 540.440,10.388 539.854,10.296 539.763 C 10.205 539.671,9.921 540.056,9.665 540.617 M211.022 545.422 C 210.872 546.225,210.828 546.962,210.926 547.060 C 211.024 547.157,211.227 546.581,211.378 545.778 C 211.528 544.975,211.572 544.238,211.474 544.140 C 211.376 544.043,211.173 544.619,211.022 545.422 M7.265 547.017 C 7.009 547.578,6.807 548.254,6.816 548.519 C 6.824 548.783,7.097 548.388,7.422 547.639 C 8.105 546.065,7.961 545.490,7.265 547.017 M3.869 561.956 C 3.721 562.695,3.620 563.683,3.644 564.150 C 3.668 564.618,3.847 564.190,4.042 563.200 C 4.237 562.210,4.338 561.223,4.267 561.006 C 4.196 560.790,4.017 561.217,3.869 561.956 M3.359 571.600 C 3.359 574.790,3.421 576.095,3.497 574.500 C 3.573 572.905,3.573 570.295,3.497 568.700 C 3.421 567.105,3.359 568.410,3.359 571.600 M199.828 577.061 C 199.256 578.084,198.852 578.985,198.929 579.063 C 199.007 579.140,199.561 578.303,200.160 577.202 C 200.760 576.101,201.164 575.200,201.059 575.200 C 200.954 575.200,200.400 576.037,199.828 577.061 M3.628 579.433 C 3.644 580.075,3.816 580.960,4.010 581.400 C 4.247 581.934,4.286 581.602,4.127 580.400 C 3.846 578.280,3.588 577.780,3.628 579.433 M196.933 581.900 C 196.556 582.505,196.057 583.260,195.824 583.577 C 195.516 583.996,195.525 584.079,195.860 583.878 C 196.346 583.587,198.099 580.800,197.796 580.800 C 197.698 580.800,197.310 581.295,196.933 581.900 M194.526 585.500 C 192.115 589.327,187.336 595.053,181.423 601.200 C 176.996 605.802,176.925 605.897,180.537 602.400 C 186.472 596.655,196.603 584.400,195.418 584.400 C 195.308 584.400,194.907 584.895,194.526 585.500 M174.975 607.300 L 173.800 608.600 175.100 607.425 C 176.312 606.330,176.584 606.000,176.275 606.000 C 176.206 606.000,175.621 606.585,174.975 607.300 M14.800 608.800 C 15.270 609.460,15.744 610.000,15.854 610.000 C 15.964 610.000,15.670 609.460,15.200 608.800 C 14.730 608.140,14.256 607.600,14.146 607.600 C 14.036 607.600,14.330 608.140,14.800 608.800 M168.333 612.524 C 163.477 616.252,162.494 617.142,165.400 615.178 C 168.515 613.073,173.461 609.040,172.700 609.224 C 172.645 609.238,170.680 610.723,168.333 612.524 M23.380 618.600 C 26.037 621.240,29.334 624.176,30.706 625.126 C 34.162 627.516,33.846 626.930,30.300 624.372 C 28.705 623.221,25.408 620.372,22.974 618.040 C 18.576 613.827,18.578 613.830,23.380 618.600 M160.400 618.407 C 159.850 618.841,157.555 620.296,155.300 621.641 C 153.045 622.986,151.200 624.170,151.200 624.272 C 151.200 624.739,160.955 618.721,161.421 617.965 C 161.756 617.424,161.513 617.529,160.400 618.407 M33.815 627.224 C 34.088 627.665,38.850 630.483,39.026 630.307 C 39.096 630.237,37.902 629.434,36.373 628.523 C 34.844 627.611,33.693 627.026,33.815 627.224 M144.400 627.433 C 143.842 627.743,143.665 627.985,144.000 627.981 C 144.330 627.978,144.949 627.710,145.376 627.387 C 146.339 626.659,145.745 626.687,144.400 627.433 M142.248 628.285 C 142.092 628.442,141.027 628.975,139.882 629.469 C 138.737 629.963,138.003 630.375,138.250 630.384 C 138.824 630.404,143.200 628.478,143.200 628.205 C 143.200 627.903,142.578 627.956,142.248 628.285 M136.200 631.014 C 135.540 631.317,135.281 631.572,135.624 631.582 C 135.966 631.592,136.596 631.336,137.024 631.013 C 137.972 630.296,137.769 630.296,136.200 631.014 M42.000 631.772 C 42.000 632.070,46.468 634.066,46.674 633.860 C 46.757 633.777,45.874 633.282,44.712 632.759 C 43.550 632.237,42.465 631.748,42.300 631.672 C 42.135 631.596,42.000 631.641,42.000 631.772 M131.200 633.000 C 129.894 633.747,130.351 633.755,132.054 633.016 C 132.794 632.694,133.130 632.431,132.800 632.430 C 132.470 632.429,131.750 632.686,131.200 633.000 M53.000 636.612 C 55.073 637.358,55.794 637.340,54.054 636.584 C 53.314 636.263,52.414 636.008,52.054 636.018 C 51.694 636.027,52.120 636.295,53.000 636.612 M119.800 636.614 C 118.213 637.341,118.980 637.339,121.000 636.612 C 121.880 636.295,122.240 636.042,121.800 636.050 C 121.360 636.058,120.460 636.312,119.800 636.614 M56.800 637.800 C 57.570 638.097,58.560 638.341,59.000 638.343 C 59.440 638.345,58.990 638.091,58.000 637.779 C 55.739 637.067,54.933 637.081,56.800 637.800 M115.200 637.825 C 114.430 638.116,114.070 638.362,114.400 638.371 C 114.730 638.381,115.720 638.129,116.600 637.812 C 117.480 637.495,117.840 637.249,117.400 637.265 C 116.960 637.282,115.970 637.534,115.200 637.825 M61.600 639.021 C 62.590 639.333,63.760 639.578,64.200 639.567 C 64.640 639.555,64.100 639.296,63.000 638.991 C 60.385 638.265,59.276 638.288,61.600 639.021 M109.400 639.009 C 108.207 639.316,107.803 639.532,108.400 639.544 C 108.950 639.555,110.300 639.315,111.400 639.009 C 113.911 638.312,112.113 638.312,109.400 639.009 M67.800 640.197 C 68.900 640.520,70.340 640.766,71.000 640.742 C 72.263 640.698,71.671 640.554,67.400 639.866 C 65.999 639.641,66.048 639.682,67.800 640.197 M104.341 639.793 C 104.235 639.899,103.170 640.148,101.974 640.346 C 100.342 640.617,100.149 640.709,101.200 640.715 C 102.951 640.725,107.076 639.717,105.567 639.648 C 104.998 639.621,104.447 639.687,104.341 639.793 M75.400 641.223 C 76.280 641.405,77.540 641.544,78.200 641.531 C 79.244 641.511,79.192 641.465,77.800 641.177 C 76.920 640.995,75.660 640.856,75.000 640.869 C 73.956 640.889,74.008 640.935,75.400 641.223 M90.600 641.200 L 87.400 641.453 90.400 641.497 C 92.050 641.521,94.210 641.397,95.200 641.220 L 97.000 640.900 95.400 640.923 C 94.520 640.936,92.360 641.061,90.600 641.200 M81.513 641.895 C 82.676 641.976,84.476 641.976,85.513 641.893 C 86.551 641.811,85.600 641.745,83.400 641.746 C 81.200 641.747,80.351 641.814,81.513 641.895 " stroke="none" fill="#a1a1a1" fill-rule="evenodd"></path><path id="path3" d="M181.732 16.500 C 181.426 16.983,181.065 49.763,180.667 113.000 C 180.513 137.654,180.543 140.489,180.828 128.000 C 181.021 119.530,181.319 91.234,181.490 65.120 C 181.703 32.529,181.933 17.507,182.225 17.215 C 182.513 16.927,187.329 16.824,197.203 16.895 L 211.756 17.000 213.803 21.000 C 216.039 25.368,217.242 27.555,218.423 29.400 C 218.845 30.060,219.317 30.870,219.471 31.200 C 219.625 31.530,220.482 32.818,221.376 34.063 C 222.269 35.308,223.270 36.725,223.600 37.212 C 223.930 37.699,224.380 38.303,224.600 38.554 C 224.820 38.805,225.621 39.908,226.379 41.005 C 227.138 42.102,227.871 43.090,228.009 43.200 C 228.147 43.310,229.592 44.930,231.220 46.800 C 242.049 59.237,258.757 73.531,276.573 85.600 C 278.035 86.590,279.449 87.583,279.715 87.807 C 280.685 88.622,307.314 106.161,311.400 108.676 C 311.840 108.947,312.458 109.298,312.774 109.455 C 313.090 109.613,314.890 110.803,316.774 112.099 C 318.658 113.395,322.720 116.165,325.800 118.253 C 332.581 122.852,333.906 123.790,335.200 124.906 C 335.750 125.381,338.270 127.340,340.800 129.259 C 343.330 131.178,346.120 133.416,347.000 134.231 C 352.309 139.151,358.135 144.979,359.792 147.028 C 360.848 148.333,362.306 150.120,363.033 151.000 C 368.782 157.963,377.487 172.718,380.613 180.800 C 380.995 181.790,381.554 183.167,381.854 183.860 C 382.154 184.554,382.400 185.398,382.400 185.737 C 382.400 186.076,382.566 186.455,382.769 186.581 C 382.972 186.706,383.259 187.392,383.406 188.105 C 383.642 189.244,384.526 192.257,385.136 194.000 C 385.414 194.793,386.281 198.670,387.015 202.400 C 390.610 220.671,389.289 242.737,383.423 262.400 C 383.062 263.610,382.600 265.230,382.395 266.000 C 382.191 266.770,381.640 268.390,381.172 269.600 C 380.703 270.810,380.222 272.250,380.102 272.800 C 379.982 273.350,379.640 274.155,379.342 274.589 C 379.044 275.023,378.800 275.683,378.800 276.057 C 378.800 276.430,378.541 277.245,378.224 277.868 C 377.423 279.444,376.400 281.868,376.400 282.189 C 376.400 282.628,368.911 297.634,367.611 299.800 C 366.951 300.900,366.284 302.070,366.129 302.400 C 365.498 303.743,360.408 311.986,358.597 314.600 C 357.529 316.140,355.786 318.673,354.724 320.229 C 353.661 321.785,352.459 323.415,352.052 323.852 C 351.645 324.289,350.639 325.528,349.816 326.606 C 341.325 337.729,323.964 354.693,321.914 353.870 C 321.518 353.710,321.515 353.656,321.900 353.632 C 322.175 353.614,322.400 353.403,322.400 353.162 C 322.400 352.798,325.440 347.954,326.519 346.600 C 328.564 344.032,335.139 333.907,336.260 331.600 C 336.420 331.270,337.344 329.690,338.313 328.088 C 341.209 323.300,346.362 313.344,348.655 308.106 C 349.627 305.885,350.317 304.259,350.990 302.600 C 351.347 301.720,351.810 300.687,352.019 300.305 C 352.229 299.923,352.400 299.411,352.400 299.166 C 352.400 298.921,352.640 298.154,352.934 297.460 C 353.709 295.633,354.426 293.576,354.773 292.191 C 354.939 291.525,355.283 290.592,355.537 290.117 C 355.792 289.642,356.000 288.779,356.000 288.200 C 356.000 287.621,356.215 286.754,356.477 286.274 C 356.739 285.793,357.091 284.590,357.258 283.600 C 357.579 281.702,358.057 279.316,359.094 274.437 C 359.891 270.684,359.983 252.041,359.218 249.200 C 358.951 248.210,358.591 246.397,358.418 245.171 C 358.245 243.945,357.901 242.562,357.652 242.097 C 357.403 241.633,357.200 240.797,357.200 240.240 C 357.200 239.683,356.948 238.636,356.640 237.914 C 356.333 237.191,355.770 235.790,355.390 234.800 C 349.688 219.940,339.239 206.189,324.445 194.075 C 319.094 189.693,318.899 189.543,315.800 187.407 C 314.260 186.345,312.910 185.361,312.800 185.220 C 312.401 184.707,298.491 175.615,297.558 175.257 C 297.031 175.055,295.610 174.219,294.400 173.400 C 293.190 172.581,291.030 171.270,289.600 170.485 C 288.170 169.701,286.460 168.743,285.800 168.357 C 285.140 167.970,283.780 167.208,282.777 166.663 C 279.434 164.847,277.818 163.930,275.548 162.559 C 274.309 161.812,273.187 161.200,273.055 161.200 C 272.922 161.200,271.686 160.514,270.307 159.675 C 268.928 158.837,266.450 157.472,264.800 156.643 C 263.150 155.814,261.260 154.793,260.600 154.374 C 259.940 153.955,259.040 153.427,258.600 153.201 C 258.160 152.975,257.170 152.408,256.400 151.941 C 255.630 151.475,253.844 150.466,252.432 149.700 C 251.019 148.934,248.721 147.608,247.325 146.754 C 245.928 145.899,244.680 145.200,244.551 145.200 C 244.422 145.200,243.516 144.660,242.538 144.000 C 241.560 143.340,240.660 142.800,240.538 142.800 C 240.415 142.800,239.633 142.260,238.800 141.600 C 237.967 140.940,237.101 140.400,236.876 140.400 C 236.651 140.400,236.407 140.257,236.333 140.083 C 236.260 139.909,235.480 139.337,234.600 138.813 C 232.935 137.820,224.294 131.466,223.169 130.407 C 219.185 126.655,217.164 124.633,214.910 122.144 C 213.043 120.082,212.116 119.324,211.821 119.619 C 211.528 119.912,211.335 184.387,211.186 331.720 C 210.968 547.645,210.966 547.847,209.581 550.435 C 209.372 550.827,209.215 551.744,209.232 552.474 C 209.262 553.676,209.315 553.614,209.802 551.800 C 211.967 543.743,211.790 562.257,211.907 331.267 L 212.013 119.934 214.707 122.847 C 220.177 128.762,226.426 134.100,232.800 138.300 C 240.673 143.488,244.599 145.943,248.872 148.352 C 251.363 149.755,255.020 151.848,257.000 153.003 C 258.980 154.158,262.400 156.056,264.600 157.220 C 266.800 158.385,270.910 160.656,273.734 162.269 C 276.557 163.881,278.927 165.200,279.001 165.200 C 279.074 165.200,280.504 166.010,282.178 167.000 C 283.853 167.990,285.282 168.800,285.354 168.800 C 285.648 168.800,296.372 175.147,300.800 177.941 C 305.369 180.824,312.230 185.428,313.000 186.125 C 313.440 186.525,314.790 187.503,316.000 188.300 C 331.828 198.722,348.746 218.532,354.004 232.800 C 354.288 233.570,354.741 234.740,355.011 235.400 C 359.853 247.226,360.721 263.855,357.360 280.400 C 356.404 285.109,353.298 295.649,351.761 299.400 C 346.814 311.477,342.170 320.857,336.809 329.600 C 336.607 329.930,336.062 330.901,335.598 331.757 C 334.209 334.318,329.757 341.121,326.014 346.400 C 323.472 349.986,320.400 354.863,320.400 355.313 C 320.400 358.086,337.001 342.967,346.219 331.800 C 347.308 330.480,348.290 329.310,348.400 329.200 C 351.036 326.564,359.437 314.694,363.913 307.281 C 365.281 305.016,366.400 303.084,366.400 302.988 C 366.400 302.893,367.102 301.668,367.959 300.267 C 369.645 297.513,376.800 283.098,376.800 282.456 C 376.800 282.241,377.059 281.555,377.376 280.932 C 378.130 279.448,378.937 277.467,379.792 275.000 C 380.173 273.900,380.641 272.640,380.832 272.200 C 381.282 271.163,383.320 264.828,384.113 262.000 C 386.377 253.921,387.653 247.652,388.835 238.800 C 389.531 233.594,389.757 219.241,389.221 214.400 C 388.330 206.360,388.092 204.588,387.636 202.600 C 387.384 201.500,386.903 199.340,386.566 197.800 C 380.920 171.982,363.631 145.852,340.647 128.400 C 338.185 126.530,335.367 124.343,334.385 123.539 C 331.926 121.526,315.210 110.252,306.931 105.022 C 301.918 101.856,280.973 87.923,276.600 84.846 C 274.400 83.298,271.160 81.042,269.400 79.833 C 266.767 78.023,259.706 72.594,256.188 69.674 C 255.742 69.303,254.482 68.287,253.388 67.416 C 248.825 63.782,240.130 55.631,235.755 50.885 C 228.598 43.123,228.253 42.729,226.897 40.800 C 226.202 39.810,224.519 37.470,223.157 35.600 C 219.571 30.676,217.291 26.867,214.175 20.600 C 213.190 18.620,212.084 16.775,211.716 16.500 C 210.747 15.776,182.189 15.776,181.732 16.500 M179.857 176.300 C 179.716 192.965,179.537 219.380,179.458 235.000 C 179.349 256.324,179.388 259.713,179.610 248.600 C 180.003 229.012,180.573 146.000,180.315 146.000 C 180.204 146.000,179.998 159.635,179.857 176.300 M178.655 298.100 C 178.513 312.895,178.334 339.310,178.257 356.800 C 178.144 382.471,178.173 385.015,178.412 370.000 C 178.840 343.031,179.350 271.200,179.113 271.200 C 179.002 271.200,178.796 283.305,178.655 298.100 M177.697 408.641 C 177.536 434.050,176.776 470.177,176.395 470.562 C 176.181 470.778,174.938 470.557,173.318 470.016 C 166.482 467.730,159.789 466.303,150.400 465.129 C 146.156 464.599,129.931 464.616,123.000 465.159 C 114.068 465.858,103.509 467.615,96.200 469.617 C 94.440 470.099,92.460 470.624,91.800 470.783 C 84.792 472.475,70.421 478.603,61.998 483.490 C 38.000 497.415,18.269 519.228,9.798 541.200 C 9.417 542.190,8.951 543.360,8.764 543.800 C 5.829 550.696,3.600 562.728,3.600 571.675 C 3.600 584.381,6.422 594.337,13.330 606.000 C 22.478 621.446,41.628 634.281,62.200 638.756 C 69.737 640.396,73.409 640.918,81.200 641.460 C 84.424 641.684,101.158 640.630,103.800 640.036 C 104.680 639.838,107.200 639.370,109.400 638.996 C 114.394 638.146,117.847 637.263,125.800 634.801 C 129.386 633.691,131.304 633.013,133.800 631.970 C 134.240 631.786,135.721 631.177,137.090 630.617 C 163.529 619.800,186.946 599.979,199.491 577.800 C 201.536 574.184,206.000 564.931,206.000 564.308 C 206.000 564.006,206.158 563.589,206.351 563.380 C 206.545 563.171,207.096 561.650,207.576 560.000 C 208.057 558.350,208.618 556.587,208.825 556.081 C 209.031 555.576,209.191 554.856,209.179 554.481 C 209.157 553.745,208.531 555.305,207.445 558.800 C 206.725 561.117,205.925 563.273,204.923 565.600 C 204.592 566.370,204.090 567.540,203.808 568.200 C 202.633 570.950,200.565 575.037,200.100 575.529 C 199.825 575.819,199.600 576.222,199.600 576.423 C 199.600 576.785,197.248 580.816,196.813 581.200 C 196.688 581.310,195.574 582.930,194.337 584.800 C 193.100 586.670,191.687 588.650,191.198 589.200 C 190.708 589.750,190.015 590.650,189.658 591.200 C 184.068 599.798,161.139 618.651,149.188 624.476 C 147.739 625.182,140.388 628.594,139.000 629.205 C 135.202 630.875,134.390 631.200,134.017 631.200 C 133.781 631.200,133.277 631.371,132.895 631.581 C 128.874 633.784,112.926 638.114,104.800 639.208 C 103.370 639.401,100.940 639.757,99.400 639.999 C 94.459 640.776,75.647 640.687,71.000 639.865 C 64.564 638.726,58.083 637.262,55.400 636.341 C 54.740 636.115,53.660 635.778,53.000 635.592 C 50.800 634.973,47.623 633.605,41.958 630.838 C 28.763 624.393,17.587 613.598,11.272 601.200 C 10.768 600.210,9.940 598.653,9.432 597.740 C 8.924 596.826,8.412 595.656,8.295 595.140 C 8.043 594.032,7.314 591.925,6.548 590.086 C 6.246 589.364,6.000 588.227,6.000 587.560 C 6.000 586.893,5.805 585.983,5.566 585.537 C 3.298 581.298,3.895 562.434,6.610 552.600 C 6.913 551.500,7.242 550.150,7.340 549.600 C 7.566 548.335,8.350 546.114,9.055 544.738 C 9.355 544.154,9.600 543.404,9.600 543.071 C 9.600 542.737,9.854 541.955,10.165 541.332 C 10.476 540.710,11.003 539.570,11.337 538.800 C 12.745 535.550,13.547 533.982,15.811 530.051 C 17.125 527.769,18.513 525.429,18.896 524.851 C 19.278 524.273,19.713 523.530,19.862 523.200 C 20.011 522.870,20.643 521.944,21.266 521.142 C 21.890 520.341,22.400 519.591,22.400 519.476 C 22.400 519.362,22.751 518.848,23.179 518.334 C 23.608 517.820,25.351 515.690,27.054 513.600 C 34.608 504.327,46.560 493.757,56.273 487.760 C 57.993 486.698,59.490 485.732,59.600 485.614 C 59.710 485.497,60.520 485.013,61.400 484.539 C 62.280 484.066,63.630 483.315,64.400 482.871 C 68.457 480.532,76.040 476.971,80.400 475.355 C 81.830 474.826,83.360 474.233,83.800 474.038 C 84.809 473.592,87.503 472.722,90.600 471.841 C 91.920 471.466,93.834 470.898,94.854 470.579 C 95.873 470.261,97.085 470.000,97.546 470.000 C 98.007 470.000,99.062 469.750,99.892 469.445 C 100.721 469.139,103.200 468.586,105.400 468.216 C 107.600 467.845,110.300 467.378,111.400 467.179 C 120.553 465.515,145.271 464.715,151.600 465.878 C 153.030 466.140,156.000 466.649,158.200 467.008 C 163.538 467.878,167.179 468.721,170.800 469.926 C 175.328 471.432,176.339 471.604,176.964 470.979 C 177.678 470.265,178.100 445.763,177.922 415.400 C 177.809 396.086,177.781 395.261,177.697 408.641 " stroke="none" fill="#747474" fill-rule="evenodd"></path><path id="path4" d="M181.467 15.467 C 180.896 16.037,181.239 16.407,181.974 16.014 C 182.465 15.751,187.938 15.600,196.992 15.600 L 211.236 15.600 212.218 16.582 C 212.857 17.221,213.200 17.369,213.200 17.004 C 213.200 15.314,212.148 15.200,196.578 15.200 C 188.413 15.200,181.613 15.320,181.467 15.467 M180.702 37.000 C 180.538 48.000,180.341 68.520,180.263 82.600 C 180.186 96.680,180.174 106.400,180.237 104.200 C 180.541 93.531,181.258 29.391,181.138 23.600 C 181.062 19.959,180.866 25.967,180.702 37.000 M213.200 18.183 C 213.200 18.530,216.784 25.159,218.390 27.783 C 219.275 29.230,220.005 30.546,220.011 30.707 C 220.017 30.868,220.578 31.630,221.258 32.400 C 222.304 33.586,222.390 33.627,221.816 32.666 C 221.443 32.043,219.934 29.523,218.462 27.066 C 216.991 24.610,215.290 21.565,214.681 20.300 C 213.717 18.295,213.200 17.556,213.200 18.183 M223.675 35.895 C 225.129 37.974,226.000 38.992,226.000 38.611 C 226.000 38.298,222.763 34.000,222.527 34.000 C 222.430 34.000,222.946 34.853,223.675 35.895 M226.200 39.506 C 226.420 39.668,227.042 40.430,227.582 41.200 C 228.121 41.970,229.201 43.306,229.982 44.169 C 235.198 49.940,236.594 51.422,240.186 55.006 C 244.976 59.786,249.200 63.751,249.200 63.469 C 249.200 63.357,245.459 59.516,240.886 54.933 C 232.258 46.285,230.013 43.863,227.909 40.934 C 227.225 39.980,226.470 39.203,226.232 39.206 C 225.952 39.210,225.940 39.315,226.200 39.506 M249.802 64.004 C 249.939 64.225,251.345 65.431,252.926 66.682 C 254.507 67.933,255.890 69.065,256.000 69.197 C 256.110 69.329,257.370 70.321,258.800 71.400 C 260.230 72.479,261.532 73.551,261.694 73.781 C 261.890 74.061,261.990 74.064,261.994 73.789 C 262.001 73.313,261.539 72.900,258.000 70.224 C 256.570 69.142,255.095 67.948,254.723 67.570 C 254.350 67.192,253.225 66.293,252.223 65.573 C 251.220 64.853,250.400 64.115,250.400 63.932 C 250.400 63.749,250.209 63.600,249.976 63.600 C 249.743 63.600,249.665 63.782,249.802 64.004 M262.400 74.152 C 262.400 74.236,263.390 75.051,264.600 75.965 C 265.810 76.878,266.800 77.479,266.800 77.298 C 266.800 77.118,265.905 76.302,264.810 75.485 C 262.941 74.090,262.400 73.790,262.400 74.152 M267.800 78.239 C 269.115 79.230,274.771 83.259,278.300 85.718 C 280.115 86.983,281.600 87.828,281.600 87.596 C 281.600 87.365,281.285 87.059,280.900 86.918 C 280.515 86.776,279.179 85.882,277.930 84.930 C 276.682 83.979,275.544 83.200,275.402 83.200 C 275.259 83.200,274.908 82.975,274.620 82.700 C 274.333 82.425,273.691 81.930,273.194 81.600 C 272.697 81.270,271.235 80.235,269.944 79.300 C 267.813 77.756,265.911 76.815,267.800 78.239 M282.175 88.360 C 282.559 88.981,285.200 90.393,285.200 89.977 C 285.200 89.759,284.767 89.416,284.239 89.215 C 283.710 89.014,283.160 88.658,283.015 88.425 C 282.871 88.191,282.573 88.000,282.353 88.000 C 282.133 88.000,282.053 88.162,282.175 88.360 M287.862 92.100 C 290.137 93.745,291.705 94.804,297.200 98.403 C 302.081 101.600,302.800 102.010,302.800 101.595 C 302.800 101.367,302.395 101.005,301.900 100.791 C 301.029 100.414,299.893 99.739,299.022 99.081 C 298.104 98.388,294.319 96.000,294.137 96.000 C 294.030 96.000,293.692 95.775,293.385 95.500 C 292.034 94.288,286.246 90.400,285.794 90.400 C 285.639 90.400,286.570 91.165,287.862 92.100 M305.200 103.388 C 305.200 103.575,309.257 106.316,310.400 106.902 C 310.730 107.071,311.488 107.522,312.084 107.905 C 316.342 110.637,317.200 111.130,317.200 110.848 C 317.200 110.672,316.795 110.321,316.300 110.067 C 315.245 109.527,314.419 109.001,312.261 107.500 C 311.391 106.895,310.452 106.400,310.173 106.400 C 309.895 106.400,309.607 106.265,309.533 106.100 C 309.243 105.446,305.200 102.916,305.200 103.388 M318.400 112.013 C 319.940 113.224,320.122 113.356,321.300 114.112 C 321.905 114.501,322.400 114.629,322.400 114.397 C 322.400 114.165,322.085 113.861,321.700 113.721 C 321.315 113.581,320.344 112.957,319.542 112.334 C 318.741 111.710,317.931 111.206,317.742 111.213 C 317.554 111.221,317.850 111.581,318.400 112.013 M322.975 115.160 C 323.097 115.358,323.873 115.902,324.699 116.369 C 326.107 117.166,326.138 117.168,325.200 116.409 C 324.650 115.964,323.983 115.420,323.717 115.200 C 323.116 114.702,322.678 114.678,322.975 115.160 M326.575 117.560 C 326.697 117.758,327.473 118.302,328.299 118.769 C 329.707 119.566,329.738 119.568,328.800 118.809 C 328.250 118.364,327.583 117.820,327.317 117.600 C 326.716 117.102,326.278 117.078,326.575 117.560 M330.000 119.742 C 330.000 119.831,331.395 120.950,333.100 122.230 C 334.805 123.511,336.438 124.792,336.729 125.079 C 337.019 125.366,337.379 125.603,337.529 125.606 C 337.678 125.610,338.610 126.327,339.600 127.200 C 340.590 128.073,341.530 128.790,341.690 128.794 C 342.409 128.809,350.291 135.917,356.779 142.400 C 359.091 144.710,360.419 145.876,359.730 144.992 C 358.356 143.226,350.587 135.650,347.230 132.800 C 346.064 131.810,344.905 130.811,344.655 130.581 C 344.405 130.350,341.950 128.469,339.200 126.400 C 336.450 124.331,333.981 122.450,333.714 122.219 C 332.357 121.049,330.000 119.477,330.000 119.742 M212.040 329.300 C 212.062 443.755,212.224 536.950,212.400 536.400 C 212.576 535.850,212.738 442.475,212.760 328.900 C 212.782 215.325,212.908 122.400,213.040 122.400 C 213.171 122.400,214.731 123.937,216.506 125.815 C 218.280 127.693,221.458 130.618,223.566 132.315 C 225.675 134.012,227.490 135.490,227.600 135.600 C 228.485 136.485,241.727 145.202,244.637 146.816 C 245.937 147.537,247.720 148.589,248.600 149.154 C 249.480 149.720,251.138 150.665,252.284 151.255 C 253.430 151.845,255.860 153.218,257.684 154.307 C 259.508 155.396,262.890 157.279,265.200 158.491 C 267.510 159.704,270.309 161.234,271.421 161.891 C 273.761 163.275,275.283 164.131,283.200 168.518 C 286.390 170.286,289.470 172.017,290.044 172.366 C 290.618 172.715,293.228 174.286,295.844 175.857 C 298.460 177.428,302.378 179.903,304.552 181.357 C 306.726 182.811,308.580 184.000,308.672 184.000 C 308.765 184.000,310.227 185.041,311.920 186.314 C 313.614 187.587,315.900 189.240,317.000 189.988 C 318.100 190.735,319.090 191.453,319.200 191.582 C 319.310 191.712,320.637 192.779,322.149 193.954 C 326.410 197.266,326.594 197.433,332.916 203.732 C 336.190 206.995,338.931 209.602,339.007 209.526 C 339.197 209.337,330.687 200.599,328.159 198.386 C 324.528 195.209,323.841 194.632,321.200 192.546 C 315.379 187.946,302.378 179.019,297.400 176.204 C 296.300 175.582,294.500 174.498,293.400 173.794 C 292.300 173.090,290.320 171.924,289.000 171.204 C 287.680 170.483,286.420 169.764,286.200 169.605 C 285.980 169.445,284.810 168.777,283.600 168.119 C 282.390 167.462,279.690 165.968,277.600 164.800 C 275.510 163.632,272.810 162.138,271.600 161.481 C 270.390 160.823,269.220 160.149,269.000 159.982 C 268.780 159.815,266.986 158.830,265.014 157.792 C 263.042 156.754,259.738 154.929,257.672 153.736 C 255.605 152.543,252.719 150.914,251.257 150.117 C 249.796 149.319,248.510 148.558,248.400 148.425 C 248.290 148.292,247.750 147.966,247.200 147.700 C 240.143 144.288,217.942 128.263,217.120 125.988 C 216.904 125.390,212.745 121.200,212.368 121.200 C 212.144 121.200,212.016 202.899,212.040 329.300 M179.498 157.000 C 179.332 166.460,179.138 186.620,179.065 201.800 C 178.993 216.980,178.982 226.430,179.040 222.800 C 179.675 183.148,180.050 151.055,179.938 146.000 C 179.853 142.193,179.684 146.437,179.498 157.000 M363.534 150.300 C 365.858 153.093,370.294 159.592,373.227 164.503 C 374.641 166.870,375.862 168.615,375.940 168.380 C 376.018 168.146,375.821 167.649,375.502 167.277 C 375.183 166.905,374.802 166.330,374.656 166.000 C 374.511 165.670,374.035 164.860,373.600 164.200 C 373.165 163.540,372.683 162.730,372.530 162.400 C 372.059 161.389,366.522 153.419,364.888 151.400 C 364.710 151.180,364.134 150.415,363.607 149.700 C 363.080 148.985,362.493 148.400,362.301 148.400 C 362.109 148.400,362.664 149.255,363.534 150.300 M377.135 171.363 C 377.721 172.553,378.271 173.456,378.359 173.371 C 378.582 173.153,376.670 169.200,376.341 169.200 C 376.192 169.200,376.550 170.173,377.135 171.363 M379.264 175.639 C 379.700 176.540,380.128 177.206,380.215 177.118 C 380.444 176.890,379.089 174.000,378.753 174.000 C 378.599 174.000,378.829 174.737,379.264 175.639 M380.417 178.000 C 380.431 178.717,381.565 180.800,381.586 180.146 C 381.594 179.896,381.331 179.176,381.002 178.546 C 380.674 177.916,380.410 177.670,380.417 178.000 M381.617 181.200 C 381.631 181.917,382.765 184.000,382.786 183.346 C 382.794 183.096,382.531 182.376,382.202 181.746 C 381.874 181.116,381.610 180.870,381.617 181.200 M382.800 184.278 C 382.800 184.515,383.069 185.224,383.398 185.854 C 383.875 186.771,383.993 186.840,383.985 186.200 C 383.979 185.760,383.710 185.051,383.387 184.624 C 383.064 184.196,382.800 184.041,382.800 184.278 M384.000 188.044 C 384.000 188.372,384.163 188.811,384.361 189.020 C 384.560 189.229,384.809 189.760,384.915 190.200 C 385.072 190.852,385.113 190.815,385.141 190.000 C 385.159 189.450,384.910 188.651,384.587 188.224 C 384.147 187.642,384.000 187.597,384.000 188.044 M385.219 191.600 C 385.215 191.710,385.471 192.520,385.788 193.400 C 386.266 194.725,386.368 194.824,386.382 193.976 C 386.392 193.414,386.136 192.604,385.813 192.176 C 385.490 191.749,385.222 191.490,385.219 191.600 M386.580 196.800 C 386.740 197.350,387.028 198.430,387.220 199.200 C 387.543 200.490,387.560 200.447,387.431 198.665 C 387.354 197.601,387.066 196.521,386.791 196.265 C 386.397 195.898,386.352 196.011,386.580 196.800 M387.790 202.200 C 387.960 202.640,388.244 204.080,388.421 205.400 L 388.743 207.800 388.653 205.101 C 388.598 203.455,388.352 202.207,388.022 201.901 C 387.578 201.488,387.537 201.541,387.790 202.200 M389.047 210.000 C 389.486 211.740,389.516 236.338,389.083 238.800 C 388.811 240.349,388.838 240.488,389.283 239.800 C 390.066 238.589,390.032 209.858,389.247 209.120 C 388.780 208.680,388.749 208.816,389.047 210.000 M339.202 210.300 C 339.201 210.575,339.344 210.800,339.521 210.800 C 339.959 210.800,346.960 220.316,348.025 222.359 C 348.799 223.843,349.600 224.795,349.600 224.230 C 349.600 223.754,346.898 219.597,344.250 216.000 C 341.064 211.670,339.205 209.571,339.202 210.300 M350.800 227.275 C 350.800 227.620,351.070 228.126,351.400 228.400 C 352.163 229.034,352.156 228.439,351.387 227.424 C 350.917 226.802,350.800 226.772,350.800 227.275 M352.002 229.624 C 352.001 229.966,352.264 230.596,352.587 231.024 C 353.351 232.034,353.359 231.596,352.602 230.146 C 352.274 229.516,352.004 229.281,352.002 229.624 M353.217 232.400 C 353.231 233.117,354.365 235.200,354.386 234.546 C 354.394 234.296,354.131 233.576,353.802 232.946 C 353.474 232.316,353.210 232.070,353.217 232.400 M354.414 235.454 C 354.406 235.704,354.669 236.424,354.998 237.054 C 355.326 237.684,355.590 237.930,355.583 237.600 C 355.569 236.883,354.435 234.800,354.414 235.454 M355.616 239.276 C 355.607 239.648,355.780 240.064,356.000 240.200 C 356.220 240.336,356.425 240.932,356.454 241.524 C 356.500 242.432,356.536 242.463,356.679 241.723 C 356.773 241.241,356.576 240.341,356.241 239.723 C 355.834 238.972,355.627 238.824,355.616 239.276 M388.476 243.526 C 388.434 244.696,388.208 246.011,387.974 246.448 C 387.740 246.886,387.628 247.459,387.726 247.722 C 388.112 248.756,388.827 245.728,388.693 243.627 L 388.551 241.400 388.476 243.526 M356.828 243.676 C 356.813 244.268,356.980 244.864,357.200 245.000 C 357.678 245.295,357.678 244.511,357.200 243.400 C 356.893 242.686,356.853 242.715,356.828 243.676 M357.709 247.200 C 357.709 248.190,357.787 248.595,357.882 248.100 C 357.978 247.605,357.978 246.795,357.882 246.300 C 357.787 245.805,357.709 246.210,357.709 247.200 M358.046 250.400 C 358.027 251.170,358.187 252.070,358.400 252.400 C 358.887 253.154,358.887 251.522,358.400 250.000 C 358.107 249.084,358.077 249.117,358.046 250.400 M387.267 250.326 C 387.230 251.056,387.008 252.011,386.774 252.448 C 386.540 252.886,386.428 253.459,386.526 253.722 C 386.851 254.591,387.642 251.872,387.487 250.423 L 387.334 249.000 387.267 250.326 M358.968 261.000 C 358.968 265.400,359.026 267.255,359.098 265.121 C 359.170 262.988,359.170 259.388,359.099 257.121 C 359.027 254.855,358.968 256.600,358.968 261.000 M386.060 256.076 C 386.027 256.668,385.820 257.264,385.600 257.400 C 385.380 257.536,385.200 257.947,385.200 258.313 C 385.200 258.836,385.334 258.787,385.826 258.084 C 386.171 257.592,386.378 256.698,386.286 256.095 L 386.120 255.000 386.060 256.076 M384.530 261.463 C 384.271 262.304,384.121 263.055,384.197 263.130 C 384.496 263.430,385.243 261.511,385.125 260.746 C 385.035 260.158,384.870 260.356,384.530 261.463 M383.300 265.485 C 382.583 267.026,382.686 268.028,383.417 266.625 C 383.754 265.979,383.978 265.217,383.915 264.931 C 383.852 264.644,383.575 264.894,383.300 265.485 M382.085 269.373 C 381.386 270.908,381.492 271.617,382.213 270.233 C 382.548 269.591,382.765 268.896,382.696 268.688 C 382.627 268.480,382.352 268.788,382.085 269.373 M358.288 270.133 C 358.130 270.536,358.018 271.526,358.040 272.333 L 358.080 273.800 358.452 272.211 C 358.881 270.381,358.765 268.919,358.288 270.133 M178.077 291.000 C 177.804 302.000,177.627 320.450,177.683 332.000 C 177.739 343.550,177.820 348.770,177.864 343.600 C 177.907 338.430,178.161 320.340,178.428 303.400 C 178.695 286.460,178.837 272.240,178.744 271.800 C 178.650 271.360,178.351 280.000,178.077 291.000 M380.837 272.711 C 380.553 273.398,380.414 274.193,380.528 274.480 C 380.646 274.774,380.751 274.644,380.768 274.180 C 380.786 273.729,381.000 273.160,381.245 272.915 C 381.490 272.670,381.614 272.243,381.522 271.966 C 381.430 271.689,381.121 272.024,380.837 272.711 M357.714 275.800 C 357.717 276.900,357.795 277.303,357.887 276.695 C 357.979 276.086,357.977 275.186,357.882 274.695 C 357.787 274.203,357.711 274.700,357.714 275.800 M378.917 278.015 C 378.671 278.667,378.614 279.200,378.791 279.200 C 379.120 279.200,379.751 277.217,379.501 276.968 C 379.426 276.892,379.163 277.364,378.917 278.015 M357.092 278.242 C 356.931 278.402,356.811 278.998,356.825 279.567 L 356.851 280.600 357.237 279.634 C 357.653 278.594,357.567 277.767,357.092 278.242 M378.046 280.220 C 378.021 280.671,377.787 281.253,377.527 281.513 C 377.266 281.774,377.162 282.095,377.294 282.228 C 377.670 282.603,378.472 280.839,378.272 280.079 C 378.131 279.546,378.083 279.576,378.046 280.220 M356.317 282.000 C 356.174 282.770,355.952 283.940,355.823 284.600 C 355.644 285.521,355.734 285.428,356.210 284.200 C 356.551 283.320,356.773 282.150,356.703 281.600 C 356.595 280.746,356.538 280.804,356.317 282.000 M376.504 283.884 C 376.231 284.466,376.082 285.015,376.172 285.105 C 376.412 285.346,377.273 283.618,377.126 283.191 C 377.057 282.990,376.777 283.302,376.504 283.884 M375.256 286.655 C 374.776 287.727,374.786 287.758,375.418 287.139 C 375.789 286.776,376.020 286.260,375.931 285.994 C 375.842 285.727,375.539 286.025,375.256 286.655 M354.900 287.670 C 354.202 289.605,354.303 290.496,355.030 288.821 C 355.359 288.062,355.577 287.181,355.514 286.862 C 355.451 286.544,355.175 286.907,354.900 287.670 M353.700 291.485 C 352.983 293.026,353.086 294.028,353.817 292.625 C 354.154 291.979,354.378 291.217,354.315 290.931 C 354.252 290.644,353.975 290.894,353.700 291.485 M370.976 295.260 C 369.345 298.499,367.827 301.188,364.786 306.223 C 363.266 308.740,362.201 310.800,362.421 310.800 C 362.640 310.800,362.995 310.395,363.209 309.900 C 363.423 309.405,363.774 308.730,363.990 308.400 C 366.870 303.990,372.531 293.598,372.222 293.288 C 372.129 293.196,371.569 294.083,370.976 295.260 M352.473 295.287 C 352.213 295.547,352.001 296.129,352.002 296.580 C 352.005 297.258,352.109 297.200,352.610 296.240 C 353.273 294.969,353.212 294.548,352.473 295.287 M351.299 298.391 C 351.024 298.830,350.801 299.507,350.802 299.895 C 350.804 300.368,351.005 300.217,351.413 299.433 C 352.125 298.069,352.031 297.218,351.299 298.391 M350.073 301.687 C 349.813 301.947,349.601 302.529,349.602 302.980 C 349.605 303.658,349.709 303.600,350.210 302.640 C 350.873 301.369,350.812 300.948,350.073 301.687 M348.832 304.739 C 348.595 305.184,348.401 305.784,348.402 306.074 C 348.404 306.363,348.677 306.078,349.010 305.440 C 349.342 304.803,349.536 304.202,349.440 304.106 C 349.343 304.010,349.070 304.295,348.832 304.739 M347.036 308.802 C 346.466 309.937,346.002 311.076,346.005 311.333 C 346.008 311.590,346.549 310.737,347.209 309.437 C 347.868 308.137,348.332 306.998,348.240 306.906 C 348.148 306.814,347.606 307.668,347.036 308.802 M358.011 316.865 C 355.928 319.942,353.364 323.526,352.313 324.830 C 351.263 326.133,350.562 327.200,350.756 327.200 C 350.949 327.200,351.378 326.795,351.708 326.300 C 352.038 325.805,352.689 324.967,353.154 324.439 C 353.619 323.910,354.000 323.368,354.000 323.235 C 354.000 323.101,354.405 322.534,354.900 321.975 C 355.395 321.415,355.980 320.667,356.200 320.312 C 356.420 319.956,357.843 317.849,359.362 315.628 C 360.881 313.407,362.051 311.518,361.962 311.430 C 361.873 311.342,360.095 313.788,358.011 316.865 M344.518 314.300 C 343.909 315.565,343.316 316.690,343.200 316.800 C 342.986 317.003,340.719 321.469,340.459 322.200 C 339.795 324.068,343.918 316.610,345.491 313.097 C 346.424 311.015,345.622 312.006,344.518 314.300 M339.600 323.400 C 339.317 323.741,339.176 324.109,339.286 324.219 C 339.396 324.329,339.717 324.141,340.000 323.800 C 340.283 323.459,340.424 323.091,340.314 322.981 C 340.204 322.871,339.883 323.059,339.600 323.400 M338.540 325.273 C 337.271 327.239,335.548 330.482,335.695 330.629 C 335.768 330.701,336.594 329.487,337.530 327.930 C 338.910 325.638,339.775 323.360,338.540 325.273 M346.429 332.030 C 338.876 340.921,332.955 346.886,326.822 351.783 C 319.224 357.849,318.024 357.075,323.453 349.613 C 324.419 348.286,325.053 347.200,324.863 347.200 C 324.324 347.200,319.697 354.505,319.540 355.603 C 319.093 358.728,329.450 351.345,337.156 343.045 C 337.950 342.190,339.051 341.020,339.601 340.445 C 340.691 339.307,345.292 334.096,346.837 332.250 C 347.367 331.617,348.381 330.447,349.091 329.650 C 350.201 328.403,350.673 327.600,350.296 327.600 C 350.239 327.600,348.499 329.593,346.429 332.030 M334.573 332.100 C 334.419 332.595,334.171 333.090,334.022 333.200 C 333.581 333.527,329.950 339.678,330.340 339.437 C 330.654 339.243,332.790 335.928,334.892 332.371 C 335.272 331.727,335.420 331.200,335.219 331.200 C 335.018 331.200,334.728 331.605,334.573 332.100 M328.881 341.197 C 328.507 341.856,328.065 342.396,327.900 342.397 C 327.735 342.399,327.600 342.602,327.600 342.849 C 327.600 343.165,327.749 343.174,328.100 342.880 C 328.736 342.348,330.125 340.000,329.804 340.000 C 329.671 340.000,329.256 340.539,328.881 341.197 M326.247 344.973 C 325.163 346.395,324.818 347.256,325.705 346.329 C 326.352 345.651,327.669 343.600,327.457 343.600 C 327.368 343.600,326.824 344.218,326.247 344.973 M177.043 402.000 C 176.555 417.052,176.129 470.768,176.500 470.539 C 176.665 470.436,176.799 463.568,176.798 455.276 C 176.797 446.984,176.989 431.650,177.225 421.200 C 177.460 410.750,177.596 399.680,177.526 396.600 C 177.416 391.726,177.354 392.427,177.043 402.000 M129.800 463.832 C 129.580 463.924,127.510 464.166,125.200 464.368 C 121.798 464.666,122.292 464.685,127.800 464.468 C 136.461 464.127,141.049 464.130,146.800 464.481 L 151.400 464.761 148.000 464.198 C 144.884 463.681,130.829 463.398,129.800 463.832 M115.200 465.200 C 114.870 465.413,113.790 465.619,112.800 465.658 C 111.505 465.708,111.336 465.771,112.200 465.880 C 112.860 465.963,114.840 465.770,116.600 465.452 C 119.636 464.901,119.698 464.870,117.800 464.842 C 116.700 464.826,115.530 464.987,115.200 465.200 M154.800 465.393 C 156.010 465.708,157.630 465.951,158.400 465.933 C 160.126 465.892,157.528 465.277,154.400 464.986 L 152.600 464.819 154.800 465.393 M107.600 466.358 C 107.270 466.542,105.838 466.808,104.418 466.949 C 102.997 467.090,101.647 467.408,101.418 467.657 C 101.112 467.988,101.267 468.035,102.000 467.834 C 102.550 467.683,104.170 467.387,105.600 467.177 C 107.030 466.966,108.830 466.634,109.600 466.438 L 111.000 466.082 109.600 466.053 C 108.830 466.037,107.930 466.175,107.600 466.358 M160.200 466.186 C 160.420 466.283,161.950 466.644,163.600 466.988 C 166.784 467.653,170.100 468.525,171.366 469.030 C 171.879 469.235,172.042 469.192,171.861 468.899 C 171.712 468.658,171.008 468.347,170.295 468.207 C 169.583 468.068,168.640 467.790,168.200 467.591 C 167.760 467.391,166.410 467.027,165.200 466.782 C 162.775 466.290,159.570 465.908,160.200 466.186 M97.800 468.285 C 97.360 468.391,96.820 468.665,96.600 468.893 C 96.325 469.179,96.513 469.218,97.200 469.020 C 97.750 468.860,98.830 468.587,99.600 468.411 C 100.960 468.101,100.966 468.092,99.800 468.092 C 99.140 468.093,98.240 468.179,97.800 468.285 M92.842 469.634 C 92.315 469.845,91.994 470.128,92.129 470.262 C 92.264 470.397,92.875 470.314,93.487 470.076 C 94.099 469.839,94.960 469.566,95.400 469.469 C 95.908 469.357,95.762 469.285,95.000 469.272 C 94.340 469.260,93.369 469.423,92.842 469.634 M173.800 469.812 C 175.797 470.531,176.001 470.527,175.024 469.787 C 174.596 469.464,173.786 469.208,173.224 469.218 C 172.376 469.232,172.475 469.334,173.800 469.812 M88.576 471.033 C 87.811 471.656,87.811 471.661,88.600 471.383 C 89.040 471.228,89.940 470.962,90.600 470.791 L 91.800 470.482 90.576 470.441 C 89.904 470.418,89.004 470.685,88.576 471.033 M84.976 472.187 C 83.999 472.927,84.203 472.931,86.200 472.212 C 87.525 471.734,87.624 471.632,86.776 471.618 C 86.214 471.608,85.404 471.864,84.976 472.187 M81.776 473.387 C 80.779 474.142,81.158 474.152,82.854 473.416 C 83.847 472.985,83.984 472.827,83.376 472.816 C 82.924 472.807,82.204 473.064,81.776 473.387 M77.248 475.048 C 74.130 476.471,74.949 476.602,78.227 475.204 C 79.752 474.554,80.640 474.032,80.200 474.044 C 79.760 474.056,78.432 474.508,77.248 475.048 M73.200 476.799 C 72.870 476.992,71.700 477.567,70.600 478.075 C 69.500 478.583,68.510 479.096,68.400 479.213 C 68.290 479.331,67.255 479.869,66.100 480.408 C 64.945 480.948,64.000 481.518,64.000 481.676 C 64.000 481.834,65.845 481.023,68.100 479.873 C 70.355 478.723,72.830 477.482,73.600 477.116 C 74.370 476.751,74.730 476.450,74.400 476.449 C 74.070 476.448,73.530 476.605,73.200 476.799 M62.185 482.425 C 62.040 482.658,61.535 483.026,61.061 483.242 C 59.418 483.991,51.098 489.460,49.639 490.750 C 49.110 491.218,48.570 491.603,48.439 491.606 C 48.307 491.610,47.627 492.105,46.926 492.706 C 46.225 493.308,45.063 494.250,44.345 494.800 C 39.120 498.800,29.921 507.820,26.397 512.400 C 25.636 513.390,24.740 514.410,24.407 514.667 C 24.074 514.924,23.912 515.246,24.048 515.381 C 24.183 515.517,24.993 514.775,25.847 513.733 C 35.105 502.436,46.352 492.682,59.000 484.980 C 64.091 481.880,63.926 482.000,63.090 482.000 C 62.737 482.000,62.329 482.191,62.185 482.425 M22.475 517.184 C 21.994 517.835,21.600 518.478,21.600 518.612 C 21.600 518.747,21.375 519.108,21.100 519.415 C 20.094 520.537,19.739 521.050,18.209 523.600 C 17.351 525.030,16.548 526.290,16.424 526.400 C 16.052 526.733,14.766 529.299,14.903 529.436 C 14.973 529.506,15.882 528.177,16.924 526.482 C 19.655 522.037,19.602 522.116,21.916 518.922 C 23.079 517.315,23.878 516.000,23.691 516.000 C 23.504 516.000,22.957 516.533,22.475 517.184 M14.131 530.490 C 13.238 531.677,10.003 538.505,10.040 539.124 C 10.071 539.658,10.135 539.632,10.342 539.000 C 10.720 537.846,12.817 533.658,13.917 531.862 C 14.802 530.415,14.964 529.383,14.131 530.490 M8.994 541.227 C 8.846 541.902,8.473 542.937,8.165 543.527 C 7.857 544.117,7.604 544.904,7.602 545.276 C 7.601 545.648,7.420 546.064,7.200 546.200 C 6.980 546.336,6.805 546.752,6.812 547.124 C 6.827 547.975,7.478 546.965,8.006 545.271 C 8.190 544.682,8.698 543.255,9.136 542.100 C 9.573 540.945,9.781 540.000,9.597 540.000 C 9.414 540.000,9.142 540.552,8.994 541.227 M211.515 544.400 C 211.358 545.610,211.131 547.050,211.010 547.600 C 210.852 548.325,210.963 548.230,211.416 547.254 C 211.781 546.467,211.990 545.137,211.920 544.054 L 211.800 542.200 211.515 544.400 M6.033 549.833 C 5.741 550.824,5.589 551.722,5.696 551.829 C 5.802 551.936,6.119 551.203,6.400 550.200 C 6.681 549.197,6.833 548.299,6.738 548.204 C 6.643 548.110,6.326 548.843,6.033 549.833 M210.328 551.000 C 210.189 551.660,209.958 552.650,209.814 553.200 C 209.567 554.151,209.586 554.145,210.201 553.078 C 210.558 552.461,210.789 551.471,210.715 550.878 L 210.581 549.800 210.328 551.000 M4.900 554.367 C 4.193 556.658,4.313 557.756,5.043 555.673 C 5.376 554.723,5.592 553.676,5.524 553.347 C 5.456 553.017,5.175 553.476,4.900 554.367 M208.854 556.602 C 208.564 557.404,208.409 558.142,208.509 558.243 C 208.781 558.514,209.705 556.115,209.531 555.592 C 209.448 555.345,209.144 555.800,208.854 556.602 M3.680 560.619 C 3.416 561.605,3.227 563.264,3.260 564.306 C 3.298 565.504,3.372 565.759,3.462 565.000 C 3.540 564.340,3.809 562.761,4.059 561.490 C 4.607 558.705,4.350 558.113,3.680 560.619 M207.654 560.602 C 207.364 561.404,207.209 562.142,207.309 562.243 C 207.581 562.514,208.505 560.115,208.331 559.592 C 208.248 559.345,207.944 559.800,207.654 560.602 M206.485 563.773 C 205.786 565.308,205.892 566.017,206.613 564.633 C 206.948 563.991,207.165 563.296,207.096 563.088 C 207.027 562.880,206.752 563.188,206.485 563.773 M205.161 567.048 C 204.902 567.682,203.725 570.135,202.544 572.500 C 201.363 574.865,200.533 576.800,200.699 576.799 C 201.114 576.798,206.134 566.401,205.855 566.121 C 205.731 565.998,205.419 566.415,205.161 567.048 M3.256 579.054 C 3.225 580.186,3.479 581.712,3.821 582.454 L 4.442 583.800 4.166 582.400 C 4.015 581.630,3.760 580.100,3.601 579.000 L 3.313 577.000 3.256 579.054 M199.279 578.704 C 198.804 579.527,198.035 580.830,197.570 581.600 L 196.724 583.000 197.767 581.800 C 198.878 580.520,200.535 577.602,200.290 577.356 C 200.209 577.275,199.754 577.882,199.279 578.704 M195.342 584.863 C 185.706 599.837,166.029 616.967,148.200 625.904 C 143.012 628.504,138.893 630.400,138.431 630.400 C 138.230 630.400,137.555 630.659,136.932 630.976 C 135.448 631.730,133.467 632.537,131.000 633.392 C 129.900 633.773,128.640 634.233,128.200 634.414 C 127.760 634.595,126.050 635.133,124.400 635.609 C 122.750 636.086,120.860 636.633,120.200 636.825 C 115.972 638.055,113.823 638.540,106.000 640.030 C 98.621 641.435,82.497 642.233,77.121 641.460 C 74.598 641.097,72.009 640.802,71.367 640.805 C 70.219 640.810,67.525 640.292,60.800 638.774 C 57.130 637.945,51.733 636.312,49.800 635.445 C 49.140 635.149,47.610 634.480,46.400 633.957 C 34.733 628.922,23.430 620.403,17.117 611.888 C 16.008 610.391,15.015 609.252,14.911 609.356 C 14.225 610.042,22.530 619.106,28.000 623.640 C 32.575 627.433,45.886 635.200,47.810 635.200 C 47.939 635.200,48.842 635.564,49.817 636.008 C 65.984 643.373,96.378 644.148,119.000 637.773 C 137.490 632.562,154.645 624.344,166.600 614.972 C 167.260 614.455,168.880 613.198,170.200 612.179 C 175.102 608.397,184.715 599.355,187.401 596.000 C 187.841 595.450,188.921 594.100,189.801 593.000 C 190.680 591.900,191.495 590.910,191.611 590.800 C 192.344 590.105,196.812 583.478,196.654 583.320 C 196.547 583.214,195.957 583.908,195.342 584.863 M4.419 586.476 C 4.409 587.068,4.580 587.664,4.800 587.800 C 5.020 587.936,5.214 588.442,5.232 588.924 C 5.249 589.406,5.350 589.587,5.456 589.327 C 5.562 589.067,5.376 588.077,5.043 587.127 C 4.537 585.682,4.435 585.576,4.419 586.476 M5.621 591.076 C 5.609 591.558,5.780 592.064,6.000 592.200 C 6.220 592.336,6.400 592.724,6.400 593.063 C 6.400 594.083,10.167 602.209,10.829 602.618 C 11.417 602.981,11.269 602.498,10.300 600.892 C 9.271 599.186,8.372 597.304,7.485 595.000 C 7.146 594.120,6.593 592.680,6.255 591.800 C 5.826 590.682,5.635 590.464,5.621 591.076 M12.411 605.633 C 12.417 605.945,12.967 606.830,13.635 607.600 L 14.848 609.000 13.770 607.200 C 12.444 604.985,12.397 604.931,12.411 605.633 " stroke="none" fill="#c4c4c4" fill-rule="evenodd"></path></g></svg>